<?xml version="1.0" encoding="UTF-8"?>
<svg xmlns="http://www.w3.org/2000/svg" viewBox="258 338 285 352">
  <path fill="#fff" d="M536.46 529.83c-2.14 96.89-136 159-136 159s-133-58.34-136.5-159l-6.42-186h285.88s-4.82 89.11-6.96 186z"/>
  <path fill="#fff" d="M512.44 343.82h31s-4.82 89.13-7 186-136 159-136 159-133-58.34-136.5-159l-6.42-186H485.7"/>
  <path fill="#254aaf" d="M530.14 529.37C528.1 623 400.5 683 400.5 683s-126.84-56.4-130.16-153.63l-6.12-179.7h272.56s-4.59 86.1-6.64 179.7z"/>
  <path fill="#d8d8d8" d="M500.6 371.92l-43.74 47.35 11.18 9.58 41.12-49.44-8.56-7.49z"/>
  <rect width="4.74" height="24.56" x="505.02" y="361.09" rx="1" ry="1" transform="rotate(-49.43 507.403 373.375)"/>
  <rect width="4.74" height="16.92" x="508.1" y="361.31" rx="1" ry="1" transform="rotate(-49.43 510.481 369.776)"/>
  <rect width="4.74" height="11.38" x="511.18" y="360.49" rx="1" ry="1" transform="rotate(-49.43 513.56 366.177)"/>
  <rect width="4.74" height="24.56" x="458.45" y="413.5" fill="#e2a120" rx="1" ry="1" transform="rotate(-49.43 460.831 425.793)"/>
  <path d="M468.49 436.16a2 2 0 0 1-1.3-.48L450.06 421a2 2 0 0 1-.22-2.82l1.78-2.08a2 2 0 0 1 2.82-.22l17.14 14.67a2 2 0 0 1 .22 2.82l-1.8 2.09a2 2 0 0 1-1.51.7zm-15.36-18.75l-1.78 2.08 17.9 15.32-.76-.65 1.78-2.08z"/>
  <path fill="#e2a120" d="M425.15 406.38s26.59 27.87 62.05 50.24l1 6.77 2.75 2.45 7.47-1.32 1.56-2.81-1.15-2.9 1.5-4.83-4-2.91-4.77 1.25-32-23-29-26.06v-3.6l-1.46-4.83-5.3-.68-7.13-1 .38 5.95-.41 4.64.85 2.1z"/>
  <path d="M491 466.84a1 1 0 0 1-.67-.25l-2.75-2.45a1 1 0 0 1-.32-.6l-.94-6.32c-33.07-20.94-58.67-46.88-61.58-49.87l-7.18-.46a1 1 0 0 1-.86-.62l-.85-2.1a1 1 0 0 1-.07-.46l.4-4.56-.38-5.87a1 1 0 0 1 1.13-1.06l12.43 1.65a1 1 0 0 1 .83.7l1.46 4.83a1 1 0 0 1 0 .29v3.15l28.63 25.73 31.54 22.66 4.31-1.13a1 1 0 0 1 .85.16l4 2.91a1 1 0 0 1 .36 1.1l-1.39 4.49 1 2.57a1 1 0 0 1-.06.85l-1.58 2.82a1 1 0 0 1-.7.5l-7.47 1.32zm-1.81-4l2.12 1.88 6.53-1.15 1.1-2-1-2.46a1 1 0 0 1 0-.67l1.28-4.15-3-2.21-4.3 1.13a1 1 0 0 1-.84-.16l-32-23-.08-.07L430 404a1 1 0 0 1-.33-.74v-3.45l-1.23-4.06-10.59-1.41.3 4.73a1 1 0 0 1 0 .15l-.39 4.4.52 1.3 6.93.44a1 1 0 0 1 .66.31c.26.28 26.92 28 61.86 50.09a1 1 0 0 1 .46.7z"/>
  <path fill="#fff" d="M375.35 623.22l16.35-3.27 9.04-4.43 5.54-2.58 5.04-8.26 4.45-7.03.96-7.67 4.18-9.84 4.44-7.14 9.34-6.52 6.76-4.17.72-6.14.94-9.54-.79-3.89-1.54.25-1.95 2.18-2.55 1.46-1.59-2.15-.88-1.49 1.78-.5.69-2.7-2.17-1.33-2.46.92-1.38-3.43 2.86-2.62 4.09-1.85v-2.27l-2.2-.96h-2.39l-1.42-1.72-.4-2.78 3.88-4.52 3.98-1.31 1.03-1.61-3.42-4.14-2.11-1.91 3.51-3.96 1.53 3.96 4.32 1.91-1.03 2.32 1.83 1.82 4.33.21.61 2.57-1.85 4.09-4.01 3.22 1.85.19 3.26-1.81 2.86.88 3.22 3.55.79 4.12-1.72 2.62-2.29 1.39-1.65.3 1.42 2.64-1.42 2.71h-4.47l-.34 1.99-.34 7.6-1.05 7.53 5.74-3.78 12.08-13.34 3.44-8.96 2.15-5.78-.43-8.89-7.97-3.29.47-4.56 3.54-1.13-.38-4.08-2.52-.75h-5.34l-2.3-2.34 1.66-4.02 4.52-2.22-1.82-5.59-2.58-1.02 2.58-7.18.28-4.1 4.7 6.42 1.43 3.93 4.61-.45 2.85 3.68-.89 2.11 2.89 2.14 2.59 2.4-2.03 3.46 2.45 3.36 1.78 4.98-2.54 3.38-3.73 1.18-1.13-.09.43 8.17.17 5.47 6.8-2.93 1.19-2.76v-7.22l1.52-2.51 4.88-1.13 3.03 4.33 2.32-1.59v-3.53l1.76-4.05-4.27-1.7.75-1.77 5.8-1.74 6.88.92 3.84-2.6 2.27 5.93-.67 6.93-2.83 4.12h-4.17l-2.62 1.17-1.16-1.17-1.24 3.61-2.18 5.06-4.67 1.66-4.29.42-2.01-3.01-1.13-.32-3.43 2.22-5.95 3.92-.8 5.2 22.29.84 4.89-3.49 6.79.6-.55 1.32-3.54 1.62-4.18 1.75-2.72-.82-24.56.45-1.85 4.62-2.93 3.83 6.14-.07 5.93.65 2.09-1.93 6.21-1.15 2.81 3.95-1.39 3.3 5.47 1.28 1.94-3.12.49-2.11 3.53.65 1.42 5.85 3.24.47-1.03 4.24 5.96 2.71 2.16 5.37-.17 2.1-5.62-2.42-1.89 3.36-2.76 1.26-4.29-3.05h-3.76l-1.76-2.57 1.12-4.34-2.66-.33-2.05 2.5-.59 3.65.08 3.15-2.28-.63-2.24-2.67-1.07-2.24-6.28.12-3.56.48-1.59-2.53.3-3.71 3.31-3.37 2.97-.08-.87-3.59 2.45-1.4-5.62-1.71-9.44 1.73-8.81 8.21-10.6 7.09-11.61 8.5-3.82 5.63-4.47 6.95-.06 6.04 5.51-.12 9.95-1.31 7.25-5.23.8-4.94-2.16-3.52 2.16-3.58 7.05.24 1.52 1.96 2.81-3.81 2.29-1.4 2.19 2.76-.34 2.04 1.29 1.12 3.54-3.5 2.26-.83 3.24 1.48 2.06 3.01-1.38 1.64-.8 4.56-2.97-1.31-3.22-.86.81 3.98-2.35 5-3.79 1.23-3.37-1.4-1.78 2.12-3.66.47-3.69-2.06-.59-2.4-8.23 5.01-9.22 2.36-8.77.07-3.13 10.43-5.27 8.67-9 6.24-14.71 5.25-11.12 2.08-4.57-1.5-6.93 1.5-2.28.57v-2.96l5.41-4.94.23-3.32 4.5.1 2.99 4.7z"/>
  <path fill="#fff" d="M420.36 559.41l-4.26 3.92v4.96l2.54 2.24h2.52l1.1-2.8 2.69-.6-.95-3.8-3.48-2.46-.16-1.46zM322.48 431.53l1.17 3.07 4.94 1.06.4 1.73h2.67l.03 1.37 1.71 1.38 1.72 2.71 4.46 3.78 34.25 34.33 2.21-.77.72-2.19-34.55-35-4.73-4.69-1.81-.64.11-2.89-2.69 1.2.28-2.96-2.5-2.63-1.23-2.04-2.61-.95-2.17 2.2-2.38 1.93z"/>
  <ellipse cx="323.37" cy="427.54" fill="#fff" rx="4.45" ry="2.42" transform="rotate(-49.43 323.386 427.552)"/>
  <path fill="#fff" d="M326.59 435.66l-4.3.12-6.19 3.22-4.62 4.35-6.55 5.57-6.93 3.74-9.23 4.45-4 4-4.79 6.1-2.54 5.79v2.08l3.76-.16 10.25-2.71 6.69-2.87 8.08-4.85s10.07-7.35 14-16.19 10.3-11.39 10.3-11.39zM331.36 430.88l.12-4.3 3.18-6.19 4.35-4.62 5.57-6.55 3.77-6.94 4.45-9.23 4-4 6.1-4.79 5.84-2.51h2.08l-.16 3.76-2.71 10.25-2.87 6.69-4.85 8.08s-7.35 10.07-16.19 14-11.39 10.3-11.39 10.3zM331.69 438.76L323.18 449l-3.35 6.35-4.27 6.09-2.6 4.37-3 2.61-5.9 4.9-3.48 3.2-3.13 6.29-2.26 6-.9 5.63s.21 2 2.75 0a25.36 25.36 0 0 1 7-3.3l8.12-6.38 7.73-6 7.72-8.33 6.57-8.77 3.37-7.53 1.68-5.67-1.68-2.81-2.36-2.85zM334.73 435.57l10.27-8.51 6.35-3.35 6.09-4.27 4.37-2.6 2.61-3 4.9-5.9 3.2-3.48 6.29-3.13 6-2.26 5.63-.9s2 .21 0 2.75a25.36 25.36 0 0 0-3.3 7l-6.35 8.08-6 7.73-8.33 7.72-8.78 6.55-7.53 3.37-5.67 1.68-2.81-1.68-2.86-2.37z"/>
  <path d="M400.5 690.81a2 2 0 0 1-.8-.17 337.8 337.8 0 0 1-67.4-42c-44.55-35.92-68.85-77-70.3-118.72l-6.42-186a2 2 0 0 1 2-2.07H485.7v4H259.65L266 529.76c1.77 51.2 38.36 91.17 68.74 115.68a336.69 336.69 0 0 0 65.74 41.16 358.91 358.91 0 0 0 66-42.55c30.41-24.94 66.9-65 68-114.26 1.94-87.64 6.11-169.9 6.85-184h-28.89v-4h31a2 2 0 0 1 2 2.11c0 .89-4.84 90.2-7 185.95-.89 40.22-24.93 80.79-69.52 117.33a360 360 0 0 1-67.6 43.42 2 2 0 0 1-.82.21z"/>
  <path d="M485.43 343.2h7.32v2.68h-7.32zM400.5 684a1 1 0 0 1-.41-.09A320.24 320.24 0 0 1 336 643.4c-29.47-24.08-65-63.4-66.69-114l-6.12-179.7a1 1 0 0 1 1-1h272.59a1 1 0 0 1 1 1.05c0 .86-4.62 87.16-6.63 179.67h-1 1c-1.06 48.73-36.45 88.15-65.95 112.64a341.53 341.53 0 0 1-64.27 41.83 1 1 0 0 1-.43.11zM265.25 350.67l6.09 178.67c1.7 49.85 36.8 88.7 66 112.52a320 320 0 0 0 63.19 40A341.46 341.46 0 0 0 464 640.47c29.16-24.22 64.15-63.16 65.19-111.12 1.9-87 6.05-168.53 6.58-178.68z"/>
  <path d="M314.46 595.44a2.37 2.37 0 0 1-1.74-.67c-2.23-2.23-9-9 135.3-167.3l1.48 1.35c-26.27 28.82-63.55 70.26-92 104-14.8 17.58-26 31.63-33.25 41.77-11.7 16.32-10.31 18.52-10.11 18.72a.62.62 0 0 0 .38.08c9-.39 60.73-56 145.54-156.65l1.53 1.29c-60.25 71.49-134.66 156.83-147 157.35zM468.81 429.49l-1.53-1.29c21.26-25.31 37.23-44.7 40.5-48.68l-7.11-6.22c-3.52 3.76-20.7 22.19-43.07 46.64l-1.48-1.35c25-27.35 43.57-47.17 43.75-47.36a1 1 0 0 1 1.39-.07l8.56 7.49a1 1 0 0 1 .12 1.39c-.17.22-17.34 21.13-41.13 49.45z"/>
  <path d="M515.07 383.75a2 2 0 0 1-1.3-.48l-17.14-14.67a2 2 0 0 1-.22-2.82l1.78-2.08a2 2 0 0 1 2.82-.22l17.14 14.67a2 2 0 0 1 .22 2.82l-1.78 2.03a2 2 0 0 1-1.52.75zM499.71 365l-1.78 2.08 17.14 14.67 1.78-2.08z"/>
  <path d="M515.25 377.67a2 2 0 0 1-1.3-.48l-11.34-9.71a2 2 0 0 1-.22-2.82l1.78-2.08a2 2 0 0 1 2.82-.22l11.34 9.71a2 2 0 0 1 .22 2.82l-1.78 2.11a2 2 0 0 1-1.52.67zm-9.56-13.78l-1.78 2.11L516 376.32l-.76-.65 1.78-2.08z"/>
  <path d="M516.22 372.27a2 2 0 0 1-1.3-.48l-7.12-6.1a2 2 0 0 1-.22-2.82l1.78-2.08a2 2 0 0 1 2.82-.22l7.12 6.1a2 2 0 0 1 .22 2.82l-1.78 2.08a2 2 0 0 1-1.37.69zm-5.34-10.17l-1.78 2.08 7.12 6.1 1.78-2.08zM456.46 435.79L340.34 564l114.63-129.54 1.49 1.33zM453.34 432.88l-84.28 92.52 82.79-93.85 1.49 1.33zM468.49 436.16a2 2 0 0 1-1.3-.48L450.06 421a2 2 0 0 1-.22-2.82l1.78-2.08a2 2 0 0 1 2.82-.22l17.14 14.67a2 2 0 0 1 .22 2.82l-1.8 2.09a2 2 0 0 1-1.51.7zm-15.36-18.75l-1.78 2.08 17.9 15.32-.76-.65 1.78-2.08zM498.18 375.8c.94 1.83 1.76 3.65 2.54 5.51s1.49 3.73 2.13 5.63q-1.42-2.64-3-5.17a78.058 78.058 0 0 0-3.34-4.9zM501.18 372.8c.94 1.83 1.76 3.65 2.54 5.51s1.49 3.73 2.13 5.63q-1.42-2.64-3-5.17a78.058 78.058 0 0 0-3.34-4.9zM495.32 378.94c.94 1.83 1.76 3.65 2.54 5.51s1.49 3.73 2.13 5.63q-1.42-2.64-3-5.17a78.058 78.058 0 0 0-3.34-4.9zM492.46 382.07c.94 1.83 1.76 3.65 2.54 5.51s1.49 3.73 2.13 5.63q-1.42-2.64-3-5.17a78.058 78.058 0 0 0-3.34-4.9zM489.61 385.21c.94 1.83 1.76 3.65 2.54 5.51s1.49 3.73 2.13 5.63q-1.42-2.64-3-5.17a78.058 78.058 0 0 0-3.34-4.9zM486.75 388.34c.94 1.83 1.76 3.65 2.54 5.51s1.49 3.73 2.13 5.63q-1.42-2.64-3-5.17a78.058 78.058 0 0 0-3.34-4.9zM483.89 391.48c.94 1.83 1.76 3.65 2.54 5.51s1.49 3.73 2.13 5.63q-1.42-2.64-3-5.17a78.058 78.058 0 0 0-3.34-4.9zM481 394.61c.94 1.83 1.76 3.65 2.54 5.51s1.49 3.73 2.13 5.63q-1.42-2.64-3-5.17a78.058 78.058 0 0 0-3.34-4.9zM478.17 397.75c.94 1.83 1.76 3.65 2.54 5.51s1.49 3.73 2.13 5.63q-1.42-2.64-3-5.17a78.058 78.058 0 0 0-3.34-4.9zM475.31 400.88c.94 1.83 1.76 3.65 2.54 5.51s1.49 3.73 2.13 5.63q-1.42-2.64-3-5.17a78.058 78.058 0 0 0-3.34-4.9zM472.45 404c.94 1.83 1.76 3.65 2.54 5.51s1.49 3.73 2.13 5.63q-1.42-2.64-3-5.17a78.058 78.058 0 0 0-3.34-4.9zM469.6 407.15c.94 1.83 1.76 3.65 2.54 5.51s1.49 3.73 2.13 5.63q-1.42-2.64-3-5.17a78.058 78.058 0 0 0-3.34-4.9zM466.74 410.29c.94 1.83 1.76 3.65 2.54 5.51s1.49 3.73 2.13 5.63q-1.42-2.64-3-5.17a78.058 78.058 0 0 0-3.34-4.9zM463.88 413.42c.94 1.83 1.76 3.65 2.54 5.51s1.49 3.73 2.13 5.63q-1.42-2.64-3-5.17a78.058 78.058 0 0 0-3.34-4.9z"/>
  <path d="M461 416.56c.94 1.83 1.76 3.65 2.54 5.51s1.49 3.73 2.13 5.63q-1.42-2.64-3-5.17a78.058 78.058 0 0 0-3.34-4.9zM506.12 384.64c-1.67-1-3.44-1.93-5.22-2.81s-3.6-1.7-5.46-2.46q2.93.66 5.82 1.53c1.93.58 3.83 1.21 5.75 2zM508.79 381.34c-1.67-1-3.44-1.93-5.22-2.81s-3.6-1.7-5.46-2.46q2.93.66 5.82 1.53c1.93.58 3.83 1.21 5.75 2zM503.3 387.81c-1.67-1-3.44-1.93-5.22-2.81s-3.6-1.7-5.46-2.46q2.93.66 5.82 1.53c1.93.58 3.83 1.21 5.75 2zM500.48 391c-1.67-1-3.44-1.93-5.22-2.81s-3.6-1.7-5.46-2.46q2.93.66 5.82 1.53c1.93.58 3.83 1.21 5.75 2zM497.66 394.15c-1.67-1-3.44-1.93-5.22-2.81s-3.6-1.7-5.46-2.46q2.93.66 5.82 1.53c1.93.58 3.83 1.21 5.75 2zM494.84 397.32c-1.67-1-3.44-1.93-5.22-2.81s-3.6-1.7-5.46-2.46q2.93.66 5.82 1.53c1.93.58 3.83 1.21 5.75 2zM492 400.5c-1.67-1-3.44-1.93-5.22-2.81s-3.6-1.7-5.46-2.46q2.93.66 5.82 1.53c1.93.58 3.83 1.21 5.75 2zM489.2 403.67c-1.67-1-3.44-1.93-5.22-2.81s-3.6-1.7-5.46-2.46q2.93.66 5.82 1.53c1.93.58 3.83 1.21 5.75 2zM486.39 406.84c-1.67-1-3.44-1.93-5.22-2.81s-3.6-1.7-5.46-2.46q2.93.66 5.82 1.53c1.93.58 3.83 1.21 5.75 2zM483.57 410c-1.67-1-3.44-1.93-5.22-2.81s-3.6-1.7-5.46-2.46q2.93.66 5.82 1.53c1.93.58 3.83 1.21 5.75 2zM480.75 413.18c-1.67-1-3.44-1.93-5.22-2.81s-3.6-1.7-5.46-2.46q2.93.66 5.82 1.53c1.93.58 3.83 1.21 5.75 2zM477.93 416.35c-1.67-1-3.44-1.93-5.22-2.81s-3.6-1.7-5.46-2.46q2.93.66 5.82 1.53c1.93.58 3.83 1.21 5.75 2zM475.11 419.52c-1.67-1-3.44-1.93-5.22-2.81s-3.6-1.7-5.46-2.46q2.93.66 5.82 1.53c1.93.58 3.83 1.21 5.75 2zM472.29 422.69c-1.67-1-3.44-1.93-5.22-2.81s-3.6-1.7-5.46-2.46q2.93.66 5.82 1.53c1.93.58 3.83 1.21 5.75 2z"/>
  <path d="M469.47 425.86c-1.67-1-3.44-1.93-5.22-2.81s-3.6-1.7-5.46-2.46q2.93.66 5.82 1.53c1.93.58 3.83 1.21 5.75 2zM311.81 214a5.41 5.41 0 1 1-.12-10.83c.54-.08 4.1-.55 11.08-1a1 1 0 0 1 1.06.94 1 1 0 0 1-.94 1.06c-7.36.46-11 1-11 1h-.14a3.42 3.42 0 1 0 0 6.83l11.94-.57a1 1 0 1 1 .1 2l-12 .58zM385.52 214c-.33 0-27.91-1.46-36.88-1.46-1.29 0-3.74 0-5.62.08a1 1 0 0 1 0-2c1.89 0 4.37-.08 5.67-.08 9 0 36.65 1.45 36.93 1.47a3.42 3.42 0 1 0-.05-6.83h-.13c-.13 0-13.48-1.71-36.75-1.71-4.06 0-13.9.14-14 .14a1 1 0 0 1-1-1 1 1 0 0 1 1-1c.1 0 10-.14 14-.14 22.6 0 35.92 1.59 36.95 1.72a5.41 5.41 0 1 1-.07 10.83z"/>
  <path d="M314.13 457.28c3.1-3.63 5.5-7.71 8.24-11.6a33.2 33.2 0 0 1 4.6-5.31 20.43 20.43 0 0 1 3.14-2.43 11.28 11.28 0 0 0 2.53-1.59.22.22 0 0 0-.15-.37c-1.76-.1-3.6 1.45-4.91 2.5a25.4 25.4 0 0 0-4.65 5.14c-3.15 4.41-5.32 9.48-8.85 13.61 0 0 0 .09.05.05zM331.31 438.48c-4.47 4.07-8.1 9.38-11.15 14.57-1.62 2.76-3 5.68-4.6 8.42a25.22 25.22 0 0 1-7.06 7.53 35.18 35.18 0 0 0-10.33 11.13 32.46 32.46 0 0 0-2.88 6.81 19.91 19.91 0 0 0-1 7.56c0 .07.12.1.14 0 .56-2.48.71-5 1.44-7.43a32.37 32.37 0 0 1 3.23-7.39 31.53 31.53 0 0 1 5-6.34c2.12-2.08 4.61-3.64 6.9-5.51 4.53-3.7 6.92-9.15 9.88-14.05 3.23-5.34 7.13-10.07 10.89-15 .17-.22-.19-.46-.38-.29zM333.94 439.06c-1.23 1.37-.29 3.21.81 4.38s3.07 2.08 3.47 3.91c.35 1.63-.31 3.59-.83 5.13-2.13 6.32-6.08 12.27-10.25 17.41a86.63 86.63 0 0 1-14.24 13.79c-2.83 2.19-5.77 4.23-8.8 6.13s-5.94 3.37-8.78 5.25a.36.36 0 0 0 .35.62c5-2.08 9.61-5.26 14-8.35a96.83 96.83 0 0 0 12.1-10 78.43 78.43 0 0 0 9.92-11.83 51.41 51.41 0 0 0 6.88-13.3c.59-1.89 1.27-4.39.25-6.26-1.32-2.41-5-3.27-4.35-6.58.06-.28-.3-.54-.52-.3z"/>
  <path d="M329.68 436.42c-5.07 1.28-11.12 3.63-14.64 7.69-.15.17 0 .47.26.34 2.26-1.41 4.28-3.13 6.62-4.43a37.77 37.77 0 0 1 7.85-3.27.17.17 0 0 0-.08-.32zM321.18 448c1.09-1.51 2.28-2.92 3.48-4.35 0 0 0-.08-.05-.05a50 50 0 0 0-3.49 4.36s0 .07.06 0zM322.8 432.64a38.24 38.24 0 0 0-5.32 2.11c-1.09.57-.16 2.12.93 1.64a36.89 36.89 0 0 0 4.8-2.74c.5-.32.21-1.22-.41-1z"/>
  <path d="M317.76 435c-1.29-1.49-2.55-3-3.87-4.46-.41-.45-1.17-1.9-2-1.3a.88.88 0 0 0-.4 1 6.54 6.54 0 0 0 2.14 2.56c1.12 1 2.31 1.93 3.5 2.85a.43.43 0 0 0 .61-.61z"/>
  <path d="M313 429.63c0-.73-.08-2-.81-2.35a.73.73 0 0 0-1.05.44 1.73 1.73 0 0 0 .28 1.18 5.32 5.32 0 0 1 .32.89.65.65 0 0 0 1.27-.16z"/>
  <path d="M312 427.54c-.38-.79-1.15-1.13-1.64-1.8-.64-.87.19-2 0-3 0-.21-.3-.18-.39-.05a3.86 3.86 0 0 0-.58 3c.39 1 1.58 1.3 2.22 2.1.17.21.46-.06.36-.27zM334.3 443.67a53.05 53.05 0 0 0 1.92 6.22c.6 1.5 1.11 3.4 2.45 4.38a.38.38 0 0 0 .57-.33c0-1.58-1.22-3.11-1.9-4.51-.94-1.94-1.88-3.86-2.68-5.86-.09-.22-.43-.15-.37.1z"/>
  <path d="M338.18 454.66c-.75 2.64-2.55 6.34-1.06 9 .1.18.45.12.42-.11a10.1 10.1 0 0 1 .4-4.56 22.43 22.43 0 0 0 1.22-4.22c.07-.58-.83-.66-1-.13zM337.05 463.82c-3.56 1.08-.94 5.83-.8 8.15a.08.08 0 0 0 .17 0 22.79 22.79 0 0 0-.54-3.47c-.21-1.74.74-2.78 1.56-4.18a.35.35 0 0 0-.39-.5zM317.63 479.49c-2-3.48-.31-7.35 1.68-10.4 1.77-2.72 3.73-5.32 5.5-8 3.18-4.88 6.4-10.52 6.83-16.46a.07.07 0 0 0-.14 0 39.83 39.83 0 0 1-3.32 10 72.2 72.2 0 0 1-5.5 8.9c-3.14 4.47-9 10.53-5.51 16.33a.26.26 0 0 0 .46-.26zM333.08 438.35zM317.25 446.12a18.14 18.14 0 0 0-7.29 4.73.13.13 0 0 0 .19.19 32.89 32.89 0 0 1 7.16-4.78c.07 0 0-.16-.05-.13z"/>
  <path d="M313.38 449c1.11-.49 2.23-1 3.36-1.41a14.4 14.4 0 0 0 2.59-1.08.17.17 0 0 0-.12-.31c-2 .33-4.13 1.7-5.92 2.63-.11.06 0 .21.09.17zM331.13 440.57a92.57 92.57 0 0 1-5.67 15.76c-.06.12.12.23.19.11a47.72 47.72 0 0 0 5.6-15.84c0-.07-.1-.11-.12 0zM331.32 430.39c.79-6.74 5.67-11.7 9.77-16.74 2.06-2.53 4.17-5 6-7.75a57 57 0 0 0 4.91-9.4 26.83 26.83 0 0 1 13.39-13.65 25.1 25.1 0 0 1 2.5-1c1.07-.36 2.4-1.1 2.66.83a9.16 9.16 0 0 1-.46 2.61q-.26 1.28-.58 2.54a76.71 76.71 0 0 1-2.84 9.14 70.92 70.92 0 0 1-11.45 19.91s0 .06 0 0a66.54 66.54 0 0 0 11.85-18.52 61.5 61.5 0 0 0 3.35-10.62c.33-1.54.64-3.11.83-4.67.12-1 .07-2.06-1-2.46s-2.49.35-3.41.68a24.87 24.87 0 0 0-4.61 2.25 28.79 28.79 0 0 0-7.69 7c-2.28 3-3.5 6.47-5.12 9.85a54.15 54.15 0 0 1-7.14 10.49c-2.62 3.22-5.4 6.36-7.83 9.74-2 2.84-3.86 6.13-3.63 9.73a.23.23 0 0 0 .45 0zM353.21 418.1c-4.13 3.52-9.2 5.7-13.61 8.85a25.57 25.57 0 0 0-4.95 4.42c-1.11 1.35-2.79 3.3-2.68 5.13a.22.22 0 0 0 .37.15 11.12 11.12 0 0 0 1.59-2.53 19.48 19.48 0 0 1 2.23-2.92 33.59 33.59 0 0 1 5.51-4.82c3.89-2.75 8-5.14 11.6-8.24 0 0 0-.08-.05-.05zM334.74 435.7c4.87-3.69 9.5-7.54 14.75-10.72 5-3 10.56-5.44 14.33-10 1.81-2.22 3.33-4.64 5.32-6.7a31.46 31.46 0 0 1 6.3-5 32.13 32.13 0 0 1 7.36-3.29c2.55-.77 5.12-.93 7.69-1.51.09 0 .06-.13 0-.14a20 20 0 0 0-7.56 1 32.46 32.46 0 0 0-6.58 2.74A35.1 35.1 0 0 0 365 412.52a25.13 25.13 0 0 1-7.52 7.05c-2.65 1.6-5.47 2.89-8.14 4.44-5.29 3.07-10.72 6.77-14.86 11.31-.17.19.06.55.29.38zM335.34 438.48c3-.6 4 2.45 6 4 1.46 1.11 3.21 1 4.92.63 4.77-.95 9.34-3.59 13.4-6.17A84.19 84.19 0 0 0 382 415.49c3.6-4.88 7.3-10.19 9.65-15.8a.36.36 0 0 0-.62-.35c-1.88 2.85-3.43 5.9-5.25 8.78s-3.94 6-6.13 8.8a86.63 86.63 0 0 1-13.79 14.24c-5.14 4.17-11.09 8.12-17.41 10.25-1.54.52-3.5 1.18-5.13.83-1.84-.4-2.66-2.28-3.91-3.47s-3-2-4.38-.81c-.24.22 0 .57.3.52z"/>
  <path d="M332.72 433.78a37.77 37.77 0 0 1 3.27-7.85c1.31-2.34 3-4.36 4.43-6.62.13-.22-.16-.41-.34-.26-4.06 3.52-6.41 9.57-7.69 14.64a.17.17 0 0 0 .32.08zM354.93 416.66a17.52 17.52 0 0 1-4.67 3.91 18.6 18.6 0 0 0-4.16 2.74s0 .08.05.05c1.63-1.29 3.63-2 5.32-3.16a16.89 16.89 0 0 0 3.51-3.49s0-.09-.05-.05zM344 425.13a50 50 0 0 0-4.36 3.49s0 .08.05.05c1.43-1.2 2.83-2.39 4.35-3.48v-.06zM358.52 388.45a26.79 26.79 0 0 0-7.75 16.45c0 .08.12.1.14 0a35.56 35.56 0 0 1 7.83-16.25c.13-.15-.08-.36-.22-.22zM329.63 427.23a36.9 36.9 0 0 0 2.74-4.8c.48-1.08-1.07-2-1.64-.93a38.23 38.23 0 0 0-2.11 5.32c-.21.61.69.91 1 .41z"/>
  <path d="M331.55 421.17c-.92-1.19-1.85-2.37-2.85-3.5a6.54 6.54 0 0 0-2.56-2.14.87.87 0 0 0-1 .4c-.6.79.86 1.57 1.3 2 1.46 1.32 3 2.58 4.46 3.87a.43.43 0 0 0 .61-.61z"/>
  <path d="M325.78 415.8a5.32 5.32 0 0 1-.89-.32 1.73 1.73 0 0 0-1.18-.28.73.73 0 0 0-.44 1.05c.38.73 1.62.78 2.35.81a.65.65 0 0 0 .16-1.27z"/>
  <path d="M323.79 415.66c-.81-.65-1.07-1.82-2.1-2.22a3.87 3.87 0 0 0-3 .58c-.13.1-.15.36.05.39 1 .15 2.16-.69 3 0 .67.51 1 1.26 1.8 1.64.21.1.48-.19.27-.36zM339.56 438.68c2 .79 3.93 1.74 5.86 2.68 1.4.68 2.93 1.85 4.51 1.9a.38.38 0 0 0 .33-.57c-1-1.33-2.89-1.85-4.38-2.45a52.83 52.83 0 0 0-6.22-1.92c-.24-.06-.32.28-.1.37z"/>
  <path d="M350.77 443.18A22.45 22.45 0 0 0 355 442a10.06 10.06 0 0 1 4.56-.4c.23 0 .3-.32.11-.42-2.68-1.5-6.38.31-9 1.06-.52.15-.46 1.06.13 1zM360.3 441.46c1.39-.82 2.44-1.78 4.18-1.56a22.65 22.65 0 0 0 3.47.54.08.08 0 0 0 0-.17c-2.32-.14-7.06-2.76-8.15.8a.35.35 0 0 0 .5.39zM388.16 403.8a32 32 0 0 0-16.84 8.79c-.09.09 0 .21.13.13a42.14 42.14 0 0 1 16.85-8.37c.36-.08.21-.62-.15-.55zM375.73 421.19c-5.81-3.5-11.86 2.37-16.33 5.51a73.43 73.43 0 0 1-8.65 5.38 39.9 39.9 0 0 1-10.2 3.44.07.07 0 0 0 0 .14c5.94-.43 11.58-3.65 16.46-6.83 2.64-1.72 5.17-3.6 7.8-5.34 3.11-2.06 7.07-3.86 10.65-1.85a.26.26 0 0 0 .26-.46zM334.33 437.1zM342.23 421.32a32.89 32.89 0 0 1 4.78-7.16.13.13 0 0 0-.19-.19 18.14 18.14 0 0 0-4.73 7.29c0 .08.1.13.13.05z"/>
  <path d="M344.85 417.31c-.93 1.79-2.3 3.91-2.63 5.92a.17.17 0 0 0 .31.12 14.53 14.53 0 0 0 1.08-2.59c.44-1.13.91-2.25 1.41-3.36 0-.11-.11-.2-.17-.09zM366.68 396.08c-2.17-.78-5.37-.71-7.3.7a.18.18 0 0 0 .13.33c1.1-.22 2.13-.76 3.24-1a8.09 8.09 0 0 1 3.89.09c.07 0 .1-.09 0-.12zM336.58 435.26a47.73 47.73 0 0 0 15.84-5.6.11.11 0 0 0-.11-.19 92.57 92.57 0 0 1-15.76 5.67c-.08 0 0 .13 0 .12zM320.83 427.14a5.06 5.06 0 0 0-.84-.52 3.85 3.85 0 0 0-.94-.33 2.49 2.49 0 0 0-1 0 2.12 2.12 0 0 0-.9.49 2.21 2.21 0 0 1 .84-.65 2.74 2.74 0 0 1 1.09-.17 4.26 4.26 0 0 1 1.09.2 5.6 5.6 0 0 1 1 .43zM322.92 424.86a5.6 5.6 0 0 1-.43-1 4.26 4.26 0 0 1-.2-1.09 2.74 2.74 0 0 1 .17-1.09 2.21 2.21 0 0 1 .65-.84 2.12 2.12 0 0 0-.49.9 2.49 2.49 0 0 0 0 1 3.85 3.85 0 0 0 .33.94 5.06 5.06 0 0 0 .52.84zM342.19 446.34a3.57 3.57 0 0 1 1 .48 5.3 5.3 0 0 1 .84.68 5.21 5.21 0 0 1 .68.84 3.53 3.53 0 0 1 .48 1 3.53 3.53 0 0 1-1-.48 5.21 5.21 0 0 1-.84-.68 5.3 5.3 0 0 1-.68-.84 3.57 3.57 0 0 1-.48-1zM326 430a3.57 3.57 0 0 1 1 .48 5.3 5.3 0 0 1 .84.68 5.21 5.21 0 0 1 .68.84 3.53 3.53 0 0 1 .48 1 3.53 3.53 0 0 1-1-.48 5.21 5.21 0 0 1-.84-.68 5.3 5.3 0 0 1-.68-.84 3.57 3.57 0 0 1-.48-1zM321.47 425.46a5.68 5.68 0 0 1 1.28.72 9.07 9.07 0 0 1 1.08.92 8.91 8.91 0 0 1 .92 1.07 5.61 5.61 0 0 1 .72 1.28 5.61 5.61 0 0 1-1.28-.72 8.91 8.91 0 0 1-1.07-.92 9.07 9.07 0 0 1-.92-1.08 5.68 5.68 0 0 1-.73-1.27zM347 451.14a3.57 3.57 0 0 1 1 .48 5.3 5.3 0 0 1 .84.68 5.21 5.21 0 0 1 .68.84 3.53 3.53 0 0 1 .48 1 3.53 3.53 0 0 1-1-.48 5.21 5.21 0 0 1-.84-.68 5.3 5.3 0 0 1-.68-.84 3.57 3.57 0 0 1-.48-1zM351.78 455.93a3.57 3.57 0 0 1 1 .48 5.3 5.3 0 0 1 .84.68 5.21 5.21 0 0 1 .68.84 3.53 3.53 0 0 1 .48 1 3.53 3.53 0 0 1-1-.48 5.21 5.21 0 0 1-.84-.68 5.3 5.3 0 0 1-.68-.84 3.57 3.57 0 0 1-.48-1zM356.57 460.72a6.64 6.64 0 0 1 1.37.81 10.78 10.78 0 0 1 1.17 1 10.59 10.59 0 0 1 1 1.17 6.56 6.56 0 0 1 .81 1.37 6.56 6.56 0 0 1-1.37-.81 10.59 10.59 0 0 1-1.17-1 10.78 10.78 0 0 1-1-1.17 6.64 6.64 0 0 1-.81-1.37zM363 467.19a6.64 6.64 0 0 1 1.37.81 10.78 10.78 0 0 1 1.17 1 10.59 10.59 0 0 1 1 1.17 6.56 6.56 0 0 1 .81 1.37 6.56 6.56 0 0 1-1.37-.81 10.59 10.59 0 0 1-1.17-1 10.78 10.78 0 0 1-1-1.17 6.64 6.64 0 0 1-.81-1.37zM370.23 474.38a6.64 6.64 0 0 1 1.37.81 10.78 10.78 0 0 1 1.17 1 10.59 10.59 0 0 1 1 1.17 6.56 6.56 0 0 1 .81 1.37 6.56 6.56 0 0 1-1.37-.81 10.59 10.59 0 0 1-1.17-1 10.78 10.78 0 0 1-1-1.17 6.64 6.64 0 0 1-.81-1.37z"/>
  <path d="M325.42 429.09c-2 2-4.54 2.73-5.7 1.57s-.47-3.66 1.57-5.7 4.54-2.73 5.7-1.57.47 3.66-1.57 5.7zm-3.42-3.41c-1.72 1.72-2.21 3.63-1.57 4.26s2.54.15 4.26-1.57 2.21-3.63 1.57-4.26-2.53-.11-4.26 1.57z"/>
  <path d="M322.93 424.8a.34.34 0 0 1-.12.08 2.37 2.37 0 0 0-.39.17 3.45 3.45 0 0 0-.47.36 2.89 2.89 0 0 0-.22.22l-.11.12a1.43 1.43 0 0 0-.37.69.34.34 0 0 1-.27.26 1 1 0 0 1-.88-.22c-.47-.47-.24-1.42.54-2.2s1.72-1 2.2-.54a1 1 0 0 1 .22.88.34.34 0 0 1-.13.18zm-1.59.23l.13-.12a4.06 4.06 0 0 1 .57-.43 2.27 2.27 0 0 1 .33-.15.17.17 0 0 0 0-.1c-.12-.12-.69 0-1.24.54s-.66 1.11-.54 1.24h.08a2.09 2.09 0 0 1 .47-.76l.1-.11zM327.95 435.33l-.11.09a3.59 3.59 0 0 1-4.18-.82 3.44 3.44 0 0 1-.36-4.81 2.91 2.91 0 0 1 2.17-.82.51.51 0 0 1 .33.88.68.68 0 0 1-.17.11c-.41.17-1 .65-.77 1.31l.05.14a3.56 3.56 0 0 0 .23.53.51.51 0 0 1 .07.32l-.05.4a1.77 1.77 0 0 0 .1.58 1.23 1.23 0 0 0 1.45.88 1.75 1.75 0 0 0 .49-.22.51.51 0 0 1 .78.44h-.46.46a1.32 1.32 0 0 0 .09.41.51.51 0 0 1-.12.58zm-4.18-4.54a2.55 2.55 0 0 0 .59 3.09l.09.09a2.54 2.54 0 0 1-.17-.4 2.76 2.76 0 0 1-.15-.95v-.27a5.52 5.52 0 0 1-.22-.53l-.05-.13a1.85 1.85 0 0 1-.09-.9z"/>
  <path d="M331.27 432a.51.51 0 0 1-.5.13h-.24a.51.51 0 0 1-.35-.8.86.86 0 0 0 .14-.83 1.63 1.63 0 0 0-1.21-1.19 1.18 1.18 0 0 0-.62 0 .51.51 0 0 1-.48-.1 1.1 1.1 0 0 0-.32-.2 1.24 1.24 0 0 0-1.51.54.5.5 0 0 1-.2.17l-.19.18a.51.51 0 0 1-.15.1.51.51 0 0 1-.72-.45 2.91 2.91 0 0 1 .82-2.14 3.44 3.44 0 0 1 4.81.36 3.63 3.63 0 0 1 .87 4.1.51.51 0 0 1-.15.13zm-2.81-3.77a2.24 2.24 0 0 1 .89 0l.29.09a2.47 2.47 0 0 0-3.05-.4 2.16 2.16 0 0 1 1.47.06 2 2 0 0 1 .4.23z"/>
  <path d="M335.64 439.66c-1.1 1.1-3 1.16-4.88.14a.51.51 0 0 1-.06-.86l.16-.14a1.19 1.19 0 0 0-1.68-1.68 1.31 1.31 0 0 0-.2.25.51.51 0 0 1-.85 0c-1.38-2-1.48-4.27-.25-5.51s3.51-1.13 5.52.26a.51.51 0 0 1 0 .86 1.3 1.3 0 0 0-.28.22 1.19 1.19 0 0 0 1.68 1.68 1.39 1.39 0 0 0 .16-.19.51.51 0 0 1 .86 0c.98 1.95.93 3.87-.18 4.97zm-3.78-.46a2.38 2.38 0 0 0 3.32-3.31 2 2 0 0 1-1.34.39 2.29 2.29 0 0 1-1.43-.68 2.11 2.11 0 0 1-.16-3c-1.43-.77-2.86-.8-3.64 0s-.75 2.22 0 3.65a2 2 0 0 1 1.48-.5 2.29 2.29 0 0 1 1.43.68 2.12 2.12 0 0 1 .34 2.77zM341.55 445.56c-1.28 1.28-3.74.83-5.6-1a6.74 6.74 0 0 1-.87-1.07.51.51 0 0 1 .66-.73 2.48 2.48 0 0 0 .51.2h.08a2 2 0 0 0 .39.13h.26a2.33 2.33 0 0 0 1.07 0 1.74 1.74 0 0 0 1.21-1.08 1.87 1.87 0 0 0-.22-1.71 3.16 3.16 0 0 0-.62-.67.51.51 0 0 1 .56-.84 6.53 6.53 0 0 1 1.56 1.16c1.84 1.87 2.29 4.33 1.01 5.61zm-4.48-1.38c1.35 1.12 3 1.43 3.76.66s.49-2.2-.45-3.49a2.84 2.84 0 0 1-.18 1 2.74 2.74 0 0 1-1.9 1.71 3.34 3.34 0 0 1-1.24.12z"/>
  <path d="M346.52 450.67a2.88 2.88 0 0 1-4.07 0l-2.21-2.21a2.89 2.89 0 0 1-.8-2.46.51.51 0 0 1 .52-.43 1.19 1.19 0 0 0 1.14-1.12.51.51 0 0 1 .07-.26 1.05 1.05 0 0 0 .09-.2.51.51 0 0 1 .37-.34 2.85 2.85 0 0 1 2.69.75l2.21 2.21a2.88 2.88 0 0 1-.01 4.06zm-6.1-4.14a1.83 1.83 0 0 0 .54 1.21l2.21 2.21a1.86 1.86 0 0 0 2.63-2.63l-2.21-2.21a1.83 1.83 0 0 0-1.48-.52 2.09 2.09 0 0 1-.64 1.35 2.15 2.15 0 0 1-1.05.58z"/>
  <path d="M351.31 455.46a2.88 2.88 0 0 1-4.07 0l-2.24-2.22a2.88 2.88 0 0 1-.83-2.23.51.51 0 0 1 .39-.46 1 1 0 0 0 .28-.11l.35-.23h.07a1.4 1.4 0 0 0 .43-.36l.05-.06.32-.31a1.2 1.2 0 0 0 .32-.67.51.51 0 0 1 .47-.43 2.88 2.88 0 0 1 2.21.83l2.21 2.21a2.88 2.88 0 0 1 .04 4.04zm-6.09-4.05a1.85 1.85 0 0 0 .53 1.12l2.21 2.21a1.86 1.86 0 0 0 2.63-2.63l-2.21-2.21a1.85 1.85 0 0 0-1.07-.52 2.15 2.15 0 0 1-.5.79l-.33.31a2.42 2.42 0 0 1-.7.58l-.38.26z"/>
  <path d="M356.1 460.25a2.88 2.88 0 0 1-4.07 0l-2.21-2.25a2.86 2.86 0 0 1-.81-2.4.51.51 0 0 1 .56-.44 1.57 1.57 0 0 0 .87-.18 1.55 1.55 0 0 0 .37-.28 1.38 1.38 0 0 0 .33-.6 1.19 1.19 0 0 0 0-.44.51.51 0 0 1 .47-.56 2.87 2.87 0 0 1 2.26.83l2.21 2.21a2.88 2.88 0 0 1 .02 4.11zm-6.1-4.05a1.84 1.84 0 0 0 .53 1.12l2.21 2.21a1.86 1.86 0 0 0 2.63-2.63l-2.21-2.21a1.85 1.85 0 0 0-1-.51 1.94 1.94 0 0 1 0 .22 2.31 2.31 0 0 1-.62 1.08 2.57 2.57 0 0 1-.62.45 2.84 2.84 0 0 1-.92.27z"/>
  <path d="M362.31 466.46a2.88 2.88 0 0 1-4.07 0l-3.63-3.63a2.85 2.85 0 0 1-.84-2.09.51.51 0 0 1 .46-.5h.18a2.46 2.46 0 0 0 1.79-1.89.51.51 0 0 1 .51-.4 2.86 2.86 0 0 1 2 .84l3.63 3.63a2.88 2.88 0 0 1-.03 4.04zm-7.48-5.3a1.83 1.83 0 0 0 .51 1l3.63 3.63a1.86 1.86 0 1 0 2.63-2.63l-3.6-3.68a1.84 1.84 0 0 0-.89-.49 3.43 3.43 0 0 1-2.29 2.16z"/>
  <path d="M368.94 473.08a2.88 2.88 0 0 1-4.07 0l-5.46-5.46a2.86 2.86 0 0 1-.52-.72.51.51 0 0 1 .57-.73 2.15 2.15 0 0 0 2.06-.62 2.18 2.18 0 0 0 .54-1.89v-.05a.51.51 0 0 1 .73-.57 2.85 2.85 0 0 1 .71.52l5.46 5.46a2.88 2.88 0 0 1-.02 4.06zm-8.5-5.87l5.15 5.15a1.86 1.86 0 0 0 2.63-2.63l-5.15-5.15a3.31 3.31 0 0 1-.79 1.63 3.06 3.06 0 0 1-1.85 1z"/>
  <path d="M376.76 480.91a2.88 2.88 0 0 1-4.07 0l-6.1-6.1a2.83 2.83 0 0 1-.65-1 .51.51 0 0 1 .11-.52.5.5 0 0 1 .52-.14 1.16 1.16 0 0 0 1.17-.27 5 5 0 0 0 .72-.86l.08-.1a1 1 0 0 0 .26-1.19.51.51 0 0 1 .61-.68 2.82 2.82 0 0 1 1.26.72l6.1 6.1a2.88 2.88 0 0 1-.01 4.04zm-9.39-6.76l6 6a1.86 1.86 0 0 0 2.63-2.63l-6.1-6.1-.06-.06a2.13 2.13 0 0 1-.6 1.18 6.16 6.16 0 0 1-.82 1 2.12 2.12 0 0 1-1.05.61z"/>
  <path d="M374.93 481.38c-.44 2 1.76 3.42 3.53 3.44a.19.19 0 0 0 .09-.36c-1.25-.8-3-1.11-2.91-3a.37.37 0 0 0-.72-.09zM380.69 486.92zM377.57 485.15a7.15 7.15 0 0 1 1.14 3.59.13.13 0 0 0 .25 0 5.57 5.57 0 0 0-1.06-3.78c-.14-.19-.47 0-.33.19zM337.9 470.24a9.14 9.14 0 0 1-.63-2.93 15.89 15.89 0 0 0 .07-2.6.26.26 0 0 0-.47-.06 4.37 4.37 0 0 0-.23 2.84 9.67 9.67 0 0 0 .9 2.9c.09.19.43.06.35-.14zM367.15 442.28a9.06 9.06 0 0 0-2.18-1.55 3.39 3.39 0 0 0-2.16-.56c-.22 0-.18.34 0 .4.67.22 1.39.17 2.07.37a5.15 5.15 0 0 1 2.16 1.45c.07.07.18 0 .11-.11zM377.27 479.85c1.88-.07 2.19 1.66 3 2.91a.19.19 0 0 0 .36-.09c0-1.78-1.46-4-3.44-3.53a.37.37 0 0 0 .09.72zM382.72 484.89zM380.77 482.11a5.57 5.57 0 0 0 3.78 1.06.13.13 0 0 0 0-.25 7.15 7.15 0 0 1-3.59-1.14c-.21-.13-.38.19-.19.33z"/>
  <path fill="#231f20" d="M479.21 340.79c8 2.35 14.78 6 23.36 6.48 4.45.23 11.86-.14 11.55-6.27a.69.69 0 0 0-1.27-.34c-4 6-13.4 4-19.45 2.86-4.73-.93-9.18-2.88-13.95-3.58a.45.45 0 0 0-.24.86z"/>
  <path d="M422.29 405.46a7.25 7.25 0 0 0-1.17-1.22c-.42-.35-.9-.59-1.19-.51-.08 0-.15.07-.25.12a2.19 2.19 0 0 0-.26.31 1.93 1.93 0 0 0-.32.77 3.19 3.19 0 0 0 .23 1.8 3.44 3.44 0 0 1-.73-1.83 2.56 2.56 0 0 1 .15-1.07 3 3 0 0 1 .24-.51 1.64 1.64 0 0 1 .48-.48 1.9 1.9 0 0 1 1.31-.23 4.45 4.45 0 0 1 1.1.33 8.89 8.89 0 0 1 1.84 1.11z"/>
  <path d="M489.75 460.58c-36.84-24.77-67.16-54.81-67.46-55.12l1.41-1.42c.3.3 30.48 30.22 67.16 54.87z"/>
  <path d="M484.62 451.65c-4.55-2.87-9-5.87-13.37-9.06s-8.59-6.5-12.78-9.89-8.24-6.93-12.21-10.57-7.87-7.35-11.57-11.27c2 1.8 4 3.61 6 5.38s4 3.56 6.07 5.31c4.07 3.51 8.15 7 12.34 10.38 2.06 1.73 4.16 3.4 6.25 5.09l6.35 5 3.19 2.46 3.23 2.41c2.14 1.61 4.35 3.11 6.5 4.76zM426.27 400.44a4.24 4.24 0 0 1-.63-1.18 3 3 0 0 1-.16-1.41 2.12 2.12 0 0 1 .7-1.28 3.07 3.07 0 0 1 1.07-.62 3.67 3.67 0 0 1 2.24-.18 2.07 2.07 0 0 1 1.42 1.53 1.82 1.82 0 0 0-1.51-1 3 3 0 0 0-1.71.58c-.52.34-.8.78-.71 1.11a2.08 2.08 0 0 0 .75 1.1z"/>
  <path d="M493.75 455.58c-36.84-24.77-67.16-54.81-67.46-55.12l1.41-1.42c.3.3 30.48 30.22 67.16 54.87z"/>
  <path d="M421.18 408.1a6.05 6.05 0 0 1-4.29-1.48c-2.63-2.52-.86-7.48-.34-8.75l-1-6.07 6.74 2c1.18-.61 4.63-2 7.58.29 3.65 2.88.4 8.92.26 9.17l-1.75-1s2.54-4.83.26-6.64c-2.44-1.93-5.65 0-5.68.06l-.38.24-4.58-1.29.6 3.5-.12.28c-.61 1.36-1.84 5.22-.22 6.77s5.27.73 6.52.27l.7 1.87a13.62 13.62 0 0 1-4.3.78z"/>
  <path d="M424.56 398.73a3.1 3.1 0 0 1-.41 1.64 1.75 1.75 0 0 1-1.64.78 2.42 2.42 0 0 1-1.53-.89 3 3 0 0 1-.75-1.53 2.26 2.26 0 0 1 2.27-2.53 2 2 0 0 1 1.65.89 3 3 0 0 1 .41 1.64zm-.1 0a1.37 1.37 0 0 0-.77-1.18 2.47 2.47 0 0 0-1.18-.29 1.8 1.8 0 0 0-1.73 1.47 1.37 1.37 0 0 0 .43 1.3 1.57 1.57 0 0 0 1.3.28 3.79 3.79 0 0 0 1.19-.39 1.36 1.36 0 0 0 .76-1.19zM490.65 458.88a8.89 8.89 0 0 1 1.2 1.78 4.45 4.45 0 0 1 .39 1.08 1.9 1.9 0 0 1-.16 1.32 1.64 1.64 0 0 1-.45.5 3 3 0 0 1-.5.26 2.56 2.56 0 0 1-1.06.2 3.44 3.44 0 0 1-1.87-.63 3.19 3.19 0 0 0 1.81.13 1.93 1.93 0 0 0 .75-.36 2.19 2.19 0 0 0 .29-.27c0-.09.11-.17.11-.25.06-.29-.21-.75-.58-1.16a7.25 7.25 0 0 0-1.28-1.1zM494.37 453.67a2.08 2.08 0 0 0 1.14.69c.33.07.76-.24 1.07-.77a3 3 0 0 0 .49-1.74 1.82 1.82 0 0 0-1.12-1.46 2.07 2.07 0 0 1 1.61 1.34 3.67 3.67 0 0 1-.06 2.25 3.07 3.07 0 0 1-.56 1.1 2.12 2.12 0 0 1-1.24.76 3 3 0 0 1-1.42-.09 4.24 4.24 0 0 1-1.21-.57z"/>
  <path d="M490.87 466.09a4.93 4.93 0 0 1-3.48-1.21c-2.94-2.76-1.22-8.32-1.14-8.56l1.91.6c-.4 1.27-1.07 4.92.6 6.5s5.52.06 6.75-.57l.27-.14 3.52.42-1.56-4.42.22-.39c.07-.13 1.8-3.36-.23-5.68s-6.57.57-6.62.6l-1.05-1.7c.25-.15 6.1-3.71 9.17-.22 2.47 2.82 1.23 6.34.68 7.55l2.33 6.63-6.12-.73a13.59 13.59 0 0 1-5.25 1.32z"/>
  <path d="M494.93 457.91a1.36 1.36 0 0 0-1.15.82 3.79 3.79 0 0 0-.33 1.21 1.57 1.57 0 0 0 .35 1.28 1.37 1.37 0 0 0 1.32.36 1.8 1.8 0 0 0 1.38-1.8 2.47 2.47 0 0 0-.35-1.17 1.37 1.37 0 0 0-1.22-.7zm0-.1a3 3 0 0 1 1.67.32 2 2 0 0 1 1 1.6 2.26 2.26 0 0 1-2.41 2.4 3 3 0 0 1-1.57-.66 2.42 2.42 0 0 1-1-1.48 1.75 1.75 0 0 1 .69-1.68 3.1 3.1 0 0 1 1.61-.5zM440.67 561c-6.65 4-13.41 7.81-18.14 14.18a35.54 35.54 0 0 0-5.06 9.62c-1.33 3.87-1.74 8-2.79 11.9a31.78 31.78 0 0 1-13.94 18.86c-7.58 4.65-18.65 5.4-27.31 5.83-.35 0 1.53 1.81 1.92 1.87 14.28 2.43 31.55-6.67 38.16-19.56 3.81-7.44 3.39-16.14 7.41-23.52 4.65-8.54 12.51-13 20.54-17.83.85-.52.07-1.87-.79-1.34zM466.51 519.36c1.61 16.4-9.87 31-22.76 39.64-.83.56 0 1.91.79 1.34 13.89-9.6 24.95-23.27 22.52-41.06 0-.31-.58-.24-.55.07z"/>
  <path d="M459.74 550.57c-6.72 7.69-15.22 12.2-23.6 17.74-7.11 4.7-12.58 11.1-15.25 19.28-2.89 8.65-3.09 17.88-8.89 25.41-4.44 5.81-11.88 8.43-18.58 10.71-7.08 2.41-14.5 4.35-22 3.85-.41 0-.41.52-.09.66 5.34 2.22 13.14-.47 18.32-2 6.18-1.82 13-3.93 18.4-7.57 6.75-4.55 9.95-12.65 11.76-20.25 1.17-5 1.74-10 4-14.63A33.71 33.71 0 0 1 433.5 572c4.7-3.64 10.11-6.2 15-9.56a69.58 69.58 0 0 0 12.37-10.7c.69-.77-.46-1.92-1.14-1.14zM470.69 529.89a20.6 20.6 0 0 1-.51 4.8 26 26 0 0 1-1.48 4.62 29 29 0 0 1-2.28 4.27 28.28 28.28 0 0 1-2.93 3.83c.68-1.46 1.42-2.87 2.13-4.28s1.39-2.83 2-4.28 1.18-2.91 1.68-4.4.94-3.02 1.39-4.56zM468.69 514.15a41.41 41.41 0 0 1 1 14.54c-.14 1.09 1.76 1.16 1.75 0a57.78 57.78 0 0 0-2.22-14.69.28.28 0 0 0-.54.15zM441.33 560.68c2.29-5.56 2.92-13.92 1.3-19.7a.15.15 0 0 0-.3 0c-.15 3.29.24 6.56 0 9.86s-1.09 6.46-1.5 9.72c0 .34.44.33.55.07z"/>
  <path d="M443.87 559.24c1.18-5 2.13-11.09.6-16.15a.14.14 0 0 0-.27 0c-.18 5.49.36 10.5-.78 16-.06.3.39.42.46.13zM442.32 542.74c-1.66-.93-2.59.3-3.72 1.47-.44.46-1 1.33-1.68 1.48q-3.8-1.47-2-2.65l.68-.55c.52-.45 1.28-1 1.43-1.74.27-1.25-.5-2-1.68-2.25-.4-.09-.86 0-1.24 0q-1.14.27-1.57-1.23-2.05-1.12-.4-2.74a6 6 0 0 1 5.65-2.71c.49.05.49-.64.11-.79-3-1.2-6.15 1-7.36 3.8a3.86 3.86 0 0 0-.08 3.52 2.63 2.63 0 0 0 1.2 1.08c.47.22 1.69-.07 2 .1 3.78 2-3.15 4.65 0 7 3.33 2.52 5.64-3.15 8.44-3.1a.38.38 0 0 0 .19-.7z"/>
  <path d="M443.88 543.91c1.78-.93 8.49.54 7.26-3.63-.26-.89-1.59-1.75-.46-2.68.53-.43 1.84-.26 2.5-.58a4 4 0 0 0 2-2.75c1-3.39-1.56-7.52-4.1-9.63-3.16-2.62-6.34 1.14-8 3.78a.33.33 0 0 0 .52.4c1.13-1.17 2.58-3.37 4.14-3.91 2.56-.9 5.12 2.7 6.14 4.48 1.35 2.36 1.34 5.82-1.7 6.82-.83.27-1.84.07-2.59.6-1.49 1-.4 1.65-.27 2.88q.79.8-1 1.43a1.65 1.65 0 0 1-2.1 1.15c-.4.08-.8 0-1.2.14a2.58 2.58 0 0 0-1.58 1.17c-.16.22.14.45.34.34zM435.79 531.48c2.13.17 2.77-3.54 1-4.46a1.69 1.69 0 0 0-1.64 0c-.23.08-1.06.83-1.37.83l-2.54-1.33.22-1.43a8.12 8.12 0 0 1 3.37-4.68c1.15-.73 2.42-.77 3.61-1.29 3-1.34.35-5.87-1.41-7.23-.94-.73-2.55-.82-1.56-2.24.56-.8 1.54-1.21 2-2.11.68-1.26.68-2.33-.47-3.14-.25-.18-.51.12-.47.36.6 3.81-2.69 2.83-3.16 5.38-.17.91.25 1.34.94 1.86 1.61 1.22 6.33 4 2.92 6.1-1.24.78-2.53.82-3.75 1.87-2 1.73-3.61 4.73-3.13 7.45.16.89.42 1.6 1.38 1.85.76.2 1-.24 1.64-.36a2.37 2.37 0 0 0 .74-.47q4.53.06 1.69 2.43a.29.29 0 0 0 0 .58z"/>
  <path d="M437.68 506.3a2.5 2.5 0 0 0 .68 3.54c.82.62 1.86.54 2.71 1 3.55 2 .76 2.74.9 4.67s1.93 1.61 3.4 1.58c1.76 0 4.64-.39 2.71 3.57-.3.61-1.16 1.17-1.63 1.64a37 37 0 0 0-3.11 3.4c-.43.56.46 1.16.94.72 2-1.86 8.72-8.22 3.54-10.39-1.26-.53-3.81.3-3.86-1.71 0-.93 1-1.32.68-2.57-.68-2.43-7-2.87-6.27-5.17a.38.38 0 0 0-.69-.29z"/>
  <path d="M442.17 521.6a45.54 45.54 0 0 1 .51 6.8c0 1.78-.2 3.64.34 5.34a.41.41 0 0 0 .74.1c1.81-3.6.22-8.82-.81-12.46-.14-.51-.86-.29-.78.21zM422.21 576.33c.19-2.38.67-5.64-.38-7.88a.34.34 0 0 0-.61.08 13.6 13.6 0 0 0 .1 3.64c.1 1.38.12 2.77.09 4.16 0 .52.76.51.81 0zM445 589c-3.83 2.26-7.9 4.65-12.23 5.78-4.64 1.21-9.25.48-13.92 1.07-.24 0-.35.4-.06.46a33.06 33.06 0 0 0 13.78-.22c4.88-1.09 8.71-3.74 12.73-6.58.3-.21 0-.7-.29-.5z"/>
  <path d="M445.61 586c-3.83 2.26-7.9 4.65-12.23 5.78-4.64 1.21-9.25.48-13.92 1.07-.24 0-.35.4-.06.46a33.06 33.06 0 0 0 13.78-.22c4.88-1.09 8.71-3.74 12.73-6.58.3-.21 0-.7-.29-.5zM420.55 558a10.86 10.86 0 0 1-2.24 2.89 12.57 12.57 0 0 0-1.9 1.57c-1 1.26-.5 2.92-.42 4.37.06 1.2-.17 2.35.88 3.14 1.28 1 3.75.89 5.24.79a.44.44 0 0 0 .43-.43c-.07-.88-.15-1.75-.27-2.63 0-.14-.25-.21-.27 0-.21 1.39-.08 2.18-1.65 2.26a2.57 2.57 0 0 1-2.51-1 1.22 1.22 0 0 1-.88-1.65 7.11 7.11 0 0 1 .13-2.25c.52-2.59 3.43-3.95 4.55-6.41.33-.72-.68-1.35-1.08-.63z"/>
  <path d="M420.93 558.07c-.82 1.59-1.52 3.73.39 4.82 1.28.73 3.15.67 3 2.72a1.8 1.8 0 0 1-2.78 1.34c-1.16-.78-.59-2-.13-3a.35.35 0 0 0-.39-.51c-1.78.28-2.21 2.65-1.26 4a3.19 3.19 0 0 0 4.51.63 3.67 3.67 0 0 0 .77-4.28 3 3 0 0 0-1.42-1.34c-.93-.44-2.05-.22-2.44-1.57a4.61 4.61 0 0 1 .39-2.56.32.32 0 0 0-.58-.25zM367.86 619.06c2.13.1 4.88 0 5.56 2.49a4.68 4.68 0 0 1-2.34 5c-2.82 1.83-6.47 1.67-9.67 2.26l.8.8c1-3.29 7.26-7.18 5.46-11a.27.27 0 0 0-.46 0c-.39.9-.54 1.89-1 2.77a16.74 16.74 0 0 1-2.51 3.34 12.84 12.84 0 0 0-2.78 4.59.66.66 0 0 0 .8.8c4.23-.81 11-.69 12.71-5.74a5.15 5.15 0 0 0-.68-4.72c-1.52-2-3.77-1.43-5.92-1.21a.32.32 0 0 0 0 .64z"/>
  <path d="M368.29 618.53c-1.67.6-2.44 3.08-1.73 4.62.59 1.28 2.52 2.54 3.74 1.29.33-.33.23-1.08-.3-1.15-.81-.12-1.71-.24-1.91-1.19-.24-1.16.59-2.13.65-3.22a.35.35 0 0 0-.44-.33zM442.94 587.62c1.36-1.42 2.86-3.43 2-5.52-.62-1.53-2.34-2.54-2-4.53.55-3.07 9.21-1.89 8.55.26a.68.68 0 0 0 .65.85 2.74 2.74 0 0 0 2.74-2.11c.25-.71 0-1.52.27-2.2q-.12-1.17 1.49-1.35 1.75-2.18 2.15.44a3.94 3.94 0 0 1 .18 3.72.7.7 0 0 0 .48.85 4 4 0 0 0 3.58-.61c1.82-1.29 2.16-5 5.74-2.17 1.21 1 1.7 2.46 3.14 3.34a6.8 6.8 0 0 0 4.33 1c.27 0 .48-.45.16-.59a13 13 0 0 0-5.8-1 .86.86 0 0 0-.82 1.08l.2 1q1.23 2.92-1.43 2.7c-1.95.39-1.28.33-2.32-.76a4.84 4.84 0 0 0-1.88-1.29.78.78 0 0 0-1 .75c.26 2.37.44 5-.73 7.16-1.55 2.89-5.13 3.89-7.39 1.24-.31-.36-.82 0-.85.35-.41 4.27-9.74 2.9-8-1.6.12-.3-.36-.43-.48-.13-2.23 5.48 8.78 7.16 9.5 1.86l-.91.12a5 5 0 0 0 7.08 1.2c3.33-2.26 3.63-6.56 3.38-10.2l-1.16.67c2.23.94 2.94 4.49 6 3.22 2.73-1.15 2.35-4.42 1.71-6.71l-.59 1a18.09 18.09 0 0 1 5.42 0l.08-.62a9.38 9.38 0 0 1-6.18-4 6.54 6.54 0 0 0-2.33-2.41c-4.36-2.06-3.85 5.23-8 4.14l.48.85c.86-2.65.63-6.39-2.75-7-5-.86-2.32 6.58-5.42 6.75l.65.85c1.11-4.34-6.76-4.31-9.13-3a4.24 4.24 0 0 0-2.26 3.75 4.14 4.14 0 0 0 .72 1.88 2.08 2.08 0 0 0 .74.62l.71 3.65a7 7 0 0 1-1.38 2c-.31.42.37.93.72.56z"/>
  <path d="M460.83 577.1a23.22 23.22 0 0 0-5.7 2.68c-1.37.9-3.39 2.18-3.74 3.88a.42.42 0 0 0 .51.51c1.51-.51 2.62-2.11 3.84-3.12a22.2 22.2 0 0 1 5.4-3.22c.42-.18.12-.87-.31-.74zM467 519.32a34.82 34.82 0 0 1-4.93-2.13 9.81 9.81 0 0 1-2.14-1.66c-2-2.11.7-4.68 3.25-4.52a.63.63 0 0 0 .62-.62c0-2.22-.25-4.79-2.54-5.79s-9.46 1.56-7.9-3.44c1.06-3.4 5.48-1.75 4.94-5.75a8.09 8.09 0 0 0-4.79-6.13l.28 1.08a16.83 16.83 0 0 0 3.21-11.68l-1.2.5c2.75 2.68 6.23 5.84 5.6 10.08-.06.39.17.93.66.87a13.72 13.72 0 0 1 3.34-.1c2 .25 5.55 2 3.47 4.87a.46.46 0 0 0 .27.67c1.44.39 3.5 1.08 4.08 2.66s-.14 2.91-.42 4.34a3.47 3.47 0 0 0 .56 2.94c1.43 2.07 3.42 3.33 2.47 6.28a4 4 0 0 1-6.92 1.09c-.79-1.1-2.6-.09-1.85 1.08 3.49 5.41 11.34 1.78 10.5-4.31a6.94 6.94 0 0 0-1.49-3.46 7.54 7.54 0 0 0-1.07-1.09 4.24 4.24 0 0 1-.34-4 10.33 10.33 0 0 0 .18-1.82c-.28-2.73-3.07-4.36-5.54-4.64l.39.69A4.43 4.43 0 0 0 469 490c-1.86-1.86-4.71-1.66-7.08-1.26l.87.66c.31-4.68-2.7-8.26-6-11.26-.4-.37-1.29-.15-1.2.5a12.85 12.85 0 0 1-3.08 10.72.8.8 0 0 0 .16 1.24c1.72.86 3.84 2.47 4.07 4.56.25 2.32-1.27 1.86-2.61 2.82a5.34 5.34 0 0 0-2.14 5.18 3 3 0 0 0 2.9 2.45 20.68 20.68 0 0 0 3.44-.21c3.19-.14 4.33 2.07 4.2 4.94l.62-.62c-2.64-.15-6.8.71-5.69 4.37s5.94 5.41 9.22 6.23a.54.54 0 0 0 .29-1z"/>
  <path d="M464.69 501.44a31.15 31.15 0 0 1 .85 4.76 16.71 16.71 0 0 0 .46 3.8.35.35 0 0 0 .67 0c.85-2.61-.39-6.29-1.19-8.79a.4.4 0 0 0-.78.21zM470.23 529.22c3.52-.86 8.69-3 10-6.75a.31.31 0 0 0-.45-.35c-1.59.95-2.77 2.49-4.29 3.56a20.12 20.12 0 0 1-5.49 2.72.42.42 0 0 0 .22.8z"/>
  <path d="M478.22 523.53c0-2.12-.24-4.32.42-6.37a7 7 0 0 1 1.45-2.56c.85-.91 5.83-2.82 5.13.85l1.37-.18-.41 1.33a.77.77 0 0 0 .73 1c4.07.47 3.81-4.34 2.89-6.92l-1 .59a2.52 2.52 0 0 0 4.15-2.64 3.53 3.53 0 0 0-1.15-1.58c-.65-.5-1.85-.41-2.38-.87-2.08-1.81 3.66-2.16 4.45-2.24a40.14 40.14 0 0 1 4.65-.05 5.47 5.47 0 0 0 2.38-.3c1-.42 1.55-1.51 2.61-1.61s.92.32 1.19 1.44q.34 1.37.56 2.76a26.56 26.56 0 0 1 .41 5.64c-.16 2.77-1.11 4.82-4.06 5.48a13.51 13.51 0 0 0-2.77.56c-.95.41-.83.75-1.84.13-1.38-.84-.21-.41-.84-1.19-.4-.5-.33-.72-.94-1.05a.63.63 0 0 0-.91.7 9.45 9.45 0 0 1-2.51 8.9c-2.85 2.93-10.75 4.52-10.69-1.72a.65.65 0 0 0-1.31 0c-.07 5.54 6.27 6.82 10.37 4.59 4.41-2.4 6.21-7.34 5.32-12.1l-1 .6c1.18.94.13 3.09 2.19 3.41a2.36 2.36 0 0 0 1-.17c1.63-.47 1.83-1 3.93-1.3a6 6 0 0 0 2.8-.87c5.06-3.49 2.39-12.85.85-17.45a.71.71 0 0 0-.67-.51c-2.46.11-3.45 2.5-6.08 2.66-3.1.2-6 0-9 .81-1.12.3-2.65.63-2.59 2.11A2.29 2.29 0 0 0 488 507l.3.18a4.4 4.4 0 0 0 1.09.29q1.77.12.22 2.87c-.42-.39-1.22 0-1 .59.45 1.3 2 5.52-1.72 5.08l.73 1c.52-1.85-1-4.3-2.51-2.05a.76.76 0 0 0 0 .76l.16.32a.75.75 0 0 0 1.37-.18c.56-3.07-2.78-4.88-5.46-3.76-4.47 1.86-4.67 7.54-4.08 11.59.09.63 1.09.46 1.09-.15z"/>
  <path d="M479.2 525.4c-1.41 1-2.86 2-4.37 2.9a29.81 29.81 0 0 0-4 2.45c-.19.16 0 .45.23.39 3.1-.76 6.08-3.28 8.56-5.2.31-.24-.1-.78-.42-.55zM494.15 511.42zM486.08 521.37a34 34 0 0 1 4.92-5.13c1.75-1.49 4.08-2.56 5.63-4.24a.29.29 0 0 0-.28-.49c-2.23.34-4.33 2.16-6 3.58a30.2 30.2 0 0 0-5 5.66c-.32.46.44 1.06.79.61zM468.56 539.27c8.31.29 16.93.74 25.2-.31a.26.26 0 0 0 0-.53c-8.36-.42-16.83.18-25.2.23a.31.31 0 0 0 0 .61zM469.84 537.12c7.46.2 15.22.9 22.64 0a.21.21 0 0 0 0-.42c-7.42-.91-15.18-.21-22.64 0a.22.22 0 0 0 0 .44z"/>
  <path d="M498.12 536.69l-1.23 1.67-1.23-.1c-.52-.12-2.19-.62-2.31-1.23s2.9-1.79 3.42-2c3-1.07 5.3-.37 7.53 1.78a.32.32 0 0 0 .53-.31c-1.31-6.23-14.19-1.89-12.7 1 1.14 2.23 5.63 3.06 7.46 1.38 1.55-1.42.25-4.51-1.7-3.07a.46.46 0 0 0 .23.85z"/>
  <path d="M498.36 539.28c1.63-1.06 4.31-4.2 6.25-2.36a.07.07 0 0 0 .1-.1c-2.33-2.36-4.65.69-6.59 2.05-.24.17 0 .58.24.41zM460.75 551.37c6.06-.88 11.77-.84 17.56 1.2a.17.17 0 0 0 .16-.28c-4.65-4-12.44-2.88-18-1.78-.57.11-.32.94.24.86zM464.06 548.11c4.45-.67 8.32.45 12.62 1.34a.29.29 0 0 0 .22-.53c-3.66-2.76-8.82-2.67-13.06-1.58-.51.13-.29.85.21.78z"/>
  <path d="M475.56 548c.61-2.55 4-2.14 6-2 2.43.19 5 1 4.13 4.09-.36 1.25-.94 2.75.64 3.32.37.13.61-.31.47-.61-.81-1.69.68-3.21.06-5a5.26 5.26 0 0 0-3.67-3.13c-2.89-.8-8.11-.65-8.47 3.2 0 .49.73.58.85.11z"/>
  <path d="M479.83 551.79a36.66 36.66 0 0 1 8.69 2.75c2.18 1 4.15 2.7 6.47 3.36.22.06.46-.21.31-.41-3-4.11-10.56-5.67-15.29-6.34-.41-.06-.61.56-.18.64z"/>
  <path d="M490.75 553.43c2.17-1 2.79-3 2.44-5.24l-.57 1c3.06-.83 3.74 1.62 4.71 3.83.3.68.19 1.14.81 1.67.86.72.9.06 1.76.49s1.44.06 1 1.54c-.1.35-.49.67-.62 1a2.52 2.52 0 0 0 1.23 3.15c1.14.79 2.51 1.07 3.61 2a5.75 5.75 0 0 1 2.06 6.42l1-.25a9.67 9.67 0 0 0-6.76-2.25.64.64 0 0 0-.45 1.08l-1.8 2.62a5.42 5.42 0 0 1-2.32-.59 8.39 8.39 0 0 1-2.72-1.9.73.73 0 0 0-.85-.11c-2.05.94-4.66 1.16-4.15-2.13a20.34 20.34 0 0 0 .73-2.72 2.35 2.35 0 0 0-2.14-2.6c-4.74-.45-5.34 7-4.33 10l.43-.75c-3.89 1.5-3.25-2.37-4.91-4.09-.78-.81-2.52-.66-3.48-.61-2.13.13-5.43 1.39-7.23-.46-2.55-2.6.37-5.56 2.31-6.79 1-.66 2.2-1.11 3.27-1.72a.4.4 0 0 0-.31-.74c-2.92.74-6.18 2.55-6.89 5.75a4.11 4.11 0 0 0 2.77 5.12 9 9 0 0 0 3.69 0c1.64-.22 4.51-1.23 5.64.87.14.26.09 1.18.19 1.46a4.11 4.11 0 0 0 5.27 2.4.62.62 0 0 0 .43-.75 8 8 0 0 1-.28-4.83 6.2 6.2 0 0 1 1.46-2.7q3.25-.38 2.6 1.25c.14 1.25-1.08 2.5-.78 3.9.56 2.6 3 2.23 5 2 1.2-.13.5-.24 1.57.25.72.33 1.32 1 2.07 1.29a6.79 6.79 0 0 0 4 .59c2.29-.52 3.61-3.13 1.62-4.83l-.45 1.08a8.37 8.37 0 0 1 6 1.8c.3.23.87.22 1-.25.44-2.69.1-5.51-2-7.46-1.14-1.07-2.73-1.14-3.85-2.09-2.12-1.79.4-3.25.24-5.08a.61.61 0 0 0-.43-.56c-.89-.32-.72 0-1.59-.28q-1.18.43-1.6-.92a1.64 1.64 0 0 1-.84-1.81 5.62 5.62 0 0 0-.77-2.36 4.65 4.65 0 0 0-5.29-1.41.83.83 0 0 0-.49 1.2q1.18 2.77-1.29 4c-.4.22 0 .78.35.6z"/>
  <path d="M476.48 551.29a3.4 3.4 0 0 0-4.23 2.63c-.18 1.37 1.33 4.54 3.11 3.49a.38.38 0 0 0 .13-.51c-.61-1-1.78-1.08-1.94-2.42a2.35 2.35 0 0 1 2.73-2.48c.45.06.65-.57.19-.7zM330.16 176.11c-25-3.31-37.38-27.63-52.8-44.44A92.84 92.84 0 0 0 228.68 104c-37.32-8.1-75.44 8.24-96.23 40.11-23.28 35.71-16.3 80.94 5.49 115.54 10.06 16 23.53 32.35 42 38.68 15.07 5.17 33.69 4.08 47.62-3.86 16.43-9.37 20.22-28.89 17.76-46.48-1.17-8.36-4.26-15.59-11.22-20.69-7.71-5.64-17.5-8.18-26.9-8.87-1.56-.11-1.94 2.48-.37 2.76 8 1.47 16.38 3.18 23.41 7.52 7.7 4.76 11 12.06 12.05 20.79 2 16.07-1.29 33.68-16.32 42.23-13.95 7.93-33 8.61-47.74 2.48-17.64-7.33-30.34-24.15-39.87-40.05-20.29-33.9-25.17-77.37-1.68-111a88.91 88.91 0 0 1 94.9-35.44c21.24 5.43 37.8 17.95 51.33 34.86 12.39 15.5 25.73 34 47.3 35.57 1.35.1 1.28-1.89 0-2.06z"/>
</svg>