<svg xmlns="http://www.w3.org/2000/svg" width="591.3" height="591.3" viewBox="0 0 591.3 591.3"><defs><clipPath id="a"><path d="M0 0h591.3v591.3H0Z"/></clipPath></defs><g clip-path="url(#a)"><path fill="#fff" d="M295.7 4.4C456.581 4.4 587 134.819 587 295.7S456.581 587 295.7 587 4.4 456.581 4.4 295.7 134.819 4.4 295.7 4.4"/><path fill="none" stroke="#000" stroke-miterlimit="10" stroke-width=".2" d="M295.7 4.4C456.581 4.4 587 134.819 587 295.7S456.581 587 295.7 587 4.4 456.581 4.4 295.7 134.819 4.4 295.7 4.4Z"/><path d="M295.7 11.8c156.794 0 283.9 127.106 283.9 283.9S452.494 579.6 295.7 579.6 11.8 452.494 11.8 295.7 138.906 11.8 295.7 11.8"/><path fill="none" stroke="#000" stroke-miterlimit="10" stroke-width=".2" d="M295.7 11.8c156.794 0 283.9 127.106 283.9 283.9S452.494 579.6 295.7 579.6 11.8 452.494 11.8 295.7 138.906 11.8 295.7 11.8Z"/><path fill="#fff" d="M30.7 253.8c-.4 2.5-.7 5-.7 7.1 3 .7 8.1 1.7 11.5 2.3l6 1c3.2.6 8.7 1.5 11.7 1.8.5-1.4 1.1-3.7 1.5-5.9 1.2-6.9-.1-15.1-13.2-17.4-11.5-2-15.4 3.3-16.8 11Zm32.6 4.5c-.4 2.4-1.2 6.2-1.6 8.5-.2 1.4-.6 3.7-.8 5.4-4.2-1-9.6-2.1-14.2-2.9l-6.1-1.1c-4.5-.8-10.1-1.6-14.3-2.1.3-1.4.8-3.8 1-5.4.4-2.4 1-6 1.4-8.6 2.1-12 7.5-17.6 19.8-15.4 13.3 2.3 16.3 12.7 14.8 21.5ZM70.4 227.8c-.4 1.3-1.2 4.1-1.5 5.2-3.8-1.5-10.2-3.7-14.6-5.1l-4.9-1.6c-4.4-1.4-9.9-3-13.9-4 .4-1.1 1.2-3.4 1.8-4.9 1-3.2 2.7-8.5 3.6-11.8.6.2 1.1.4 1.5.5s1 .3 1.6.4c-1.1 2-2.9 6.6-4.3 11 2.2.8 6.8 2.4 10.7 3.6l1.6.5c1.8-5.5 2.5-8.8 2.9-10.6.5.2 1.1.4 1.5.6.4.1 1 .3 1.6.4-.9 1.7-2 4.9-3.8 10.4l1.8.6c4.3 1.4 10.3 3.2 12.3 3.8 1.3-4.1 2.4-8 2.9-11.7.8.3 1.3.5 1.6.6.3 0 .8.2 1.6.4-1 3.1-2.6 7.6-3.9 11.7ZM55.3 186.7c2.3 2.8 7 8.1 9.6 11 .7-1.3 1.6-3.2 2.3-4.8.8-1.7 1.8-3.8 2.4-5.2-3-.3-10.1-.9-14.3-1.1Zm33.4-2.9c-.5 1-1.2 2.3-1.6 3.1-.3.7-.7 1.6-1.1 2.6-3.4-.6-9-1.1-13.9-1.6-.8 1.6-1.9 4.1-2.9 6-.9 1.9-1.8 3.8-2.5 5.6 3.5 3.9 7.5 7.9 10 10-.3.5-.7 1.2-.9 1.7-.3.6-.6 1.4-.8 1.9h-.2c-8.5-10.1-16.8-20-25.2-29.5l1.1-2.3c12.1 1 31.8 2.2 38 2.2v.2ZM93 146.1l3.4 2.3c4.3 2.9 8.5 5.5 10.9 7.1l-1.4 2.1c-6.8.5-21.6 2.4-33.5 4.2-.5.1-1.1.1-1.7.2v.2l7.2 4.8c5.1 3.4 11.8 7.5 15.5 9.2-.4.5-.9 1.2-1.2 1.7s-.8 1.2-1.1 1.8c-3.2-2.6-9.5-7.1-14.7-10.6l-2.1-1.4c-5.4-3.6-10.4-6.7-12.4-8l1.5-2.3c9.6-.8 24.5-3 33.2-4.4.4 0 .9-.1 1.5-.2 0-.1-6.6-4.5-6.6-4.5-5.1-3.4-11.8-7.5-15.5-9.2.5-.6.9-1.2 1.3-1.7.3-.5.8-1.2 1-1.7 3.2 2.6 9.5 7.1 14.7 10.6ZM86.7 124.4c-.6-.8-.9-1.6 0-2.6.7-.9 1.8-1.5 2.7-.8.4.3.7.7.9 1.4 1 2.7 3.2 8.9 4.1 11.5l-.9.7h-.2c-2.1-3.5-5.1-8.1-6.6-10.3ZM126.4 134.7c-2.3 2.3-5.7 4.5-7.6 5.1-1-1.1-2.4-3.2-3.3-4.7l.5-.7c3.4 1.8 6.4 1 9-1.7 2.5-2.5 3.4-6.2.2-9.4-3-2.9-6-2.3-10.4-.4-4 1.6-8.4 3.3-12.9-1-4.5-4.4-3.4-10.7 1-15.3 2.2-2.2 4.7-3.6 6.7-4.5.6 1.3 1.5 2.9 2.6 4.4l-.6.7c-2.5-1.3-5.1-1.2-7.6 1.3-2.4 2.5-2.7 5.8 0 8.4s5.5 2.2 9 .7c5.7-2.4 9.8-3.8 14.2.6s4.3 11.2-.8 16.4ZM143 75.7c-6.2 4.2-7.3 11.6-1.1 20.5 6 8.7 13.3 10.4 19.5 6.1s7.3-11.7 1.2-20.4c-6-8.7-13.4-10.5-19.6-6.2m19.6 28.4c-9.2 6.3-19.3 4.6-25.6-4.6s-4.3-19.3 4.9-25.6c9.4-6.5 19.3-4.7 25.7 4.5 6.2 9.1 4.3 19.3-4.9 25.6ZM203 80.5c-.9.4-1.6.7-2.3 1.1-.9.4-2.5 1.4-3.3 1.9-4.2-2.3-10.7-5.5-13.6-6.8-.6-.2-.9 0-1.2 0l.4.8c1.4 2.8 3.9 7.7 5.5 10.2-.6.2-1.7.7-2.4 1.1-.9.4-1.9 1-2.5 1.3-1.6-3.8-4.5-9.9-6.5-14.1l-2.4-4.9c-2-4.1-6.1-12-8.1-15.5.7-.3 1.7-.7 2.6-1.2.8-.4 1.8-.9 2.4-1.3 1.4 3.8 5.3 11.8 7.3 15.9l3.1 6.4c.6-.3 1.1-.7 1.5-1.6 1.2-2.7 3.1-9.1 3.6-12.5 1.3-.6 3.2-1.7 4.1-2.2h.2c-1.8 4.3-3.8 9.8-5 13.5 4.9 2.4 11.8 5.6 16.6 7.5v.2ZM209.9 78c-.9.3-1.9.8-2.5 1.1-.8-2.7-2.8-8.1-3.9-11l-.8-2c-1.1-2.9-2.9-7-4.2-9.7.7-.2 1.8-.6 2.6-.9s1.9-.8 2.5-1.1c.9 2.9 2.4 7 3.5 9.9l.8 2c1.1 2.9 3.3 8.1 4.6 10.7-.7.2-1.8.6-2.6.9Zm-11-28c-1.5.6-3.3-.2-3.9-1.7s.2-3.2 1.7-3.8 3.3.2 3.9 1.7-.1 3.3-1.7 3.9ZM238.5 68.8c-.9.3-2 .6-2.6.8-.7-3.1-2.2-8.8-3.3-12.5l-.4-1.5c-.9-3.3-2.7-7-7-5.7-4 1.2-5.5 4.7-4.1 9.6l.9 3.3c.9 3 2.1 7.1 3.2 9.9-.7.2-1.8.4-2.7.7-.9.2-1.9.6-2.6.8-.6-2.8-2-8.3-2.9-11.3l-.6-2.1c-.9-3-2.1-6.8-3.2-10 .9-.2 1.8-.4 2.6-.7.8-.2 1.7-.5 2.4-.8.2 1.2.6 2.6 1 4h.2c.9-3.3 3.2-5.8 6.5-6.7 6.3-1.8 9.1 1.5 10.5 6.2.5 1.6 1 4 1.6 6.3l.2.6c.6 2.2 2 6.5 2.7 8.4-.6.1-1.7.4-2.5.6ZM250.6 59.1c.6 3.5 2.6 4.3 4.8 4s4.4-2.2 4.6-4.7c-.1-1.7-.6-4.7-.9-7.1-6.6 2.2-9.1 3.9-8.5 7.8m14.8 4.9c-2.7.4-4.2-.8-4.8-2.8-1.2 2.1-3.4 4.3-6.9 4.9s-7.1-.9-7.9-5.5c-.7-4.2 1.6-6.6 5.9-8.2 6.4-2.3 7-2.9 6.8-4.2v-.6c-.6-3.3-2.4-5.3-6.4-4.7-2.8.5-4.4 2.5-4.4 5.9l-1 .2c-.4-1.7-1.1-3.3-1.5-4.3 1.5-2 4.9-3.7 8.1-4.2 7.5-1.2 9.3 2.5 10.1 7.7.4 2.4 1 7.6 1.4 10.1.4 2.4 1.3 3.8 3.3 3.5.4 0 .7-.1.9-.2l.2 1.2c-1 .5-2.5 1.1-3.8 1.3ZM299.4 61.9h-2c-.7 0-1.4 0-2 .2-1-3.3-3.8-11.5-6.3-18.2h-.2c-1.8 5.2-4.7 13.9-6.1 18.5h-2c-.7 0-1.4 0-1.9.2-1.1-3.7-5.8-16.3-9-24h2.7c.9 0 2.1 0 3-.2 1.6 5.5 4.4 13.4 6.5 18.8h.1c1.6-4.6 4.7-14.5 5.7-19.1h1.9c.6 0 1.6 0 2-.2 1.7 5.7 4.5 13.5 6.6 18.8h.1c1.6-4.6 4.9-14.3 6-19.1h1.6c.6 0 1.3 0 1.7-.2h.2c-3 7.5-7.4 19.7-8.9 24.5ZM317.1 55.9c-.4 3.5 1.4 4.9 3.5 5.1 2.2.2 4.8-1 5.7-3.2.4-1.7.7-4.7 1-7.1-7 .4-9.8 1.3-10.3 5.2Zm13 8.7c-2.7-.3-3.9-1.9-3.9-4-1.7 1.7-4.5 3.3-8 2.9-3.6-.4-6.6-2.8-6.1-7.4.5-4.2 3.3-5.9 7.9-6.3 6.8-.5 7.5-.9 7.6-2.2V47c.4-3.3-.7-5.8-4.8-6.2-2.8-.3-4.9 1.3-5.8 4.5h-1c0-1.9-.1-3.6-.3-4.6 2-1.5 5.7-2.2 8.9-1.9 7.5.8 8.3 4.9 7.7 10.1-.3 2.4-1.1 7.6-1.4 10.1s.2 4 2.3 4.3h.9v1.2c-1.2.2-2.8.4-4.2.2ZM357.5 70c-1-.2-2.1-.4-2.7-.5.9-3 2.4-8.8 3.2-12.5l.4-1.5c.8-3.3 1-7.4-3.3-8.4-4-.9-7.1 1.5-8.2 6.4l-.8 3.3c-.7 3-1.6 7.3-2 10.2-.7-.2-1.7-.5-2.7-.7-.9-.2-2-.4-2.7-.5.9-2.7 2.3-8.3 3-11.2l.5-2.1c.7-3 1.5-7 2-10.3.9.3 1.7.5 2.6.7s1.8.4 2.5.5c-.4 1.2-.7 2.5-1.1 4h.2c2.4-2.3 5.6-3.4 8.9-2.6 6.4 1.5 7.2 5.7 6.1 10.5-.4 1.7-1.1 4-1.6 6.3v.6c-.7 2.2-1.6 6.6-1.9 8.6-.6-.2-1.7-.5-2.5-.7ZM412 91.8c-.9-.4-1.8-.8-2.8-1.2 2.6-5.9 6.7-16.8 9.3-24.7h-.2c-4.5 3-16 12-22.5 17.8l-1.7-.8c.5-7.6 0-20.3-.2-26.5v-1.8h-.2c-4.9 7.7-10.6 17.3-13.1 22.6-.5-.3-1.2-.7-1.8-.9-.5-.2-1.2-.5-1.9-.8 6.2-8.9 14.3-21.1 19.4-29.7l2.7 1.3c-.1 9.6.2 24.3.6 30h.2c4.4-3.1 15.5-11.7 23.8-18.4l2.7 1.3c-4.6 12.2-10.2 28-11.6 33.4-.8-.4-1.9-1-2.7-1.4ZM426.5 93.2c-2 2.9-1.1 5 .8 6.2 1.8 1.2 4.7 1.4 6.6-.2 1.1-1.4 2.8-3.8 4.2-5.8-6.3-2.9-9.3-3.4-11.5-.2Zm7.5 13.7c-2.2-1.5-2.5-3.5-1.6-5.4-2.3.7-5.5.8-8.4-1.1-3-2-4.5-5.5-1.9-9.4 2.4-3.5 5.7-3.7 9.9-1.9 6.2 2.7 7 2.7 7.8 1.6l.3-.5c1.9-2.8 2-5.5-1.4-7.7-2.3-1.6-5-1.2-7.2 1.3l-.8-.6c.9-1.5 1.5-3.1 1.9-4.1 2.5-.4 6.1.7 8.8 2.5 6.3 4.2 5 8.2 2.1 12.5-1.4 2-4.5 6.2-5.9 8.3-1.4 2-1.7 3.7 0 4.8.3.2.5.4.8.4l-.7 1c-1-.3-2.5-.9-3.7-1.7M464.5 105.4l-.3-.2c-.2-.9-.9-1.8-1.7-2.4-2.8-2.3-6.3-.8-9 2.4l-1.3 1.6c-2 2.4-5.2 6.5-6.9 8.9-.5-.5-1.4-1.2-2.1-1.8s-1.6-1.3-2.2-1.7c2-2 5.8-6.4 7.7-8.7l1.4-1.7c2-2.4 4.6-5.8 6.4-8.4.5.5 1.4 1.2 2.1 1.8s1.5 1.2 2 1.5c-.9.8-2.5 2.6-3.6 3.8h.2c3.7-1.6 6.8-1.5 9.1.4.8.7 1.4 1.3 1.8 1.9v.3c-1 .4-2.7 1.5-3.6 2.2ZM458.7 127.9c-2.9-2.7-2.3-5.4.5-8.3 2.6-2.7 7.3-7.2 11.3-11.5l-2.9-2.8 1.4-1.4 2.9 2.8c.8-.8 2.2-2.3 3.6-3.9 1.2.6 3.6 1.6 5 1.9v.4c-1.4 1.3-3.9 3.7-5.1 4.9l4.5 4.3-1.4 1.4-4.5-4.3c-3.1 3.1-7.1 7-9.9 10-2.5 2.6-3.6 4.6-1.4 6.6.8.7 1.8 1.4 2.5 1.6v.2l-.8 1c-2-.4-4.1-1.6-5.6-3ZM491.3 117.6c-1.1-1.2-1-3.1.2-4.2s3.1-1 4.2.2 1 3.1-.2 4.2-3.1 1.1-4.2-.1ZM469.1 138c-.6-.7-1.4-1.5-2-2 2.2-1.7 6.5-5.5 8.8-7.6l1.6-1.5c2.3-2.1 5.5-5.2 7.5-7.4.5.6 1.2 1.4 1.8 2.1s1.4 1.5 2 2c-2.4 1.9-5.7 4.8-8 6.9l-1.6 1.5c-2.3 2.1-6.3 6-8.3 8.2-.5-.6-1.2-1.4-1.8-2.1ZM483.9 144.4c-2.8 2.2-2.6 4.4-1.2 6.1s4 2.8 6.3 1.9c1.5-.9 3.9-2.8 5.8-4.2-5.1-4.7-7.8-6.2-10.9-3.7Zm2.8 15.3c-1.7-2.1-1.4-4.1.2-5.6-2.4 0-5.5-.9-7.6-3.7-2.2-2.8-2.6-6.7 1.1-9.5 3.3-2.6 6.5-1.8 10 1.3 5.1 4.5 5.9 4.7 6.9 3.9l.5-.4c2.6-2 3.6-4.6 1.1-7.8-1.7-2.2-4.3-2.7-7.3-1l-.6-.8c1.3-1.2 2.4-2.5 3-3.3 2.5.4 5.6 2.5 7.6 5.1 4.6 6 2.2 9.4-1.9 12.6-1.9 1.5-6.2 4.5-8.2 6.1-1.9 1.5-2.8 3-1.5 4.6.2.3.4.5.6.7l-.9.7c-.9-.6-2.1-1.7-3-2.8ZM493.6 169.5c-.5-.8-1.2-1.7-1.6-2.3 3.5-2.1 9.3-5.6 13.2-8.1l5.1-3.3c3.9-2.5 10.9-7.3 13.9-9.5.3.6.9 1.6 1.5 2.4.5.7 1.1 1.6 1.6 2.2-3.2 1.9-10.5 6.4-14.3 8.9l-5.1 3.3c-3.9 2.5-9.4 6.3-12.8 8.7-.3-.6-.9-1.6-1.4-2.3ZM536.5 187.7c-3.6 0-10.7 0-14.6.2.5 1.3 1.4 3.3 2.1 4.8.8 1.7 1.7 3.8 2.4 5.2 2.1-2.1 7.2-7.1 10.1-10.1ZM517 215c-.4-1.1-1-2.4-1.4-3.2-.3-.7-.8-1.6-1.3-2.6 2.7-2.2 6.7-6.1 10.2-9.5-.7-1.7-1.8-4.1-2.7-6.1-.9-1.9-1.7-3.8-2.6-5.6-5.2.2-10.8.6-14 1.1-.2-.5-.5-1.3-.7-1.8-.3-.6-.7-1.4-1-1.9v-.2c13.3.2 26.2.3 38.9 0l1.1 2.3c-8.6 8.5-22.3 22.8-26.4 27.5h-.2c0-.1 0 0 0 0ZM541.5 226.5l-.2-.3c.3-.9.2-2 0-2.9-1.1-3.5-4.9-4.1-8.9-2.8l-1.9.6c-2.9 1-7.9 2.7-10.6 3.8-.2-.7-.5-1.8-.8-2.7s-.7-1.9-1-2.6c2.8-.6 8.3-2.3 11.2-3.2l2-.7c2.9-1 7-2.4 9.9-3.6.2.7.5 1.8.8 2.7s.6 1.8.9 2.3c-1.2.2-3.5.8-5.1 1.3v.2c4.1.6 6.7 2.3 7.6 5.1.3 1 .5 1.9.5 2.6l-.3.2c-.9-.1-3-.1-4.2 0ZM524.7 243.2c-.9-3.8 1-5.8 4.9-6.7 3.6-.9 10-2.1 15.7-3.5l-1-3.9 1.9-.5 1 3.9c1.1-.3 3.1-.8 5.1-1.4.7 1.1 2.1 3.3 3.2 4.3v.4c-2.1.3-5.5.9-7.2 1.3l1.5 6-1.9.5-1.5-6.1c-4.3.9-9.7 2.1-13.8 3.1-3.5.9-5.5 1.9-4.8 4.8.3 1.1.8 2.1 1.2 2.7v.2l-1.3.4c-1.5-1.4-2.6-3.6-3.1-5.6ZM527.7 258.9c-.4-2.5 0-5.4.4-6.8 1.2 0 3.1 0 4.8.2v.8c-2.5 1.1-3.5 3.6-3.1 6.1.4 2.6 2.1 4.7 5.1 4.2 2.8-.5 3.5-2.3 4.1-6.1.5-3.2 1.5-6.1 5.8-6.8 5.3-.8 7.9 3.6 8.5 7.4.4 2.4.3 5-.2 6.5-1.1-.2-3.1-.5-4.6-.5v-.8c2-.9 3.4-2.2 2.9-5.1-.3-2.2-1.8-4.1-4.5-3.7-2.5.4-3.2 2.3-3.7 5.4-.7 4.4-2 7.1-5.7 7.7-5.6.9-9-3.4-9.9-8.6Z"/><path fill="#ed1c24" d="m295.7 64.2-163 67.5-67.5 163 67.5 162.9 163 67.6 162.9-67.6 67.6-162.9-67.6-163Z"/><path fill="none" stroke="#000" stroke-miterlimit="10" stroke-width="1.1" d="m295.7 64.2-163 67.5-67.5 163 67.5 162.9 163 67.6 162.9-67.6 67.6-162.9-67.6-163z"/><path fill="#231f20" d="m403.3 465.1 1.8-3.6-203.2-99.1c-.3-.1-1.3 0-1.7.8s0 1.7.3 1.9l200.9 103.7 1.8-3.6Z"/><path fill="#231f20" d="M353.2 439.8s3.6-.7 6.9-7.2c3-5.9 1.2-15-5.6-18.4s-15.4-3-18.8-6.8c-1.6-1.7-2.1-4.9-1.2-6.5.3-.6 0-1.1-.4-1.3s-.9-.1-1.1.4c-3.1 6.1 1.2 11.4 6.4 14s9.5 3.1 12.4 4.6 7 6.9 4.5 11.7-8.1 6.8-8.1 6.8l5.1 2.5ZM353.1 440s1.6 3.3-1.7 9.8c-3 5.9-11.3 9.9-18.1 6.5s-11.6-10.5-16.6-11c-2.3-.2-5.1 1.2-5.9 2.9-.3.6-.9.7-1.2.5s-.6-.6-.3-1.2c3.1-6.1 9.8-5.9 15-3.3s8.2 5.8 11.1 7.2 9.7 1.5 12.1-3.4.6-10.6.6-10.6ZM406.8 460.6l-5 10-6.7-3.8 4.7-9.4ZM188.1 465.1l-1.8-3.6 203.2-99.1c.3-.1 1.3 0 1.7.8s0 1.7-.3 1.9L190 468.8l-1.8-3.6Z"/><path fill="#231f20" d="M238.2 439.8s-3.6-.7-6.9-7.2c-2.9-5.9-1.2-15 5.6-18.4s15.4-3 18.8-6.8c1.6-1.7 2.1-4.9 1.2-6.5-.3-.6 0-1.1.4-1.3s.9-.1 1.1.4c3.1 6.1-1.2 11.4-6.4 14s-9.5 3.1-12.4 4.6-7 6.9-4.5 11.7 8.1 6.8 8.1 6.8l-5.1 2.5ZM238.2 440s-1.6 3.3 1.7 9.8c2.9 5.9 11.3 9.9 18.1 6.5s11.6-10.5 16.7-11c2.3-.2 5.1 1.2 5.9 2.9.3.6.9.7 1.2.5s.6-.6.3-1.2c-3.1-6.1-9.8-5.9-15-3.3s-8.2 5.8-11.1 7.2-9.7 1.5-12.1-3.4-.6-10.6-.6-10.6l-5 2.6ZM184.5 460.6l5 10 6.8-3.8-4.7-9.4Z"/><path fill="#fff" d="M182.5 514c-2-1.1-3.4.2-4.1 1.5-.9 1.7-.7 4-.3 5.9 2.3.2 4.2-1 5.3-3.1.7-1.3 1-3.4-.9-4.3m-12.2 19.8c1.5.8 3.6 1 4.7.6-.7-3.5-1.7-8.8-2.2-11.9-1.4 0-3.1.6-4.4 3-1.7 3.2-1 6.8 1.9 8.3m16.9-6 .5.3c0 .9.5 2.1.9 2.7-1.8 1.2-5.3 3.2-7.6 4 .6 2.7 1.6 6.1 2.4 8.3h-.2c-2.4-1.1-5-2.5-7.1-3.3 0-.9-.3-2.1-.6-3.3-2.7.6-5.5.7-8.5-.9-4.9-2.5-6.6-6.7-4.3-11.1 2.2-4.2 6.4-4.3 9.9-3.7-.4-2.2-.4-4.5.6-6.3 2.1-4.1 6.3-4 10.3-1.9 2.7 1.4 4.9 4.2 3.2 7.5-2.1 3.9-5.9 3.5-8.1 3.1.4 2.5 1.3 7 2.1 9.8 2-.8 5-3 6.7-5.1ZM203.2 551.8c-2.6-.9-5.2-2.6-6.4-3.8.6-1.2 1.7-3.2 2.6-4.6l.9.2c-.3 3.2 1.3 5.2 3.9 6.1 2.2.8 5.1.4 6.2-2.7 1-2.7-.6-4.5-3.2-6.9-2.4-2.2-5-4.9-3.4-9.5 2-5.7 7.7-6.2 12.2-4.6 2.2.8 4.2 2 5.8 3.5-.9 1.1-1.9 2.7-2.7 4l-.9-.2c.3-2.2-.5-4.2-3.1-5.2-2.1-.8-4.8-.4-5.7 2.2-.8 2.3.2 3.9 2.8 6.2 3.2 3 5.6 5.7 4 10.2-2 5.7-7.6 7-13 5ZM230.4 547.7c1.6.4 3.4.8 4.3 1 .7-2.7 1.4-6.4-1.8-7.2-3-.8-4.9 2.9-5.6 5.4l3 .8Zm6.3 9 .6.4c-.5.9-.9 1.9-1.1 2.5-1.9.7-4.5.8-7.3 0-6.3-1.6-8.9-6.3-7.3-12.4 1.5-5.8 6.1-9.1 12.1-7.5 5.8 1.5 7.1 6 6 10.3 0 .3-.3.9-.6 1.8l-.3.2c-2.6-.7-5.7-1.6-7.9-2.1l-4.1-1.1v.5c-1.1 3.6-.2 7.1 4.4 8.3 2.3.6 4.3 0 5.6-1ZM245.9 562.8c-1-.2-1.9-.3-2.9-.5.8-3.1 1.8-8.3 2.5-11.9l.9-4.7c.7-3.6 1.7-9.9 2.1-13 .9.2 1.8.4 2.8.6s2 .3 2.9.5c-.8 3.1-2 9.4-2.7 13l-.9 4.7c-.7 3.6-1.5 8.8-1.9 12-.8-.2-1.8-.4-2.8-.6ZM269.9 540.8h-.7c-.1-.9-.5-2.4-2.1-2.6-2.3-.3-3.1 1.7-3.3 3.1s0 3.7 0 5l4.3.6-.3 1.9-4.3-.6c-.3 2-.6 3.7-.7 4.9l-.3 2c-.3 2.4-1 7.7-1.1 10.1-.8-.2-1.8-.3-2.8-.5s-2-.2-2.9-.3c.6-2.2 1.4-7.6 1.7-10l.3-2c.2-1.2.4-2.9.6-5l-3.2-.4.3-1.9 3.2.4v-.5c.7-4.4 4.8-10.4 11.1-9.5.9.1 1.9.4 2.2.7v.3c-.5.9-1.5 2.9-2 4.2ZM292 542.2c-1.5 0-3.3.1-4.6.2-.1 2.1-.3 6.1-.3 8.7v4.7c-.1 2.5-.1 6.7 0 8.9.9.2 2.4.4 3.9.4 4.7 0 10.2-1.8 10.4-11.9.1-8.8-4.1-11-9.3-11.1Zm.3 25.2c-2 0-5-.2-6.8-.2h-4.7c.3-3.3.5-7.7.5-11.3v-4.8c.1-3.6 0-8 0-11.3 1.5 0 3.4.1 4.7.2h6.8c9.7.2 15.1 3.7 15 13.4-.2 10.6-8.3 14.2-15.4 14.1ZM321.7 554.8c1.6-.2 3.5-.4 4.4-.5-.3-2.8-.9-6.5-4.1-6.2-3 .3-3.6 4.4-3.4 7Zm9.1 6.2.7.2c-.1 1-.2 2.1-.2 2.7-1.5 1.3-4 2.3-6.9 2.6-6.5.7-10.5-2.8-11.1-9-.6-5.9 2.6-10.6 8.8-11.2 5.9-.6 8.8 3.2 9.2 7.5v1.8l-.2.3c-2.7.2-5.9.5-8.2.8l-4.2.4v.5c.4 3.7 2.4 6.7 7.1 6.2 2.3-.2 4.1-1.5 4.9-2.8ZM345.3 537.1l-.7.2c-.4-.8-1.2-2-2.8-1.8-2.3.4-2.5 2.5-2.2 4 .2 1.4 1.2 3.5 1.5 4.8l4.2-.7.3 1.9-4.2.7c.3 2 .6 3.7.8 4.9l.4 2c.4 2.4 1.4 7.6 2 9.9-.8 0-1.8.2-2.8.4s-2 .4-2.9.6c-.1-2.3-1-7.7-1.4-10l-.4-2c-.2-1.2-.5-2.9-.9-4.9l-3.2.5-.3-1.9 3.2-.5v-.5c-.8-4.4 1.3-11.3 7.5-12.4.9-.2 1.9-.2 2.3 0l.2.3c-.3 1.1-.7 3.3-.7 4.7ZM357 548.7c1.6-.4 3.4-.9 4.3-1.1-.7-2.7-1.8-6.3-5-5.5-3 .7-2.9 4.9-2.4 7.4l3-.8Zm9.9 4.9h.7c0 1.1 0 2.2.2 2.8-1.3 1.5-3.6 2.9-6.4 3.6-6.3 1.5-10.8-1.3-12.3-7.4-1.4-5.8 1.1-10.9 7.1-12.4 5.8-1.4 9.1 1.9 10.2 6.2 0 .3.2.9.3 1.8l-.2.3c-2.7.6-5.8 1.3-8 1.9l-4.1 1v.5c1 3.6 3.4 6.3 8 5.2 2.3-.6 3.8-2 4.4-3.5ZM375.5 538.2h.1c.7-2.3 2.4-4.2 5-5.2 4.9-1.7 7.1.8 8.4 4.5.5 1.3 1 3.1 1.6 4.9l.2.5c.6 1.7 1.8 5 2.5 6.5-.8.2-1.7.5-2.7.8s-1.9.7-2.6 1c-.7-2.4-2.1-6.8-3.1-9.6l-.4-1.1c-.8-2.3-2.1-4.8-4.9-3.9-2.7.9-3.4 3.4-2.2 6.8l.9 2.6c.8 2.3 2 5.5 2.9 7.6-.9.2-1.8.5-2.8.9s-1.9.7-2.7 1c-.5-2.2-1.9-6.4-2.7-8.7l-.6-1.8c-.8-2.3-1.9-5.2-3-7.7.9-.2 1.8-.5 2.8-.9s1.9-.7 2.5-1c.1.8.4 1.8.7 2.7ZM404.1 545.3c-2.1.9-4.4 1.4-5.7 1.2-.4-1-.8-2.8-1-4.4l.8-.3c1.4 2 3.5 2.5 5.5 1.6 1.8-.8 2.9-2.3 2.1-4.3-.8-1.8-2.3-1.8-5.3-1.5-2.6.3-5.2.1-6.6-3.1-2-4.5 1.6-7.5 4.3-8.7 2-.9 4.3-1.4 5.4-1.3 0 .9.3 2.7.6 4.1l-.8.4c-1-1.5-2.4-2.5-4.5-1.5-1.4.6-2.5 2-1.8 3.7.6 1.4 1.8 1.7 4.3 1.4 3.7-.5 6.2 0 7.5 3 2.2 4.8-1 8.2-4.7 9.8ZM418.4 525.1c1.5-.8 3.1-1.7 3.9-2.2-1.3-2.5-3.3-5.7-6.2-4.1-2.7 1.5-1.6 5.5-.4 7.8l2.8-1.5Zm10.8 2.3h.7c.2.9.6 2 .9 2.5-.9 1.8-2.8 3.7-5.3 5.1-5.7 3.1-10.8 1.5-13.8-4-2.8-5.2-1.7-10.8 3.8-13.8 5.2-2.8 9.3-.4 11.4 3.4.2.3.4.8.8 1.7v.3c-2.5 1.3-5.4 2.8-7.4 3.8l-3.8 2 .2.5c1.8 3.3 4.8 5.3 9 3 2-1.1 3.2-2.9 3.4-4.5Z"/><path d="M123.5 329.9c-.2 0-.4-.1-.4-.1l-.7-.4c-10.7-7.3-18.6-17.6-23.1-29.9-5-13.8-5-28.8 0-42.5l.3-.9c.8-2 1.7-4 2.7-6.1 2.7-5.3 6.1-10.2 10.2-14.5l1.4-1.5 1.3 1.6c5.7 7 13.8 11.7 22.8 13.1 1.9.3 3.9.5 5.9.5 7.1 0 14.1-2.1 20.1-6 7.6-4.9 13.1-12.5 15.5-21.2s1.5-17.9-2.4-26c-.6-1.4-1.4-2.7-2.2-4-6.9-10.5-18.4-16.8-31-16.8s-9.1.9-13.4 2.5l-.6.2h-.4c-1.2 0-2.1-1.1-1.9-2.3.1-.5.4-.9.8-1.2v-.1c8.5-4.1 17.6-6.2 27-6.2 18.8 0 36.4 8.4 48.3 22.9q2.1 2.55 3.9 5.4c3.3 5 5.8 10.4 7.5 16.1l.6 2-2 .3c-8.9 1.4-17 6.1-22.8 13.2-4.4 5.4-7.2 12-8 18.9-.2 2.1-.3 4.2-.2 6.4.5 9 4.2 17.6 10.6 24 6.3 6.4 14.8 10.3 23.7 10.9h4.5c17.4-.9 31.9-14 34.6-31.2l.2-.7c.3-.7 1-1.2 1.8-1.2h.4l.5.2c.5.3.8.8.9 1.3v.9c-2.2 28.2-23.2 51.3-51.1 56.2-.3 0-.6.1-1 .2-2.1.4-4.4.6-6.6.7h-3.4c-4.9 0-9.7-.6-14.3-1.7l-2-.5.7-1.9c3.2-8.5 3.2-17.8 0-26.3-3.3-8.6-9.6-15.6-17.8-19.8-1.7-.9-3.6-1.6-5.4-2.2-3.7-1.2-7.5-1.8-11.3-1.8s-6.2.4-9.2 1.1h-.2c-8.7 2.4-16.3 7.7-21.3 15.2-.8 1.2-1.6 2.6-2.3 3.9-2.1 4.1-3.3 8.4-3.8 12.9-1.3 12.5 3.9 25 13.7 32.8.8.5 1.1 1.6.6 2.5-.3.6-1 1-1.7 1h-.3Z"/><path fill="none" stroke="#000" stroke-miterlimit="10" stroke-width=".2" d="M123.5 329.9c-.2 0-.4-.1-.4-.1l-.7-.4c-10.7-7.3-18.6-17.6-23.1-29.9-5-13.8-5-28.8 0-42.5l.3-.9c.8-2 1.7-4 2.7-6.1 2.7-5.3 6.1-10.2 10.2-14.5l1.4-1.5 1.3 1.6c5.7 7 13.8 11.7 22.8 13.1 1.9.3 3.9.5 5.9.5 7.1 0 14.1-2.1 20.1-6 7.6-4.9 13.1-12.5 15.5-21.2s1.5-17.9-2.4-26c-.6-1.4-1.4-2.7-2.2-4-6.9-10.5-18.4-16.8-31-16.8s-9.1.9-13.4 2.5l-.6.2h-.4c-1.2 0-2.1-1.1-1.9-2.3.1-.5.4-.9.8-1.2v-.1c8.5-4.1 17.6-6.2 27-6.2 18.8 0 36.4 8.4 48.3 22.9q2.1 2.55 3.9 5.4c3.3 5 5.8 10.4 7.5 16.1l.6 2-2 .3c-8.9 1.4-17 6.1-22.8 13.2-4.4 5.4-7.2 12-8 18.9-.2 2.1-.3 4.2-.2 6.4.5 9 4.2 17.6 10.6 24 6.3 6.4 14.8 10.3 23.7 10.9h4.5c17.4-.9 31.9-14 34.6-31.2l.2-.7c.3-.7 1-1.2 1.8-1.2h.4l.5.2c.5.3.8.8.9 1.3v.9c-2.2 28.2-23.2 51.3-51.1 56.2-.3 0-.6.1-1 .2-2.1.4-4.4.6-6.6.7h-3.4c-4.9 0-9.7-.6-14.3-1.7l-2-.5.7-1.9c3.2-8.5 3.2-17.8 0-26.3-3.3-8.6-9.6-15.6-17.8-19.8-1.7-.9-3.6-1.6-5.4-2.2-3.7-1.2-7.5-1.8-11.3-1.8s-6.2.4-9.2 1.1h-.2c-8.7 2.4-16.3 7.7-21.3 15.2-.8 1.2-1.6 2.6-2.3 3.9-2.1 4.1-3.3 8.4-3.8 12.9-1.3 12.5 3.9 25 13.7 32.8.8.5 1.1 1.6.6 2.5-.3.6-1 1-1.7 1h-.3z"/><path d="M258.4 257c-2.1 27.4-22.6 50-49.6 54.8-.3 0-.6.1-.9.2-2.1.3-4.3.6-6.4.7-5.9.3-11.7-.2-17.1-1.5 3.5-9.1 3.3-19 0-27.6-3.3-8.7-9.7-16.2-18.6-20.7-1.9-1-3.8-1.7-5.7-2.3-7.2-2.3-14.7-2.4-21.7-.6-8.9 2.3-16.9 7.8-22.4 15.9-.9 1.3-1.7 2.7-2.4 4.1-2.2 4.4-3.5 8.9-4 13.5-1.4 13 4 26.2 14.5 34.5v.2h-.2c-10.7-7.3-18.5-17.6-22.7-29.2-4.8-13.3-5-28.2.3-42.1.8-2 1.6-4 2.6-5.9q4.05-7.95 9.9-14.1c6.2 7.6 14.8 12.3 23.9 13.8s18.9-.3 27.2-5.8 13.8-13.4 16.2-22.2c2.4-8.9 1.7-18.6-2.5-27.3-.7-1.4-1.5-2.8-2.4-4.1-10.2-15.8-30-21.6-46.8-14.9h-.1v-.2c25.1-12.1 55.4-5.5 73.1 16.2 1.4 1.7 2.6 3.4 3.8 5.2q4.8 7.5 7.2 15.6c-9.7 1.6-18.1 6.6-23.9 13.8-4.5 5.6-7.5 12.4-8.4 19.8-.3 2.2-.3 4.4-.2 6.7.5 9.9 4.7 18.7 11.1 25.2 6.5 6.6 15.2 10.8 24.9 11.4 1.6.1 3.1.1 4.8 0 18.7-1 33.6-15.1 36.3-32.9h.2Z"/><path fill="none" stroke="#000" stroke-miterlimit="10" stroke-width=".2" d="M258.4 257c-2.1 27.4-22.6 50-49.6 54.8-.3 0-.6.1-.9.2-2.1.3-4.3.6-6.4.7-5.9.3-11.7-.2-17.1-1.5 3.5-9.1 3.3-19 0-27.6-3.3-8.7-9.7-16.2-18.6-20.7-1.9-1-3.8-1.7-5.7-2.3-7.2-2.3-14.7-2.4-21.7-.6-8.9 2.3-16.9 7.8-22.4 15.9-.9 1.3-1.7 2.7-2.4 4.1-2.2 4.4-3.5 8.9-4 13.5-1.4 13 4 26.2 14.5 34.5v.2h-.2c-10.7-7.3-18.5-17.6-22.7-29.2-4.8-13.3-5-28.2.3-42.1.8-2 1.6-4 2.6-5.9q4.05-7.95 9.9-14.1c6.2 7.6 14.8 12.3 23.9 13.8s18.9-.3 27.2-5.8 13.8-13.4 16.2-22.2c2.4-8.9 1.7-18.6-2.5-27.3-.7-1.4-1.5-2.8-2.4-4.1-10.2-15.8-30-21.6-46.8-14.9h-.1v-.2c25.1-12.1 55.4-5.5 73.1 16.2 1.4 1.7 2.6 3.4 3.8 5.2q4.8 7.5 7.2 15.6c-9.7 1.6-18.1 6.6-23.9 13.8-4.5 5.6-7.5 12.4-8.4 19.8-.3 2.2-.3 4.4-.2 6.7.5 9.9 4.7 18.7 11.1 25.2 6.5 6.6 15.2 10.8 24.9 11.4 1.6.1 3.1.1 4.8 0 18.7-1 33.6-15.1 36.3-32.9h.2z"/><path d="m295.7 224.8-78.4 135.7H374Z"/><path fill="none" stroke="#000" stroke-miterlimit="10" stroke-width=".3" d="m295.7 224.8-78.4 135.7H374z"/><path fill="#fff" d="M292 272.4s-11.8-.6-11.8 0 1.2 4.6 2.7 4.6 9.5-1.5 9.5-2.3 0-1.9-.4-2.2Z"/><path fill="none" stroke="#000" stroke-miterlimit="10" stroke-width=".2" d="M292 272.4s-11.8-.6-11.8 0 1.2 4.6 2.7 4.6 9.5-1.5 9.5-2.3 0-1.9-.4-2.2z"/><path fill="#fff" d="M306.1 269.9c0 .7 2.9 6.3 5.2 6.3s2.6-1.9 2.6-3.3c0-4-7.9-3.1-7.9-3.1Z"/><path fill="none" stroke="#000" stroke-miterlimit="10" stroke-width=".2" d="M306.1 269.9c0 .7 2.9 6.3 5.2 6.3s2.6-1.9 2.6-3.3c0-4-7.9-3.1-7.9-3.1z"/><path fill="#fff" d="M298.1 268.7c2.1.3 2.9.7 3.8 7 0 0 3.7-.6 4.2 0s.7 2.6.1 2.9-4 1.3-4 1.3 1.2 6.8 2.8 9.7c0 0 .7-1.9 1.2-1.9 1.2 0 1.1 2 1.7 4.7s2 9 1.6 10.7-1.6 3.2-3.2 3.2c-4.4 0-8.2-18.5-9.2-24.6 0 0-3 .6-5.8 1.4-1.5.4-5.4 1.6-5.4 1.6 0 .8.9 1.9 2.3 1.9s2.9.3 2.9 1.1-.2 2.5 1.1 2.5 3.8-.2 3.8 1.1c0 0 .2 1-1.1 2.3s-14.6 11.5-14.6 11.5-.8.3-1.5.3-2.8-1.6-2.8-3.2 3.7-2.9 3.7-6.4-1.8-3.5-1.8-5.1 6.6.2 6.6 4.3 0 2.9.5 2.9 1.1-1.1 1.1-1.1.6-2.7-1-6.1-2.9-5-2.9-5-2.7 1.1-4 .6-3.2-4-2.6-4 2 1.2 3.8.6 16.7-5.1 16.7-5.1-1.5-7.9-1.2-8.4c.6-.8 2.1-.8 3.1-.6Z"/><path fill="none" stroke="#000" stroke-miterlimit="10" stroke-width=".2" d="M298.1 268.7c2.1.3 2.9.7 3.8 7 0 0 3.7-.6 4.2 0s.7 2.6.1 2.9-4 1.3-4 1.3 1.2 6.8 2.8 9.7c0 0 .7-1.9 1.2-1.9 1.2 0 1.1 2 1.7 4.7s2 9 1.6 10.7-1.6 3.2-3.2 3.2c-4.4 0-8.2-18.5-9.2-24.6 0 0-3 .6-5.8 1.4-1.5.4-5.4 1.6-5.4 1.6 0 .8.9 1.9 2.3 1.9s2.9.3 2.9 1.1-.2 2.5 1.1 2.5 3.8-.2 3.8 1.1c0 0 .2 1-1.1 2.3s-14.6 11.5-14.6 11.5-.8.3-1.5.3-2.8-1.6-2.8-3.2 3.7-2.9 3.7-6.4-1.8-3.5-1.8-5.1 6.6.2 6.6 4.3 0 2.9.5 2.9 1.1-1.1 1.1-1.1.6-2.7-1-6.1-2.9-5-2.9-5-2.7 1.1-4 .6-3.2-4-2.6-4 2 1.2 3.8.6 16.7-5.1 16.7-5.1-1.5-7.9-1.2-8.4c.6-.8 2.1-.8 3.1-.6z"/><path fill="#fff" d="M294.9 317.8s2.5-1.9 3.7-5.1 1.1-5.6 1.5-5.9 6.1 1.5 6.1 4-7.2 7.5-7.2 7.5 7.8-.9 7.8 1.2c0 2.5-6.3 2.2-7.4 2.2 0 0-1.7 2.6-3.3 3.8 0 0 3.2 0 3.7.9s-.4 3-.5 4.9 0 4-.3 6-.3 3.6-2.4 4.9c-1.9 1.2-7 1-7.3-1.3-.1-1.5 3.5-.4 4.9-1.4s.9-1.8.4-2.4c0 0-.8 2-2.8 2s-3.4-1.7-3.6-2.7 1.6-1.2 1.9-2-.3-7.3 0-8.5 1.9-2.5 1.9-2.5-3.8-.2-5.2-.2-6-3-6.2-5.1 2.4-1.6 3.3-.8 2.4 2.4 5.9 2.4c0 0-2.9-4.6-2.9-5.4s.4-1.7 2.3-1.6c2.8 0 4.9 3.2 5.7 5.2Z"/><path fill="none" stroke="#000" stroke-miterlimit="10" stroke-width=".2" d="M294.9 317.8s2.5-1.9 3.7-5.1 1.1-5.6 1.5-5.9 6.1 1.5 6.1 4-7.2 7.5-7.2 7.5 7.8-.9 7.8 1.2c0 2.5-6.3 2.2-7.4 2.2 0 0-1.7 2.6-3.3 3.8 0 0 3.2 0 3.7.9s-.4 3-.5 4.9 0 4-.3 6-.3 3.6-2.4 4.9c-1.9 1.2-7 1-7.3-1.3-.1-1.5 3.5-.4 4.9-1.4s.9-1.8.4-2.4c0 0-.8 2-2.8 2s-3.4-1.7-3.6-2.7 1.6-1.2 1.9-2-.3-7.3 0-8.5 1.9-2.5 1.9-2.5-3.8-.2-5.2-.2-6-3-6.2-5.1 2.4-1.6 3.3-.8 2.4 2.4 5.9 2.4c0 0-2.9-4.6-2.9-5.4s.4-1.7 2.3-1.6c2.8 0 4.9 3.2 5.7 5.2z"/><path fill="#fff" d="M285.4 330.7c0-1.6-2.4-4.3-4.5-4.4-2-.1-2.2.3-2.2 1v7.2c0 3.2-3.5 6.5-3.6 7.8-.1 1.5 2.9 2.1 4.6 2.5s4 2.4 6.4 2.7 19.2.3 25.2-5.9c5.4-5.5 3.4-8.4 3.9-8.4 0 0-7 10.3-21.2 10.3s-7.6-.7-8.8-2.3c-2.4-3 .3-8.3.2-10.4Z"/><path fill="none" stroke="#000" stroke-miterlimit="10" stroke-width=".2" d="M285.4 330.7c0-1.6-2.4-4.3-4.5-4.4-2-.1-2.2.3-2.2 1v7.2c0 3.2-3.5 6.5-3.6 7.8-.1 1.5 2.9 2.1 4.6 2.5s4 2.4 6.4 2.7 19.2.3 25.2-5.9c5.4-5.5 3.4-8.4 3.9-8.4 0 0-7 10.3-21.2 10.3s-7.6-.7-8.8-2.3c-2.4-3 .3-8.3.2-10.4z"/><path fill="#fff" d="M442.3 255.5s3-6.2 11.6-12.7 34.8-22.1 41.4-29.6 12.6-14.5 15.2-22.1 6.2-13.1 6.6-14.4 1.5-6.5.8-7.1-4.7 9.7-4.7 9.7l-.6-1.5s-5.6 9.7-6.1 11.6c0 0 1.1-6.9.5-7.4s-5.6 13.6-8 18.1c0 0 3.6-11.7 2.8-12.1s-4.8 9.6-8.2 14.4-6 8.1-8.2 8.9c0 0 9.4-14.8 8.4-16.3s-4.7 5.3-4.7 5.3 1.4-3.6.5-4.1-3.2 3.8-3.2 3.8-.7-1.3-1.4-.4-3.9 7.6-6.7 10.2c0 0-.1-2-1.9 0s-3.4 4.1-4.8 4.7c0 0-.9-1.3-3.6.9 0 0-3-1.1-4.6 2.7 0 0-1-1.8-3.1.8 0 0-.8-.2-1.4.4s-2.1.6-3 .7-1.4.9-1.8 1.1-1.2.1-1.8.9-1.9 0-3.5 1.1-2.6 2.9-2.6 2.9-6.1 0-6.4 2.4c0 0-3.5.8-3.7 3.5 0 0-1.3.1-1.6 1.8 0 0-2.6 0-3.3 1.5s-.4 2.3-.4 2.3-6.6 2.5-7.2 5.5c0 0-1.1 3.1.2 4.9s7.5 1.5 9 3.4 3.5 5.9 5.5 6.1 3.6-.9 4.2-1.6Z"/><path fill="none" stroke="#000" stroke-linecap="round" stroke-linejoin="round" stroke-width=".5" d="M442.3 255.5s3-6.2 11.6-12.7 34.8-22.1 41.4-29.6 12.6-14.5 15.2-22.1 6.2-13.1 6.6-14.4 1.5-6.5.8-7.1-4.7 9.7-4.7 9.7l-.6-1.5s-5.6 9.7-6.1 11.6c0 0 1.1-6.9.5-7.4s-5.6 13.6-8 18.1c0 0 3.6-11.7 2.8-12.1s-4.8 9.6-8.2 14.4-6 8.1-8.2 8.9c0 0 9.4-14.8 8.4-16.3s-4.7 5.3-4.7 5.3 1.4-3.6.5-4.1-3.2 3.8-3.2 3.8-.7-1.3-1.4-.4-3.9 7.6-6.7 10.2c0 0-.1-2-1.9 0s-3.4 4.1-4.8 4.7c0 0-.9-1.3-3.6.9 0 0-3-1.1-4.6 2.7 0 0-1-1.8-3.1.8 0 0-.8-.2-1.4.4s-2.1.6-3 .7-1.4.9-1.8 1.1-1.2.1-1.8.9-1.9 0-3.5 1.1-2.6 2.9-2.6 2.9-6.1 0-6.4 2.4c0 0-3.5.8-3.7 3.5 0 0-1.3.1-1.6 1.8 0 0-2.6 0-3.3 1.5s-.4 2.3-.4 2.3-6.6 2.5-7.2 5.5c0 0-1.1 3.1.2 4.9s7.5 1.5 9 3.4 3.5 5.9 5.5 6.1 3.6-.9 4.2-1.6z"/><path fill="#fff" d="M407.4 244.4c.4.4 10.2-1.1 15.6-.6s14.1 2.2 18.9 8.1c2.8 3.5 4 10.5 6.9 17.8s4.7 9.7 4.6 12.8-.7 9.3-5.7 14.1c0 0-.7 6.8-5.8 11.5-3.9 3.5-7.5 2.6-7.5 2.6s-13.5 14.5-15.2 18.5c0 0-1.4-7.7 8.5-19.7 0 0-1.7-5.4 2.9-10.1 3.8-3.9 8.6-5 8.6-5s2.8-6 2.9-9-5.3-14-9.1-15.3-5.6-.5-5.6-.5-2.8 1.4-4.5 2-5.5.5-5.5.5l-4.9 4.3s-2 3.8-7.7 8.8c-4.2 3.7-5.6 4.7-5.5 4.9s0 3.6.5 5.9 2 5.7 3.1 11.3 4.7 19 8.5 25.2 5.6 7.5 5.6 7.5 1.5.4 2 1.4c0 0 1.6.3 2 2.4s-.4 4.4-.4 4.4-.5-3.9-2.1-3.9c0 0-2-.4-3.1-2.5s-1.6-2.8-1.6-2.8 1.1 2.1 1.6 4.5.2 5.1.2 5.1 1.3 2.6-1.3 4.9c0 0 .5-3.3 0-4.4 0 0-1.2-.6-1.5-3.3s-.3-2-.8-3.8-1.6-3.6-1.6-3.6-.5 4.4-.2 5.9 1.3 4 1.3 4.7-.5 1-.5 1 .3 3-1.6 4.8c0 0 .3-2.6 0-4.1 0 0-1.8-.8-2.1-3.7s.3-11.2.3-11.2-1.7 1.6-3 1.5-1.9-1.7-2.6-1-.3 4.2-.3 4.2-1.7-1.2-1.7-4.7c0-3.3 2.1-3.7 2.8-3.6s1.5.7 1.6 1.4c0 0 1.6.7 2.6-.9s.4-3.4 0-4.5-3.2-9.9-4.1-12-3.7-4.4-4.4-7.3-1.8-12.1-3.2-16c0 0-.6.3-.9.1s-.1 1.3-1.5 1.1-1-5.8-1-5.8-1.5.1-1.2-1.8 3.6-4.5 3.6-4.5-4.9-.5-5.4-.3-1.8.5-3.3.3c0 0-9.3 6.1-14.9 4.7 0 0-8.3 10.1-8.2 10.9s7.5 7.1 14.1 11.7 13.6 9.3 14.1 18.2c0 0 .1 3-.1 4 0 0-.4-2.9-1-3.7 0 0-2.8-2.7-4.1-5.2 0 0 .1 2 .6 4s.4 6.4-.1 8.4c0 0-1.9-3.7-2.8-6.6 0 0-.1 1.9-1.8 3.1 0 0 .3-3.9 0-5s-2.5-5.7-2.9-8c0 0-1.4 2.9-1.5 4.3s.6 3.9.6 3.9-2.1-.2-2.3-4.2 1.6-6.9 1.5-8-3-3.2-9-7-11.3-8.1-11.1-9.5 10.7-13.5 10.7-13.5-.1-.1.2-.6 3.9-4.6 4.2-5.6.1-2.9.1-2.9l-2.2.2s-.6 2.6-3 4.4-8.1 4-10.6 6.1-6.3 6.9-6.3 6.9-1-1.9 1.8-6 6.7-7.7 6.7-7.7-3.2 1.5-4.8 2.9-4.2.9-4.2.9-.8 1.1-1.3 3.2-.5 4.1-1.1 4.1-1.9-3.5-1.2-6.4 2.2-6.3 2.2-6.3-1.5 1.8-2.3 3.8-1.3 3.8-2.1 3.8-1.6-2.8-.2-5.9 2-3.9 2-3.9-3.1 2.3-4.1 4.4-3 5.7-3.6 5.7-.2-3.1 1.8-7c0 0 3-9.1 13.6-17.1 0 0-6.2 2.5-10.2 6.6s-5.5 7.5-6.5 7.4 1.1-7.6 6.3-12.1c0 0-4.2 1.1-5.9 3.2s-3.1 5.7-4.5 5.2c-.9-.4 3.2-9.3 8.3-12.4s10.9-4.9 10.9-4.9-6-.3-9.1 1.3-7.7 6-8.9 7.3-2.8 2.5-3.7 2.1 4.3-8.8 13-12.9 11.8-3.8 11.8-3.8-3.3-2.6-6.2-3c-8.4-1.2-12.9 2.6-14.7.8s8.9-4.4 16-3.5 10 2.5 10 2.5 1.7-2.3 3.3-2.7c0 0-4.1-.4-4.2-1.3s4.3-4.2 4.3-4.2-4.6.4-5.9-1.1 5.5-4.9 5.5-4.9-3.2.7-3.4-.8c-.1-1.3 3.7-3.4 3.7-3.4s-6.9-.8-7.1-1.7 4.8-3.1 4.8-3.1-3.7-1.4-3.9-2.2 13-4.7 13-4.7-9.5-.6-11.3-.9-4.9-1.9-5.2-3.4 14.9-1.6 14.9-1.6-1.2-.9-1.4-1.7c0 0-.5 1.1-2 .9s-1.9-1.5-1.9-1.5-1.4 1.1-2.8.9-2-.9-2-.9-2.1.1-3.9-.6-3.3-1.8-3.1-2.6c.1-.8 10.8-.5 12.4-1 0 0-2.5-1-2.7-2.2 0 0-5.7.6-9-.9s-4.9-3.3-5-4.7c0-.9 3.9-.5 7.9-.3s7.9.2 7.9.2-.9-.8-.9-1.6c0 0-1.2.6-1.6.2s-.2-1.3-.2-1.3-3.7.6-4.6-.2-1.4-1.6-1.4-1.6-5 .6-7.7-.9-5.7-3.8-6.1-5 1.1-1.7 2.5-1.7 15.3 1.2 15.4 1.1-4.1-1.8-4.1-1.8-3.7.2-5.2-.1-4.2-2.4-4.2-2.4-2.7-.3-4.5-2c0 0-2.8 0-4.2-3.1 0 0-4.2-2-4.1-3.6 0-.7 3.4 0 3.4 0s-.3-1.2 0-1.5c0 0-6.9-2.6-8-5.4 0 0-3.8-2.3-2.8-3.9s5.7 2 9.7 3.2 5.3 1.7 5.3 1.7l-.4-1.5s-3.4-.9-4.1-1.7l-1.3-1.4s-3.2-.9-3.9-2c0 0-7.3-4.4-6.9-6.7 0 0-3.2-2.3-2.5-3.8s26.4 10.2 26.4 10.2-5.8-3-5.7-4.4c0 0-3.3.9-3.1-1.1 0 0-4.3-.6-4-3.3 0 0-3.3.2-4.2-.4s-.8-1.1-1.7-1.6-2.6-1.6-2.6-2.7c0 0-2-2.4-3.7-3.1s-5-.8-5.4-3.2 11.2 1.7 14.1 2.7 42 14.8 51.4 20.6 16.7 12.3 16.7 12.3.1-1 .8-1.1 4.1 5 5.4 5.7 5.1 2.4 10 9.7c0 0 .2-.9 1-.8s2.8 3.7 3.4 12.2.2 9.5-.2 10.6-13.1 17.1-13.3 21-1.5 11 1.6 13.7Z"/><path fill="none" stroke="#000" stroke-linecap="round" stroke-linejoin="round" stroke-width=".5" d="M407.4 244.4c.4.4 10.2-1.1 15.6-.6s14.1 2.2 18.9 8.1c2.8 3.5 4 10.5 6.9 17.8s4.7 9.7 4.6 12.8-.7 9.3-5.7 14.1c0 0-.7 6.8-5.8 11.5-3.9 3.5-7.5 2.6-7.5 2.6s-13.5 14.5-15.2 18.5c0 0-1.4-7.7 8.5-19.7 0 0-1.7-5.4 2.9-10.1 3.8-3.9 8.6-5 8.6-5s2.8-6 2.9-9-5.3-14-9.1-15.3-5.6-.5-5.6-.5-2.8 1.4-4.5 2-5.5.5-5.5.5l-4.9 4.3s-2 3.8-7.7 8.8c-4.2 3.7-5.6 4.7-5.5 4.9s0 3.6.5 5.9 2 5.7 3.1 11.3 4.7 19 8.5 25.2 5.6 7.5 5.6 7.5 1.5.4 2 1.4c0 0 1.6.3 2 2.4s-.4 4.4-.4 4.4-.5-3.9-2.1-3.9c0 0-2-.4-3.1-2.5s-1.6-2.8-1.6-2.8 1.1 2.1 1.6 4.5.2 5.1.2 5.1 1.3 2.6-1.3 4.9c0 0 .5-3.3 0-4.4 0 0-1.2-.6-1.5-3.3s-.3-2-.8-3.8-1.6-3.6-1.6-3.6-.5 4.4-.2 5.9 1.3 4 1.3 4.7-.5 1-.5 1 .3 3-1.6 4.8c0 0 .3-2.6 0-4.1 0 0-1.8-.8-2.1-3.7s.3-11.2.3-11.2-1.7 1.6-3 1.5-1.9-1.7-2.6-1-.3 4.2-.3 4.2-1.7-1.2-1.7-4.7c0-3.3 2.1-3.7 2.8-3.6s1.5.7 1.6 1.4c0 0 1.6.7 2.6-.9s.4-3.4 0-4.5-3.2-9.9-4.1-12-3.7-4.4-4.4-7.3-1.8-12.1-3.2-16c0 0-.6.3-.9.1s-.1 1.3-1.5 1.1-1-5.8-1-5.8-1.5.1-1.2-1.8 3.6-4.5 3.6-4.5-4.9-.5-5.4-.3-1.8.5-3.3.3c0 0-9.3 6.1-14.9 4.7 0 0-8.3 10.1-8.2 10.9s7.5 7.1 14.1 11.7 13.6 9.3 14.1 18.2c0 0 .1 3-.1 4 0 0-.4-2.9-1-3.7 0 0-2.8-2.7-4.1-5.2 0 0 .1 2 .6 4s.4 6.4-.1 8.4c0 0-1.9-3.7-2.8-6.6 0 0-.1 1.9-1.8 3.1 0 0 .3-3.9 0-5s-2.5-5.7-2.9-8c0 0-1.4 2.9-1.5 4.3s.6 3.9.6 3.9-2.1-.2-2.3-4.2 1.6-6.9 1.5-8-3-3.2-9-7-11.3-8.1-11.1-9.5 10.7-13.5 10.7-13.5-.1-.1.2-.6 3.9-4.6 4.2-5.6.1-2.9.1-2.9l-2.2.2s-.6 2.6-3 4.4-8.1 4-10.6 6.1-6.3 6.9-6.3 6.9-1-1.9 1.8-6 6.7-7.7 6.7-7.7-3.2 1.5-4.8 2.9-4.2.9-4.2.9-.8 1.1-1.3 3.2-.5 4.1-1.1 4.1-1.9-3.5-1.2-6.4 2.2-6.3 2.2-6.3-1.5 1.8-2.3 3.8-1.3 3.8-2.1 3.8-1.6-2.8-.2-5.9 2-3.9 2-3.9-3.1 2.3-4.1 4.4-3 5.7-3.6 5.7-.2-3.1 1.8-7c0 0 3-9.1 13.6-17.1 0 0-6.2 2.5-10.2 6.6s-5.5 7.5-6.5 7.4 1.1-7.6 6.3-12.1c0 0-4.2 1.1-5.9 3.2s-3.1 5.7-4.5 5.2c-.9-.4 3.2-9.3 8.3-12.4s10.9-4.9 10.9-4.9-6-.3-9.1 1.3-7.7 6-8.9 7.3-2.8 2.5-3.7 2.1 4.3-8.8 13-12.9 11.8-3.8 11.8-3.8-3.3-2.6-6.2-3c-8.4-1.2-12.9 2.6-14.7.8s8.9-4.4 16-3.5 10 2.5 10 2.5 1.7-2.3 3.3-2.7c0 0-4.1-.4-4.2-1.3s4.3-4.2 4.3-4.2-4.6.4-5.9-1.1 5.5-4.9 5.5-4.9-3.2.7-3.4-.8c-.1-1.3 3.7-3.4 3.7-3.4s-6.9-.8-7.1-1.7 4.8-3.1 4.8-3.1-3.7-1.4-3.9-2.2 13-4.7 13-4.7-9.5-.6-11.3-.9-4.9-1.9-5.2-3.4 14.9-1.6 14.9-1.6-1.2-.9-1.4-1.7c0 0-.5 1.1-2 .9s-1.9-1.5-1.9-1.5-1.4 1.1-2.8.9-2-.9-2-.9-2.1.1-3.9-.6-3.3-1.8-3.1-2.6c.1-.8 10.8-.5 12.4-1 0 0-2.5-1-2.7-2.2 0 0-5.7.6-9-.9s-4.9-3.3-5-4.7c0-.9 3.9-.5 7.9-.3s7.9.2 7.9.2-.9-.8-.9-1.6c0 0-1.2.6-1.6.2s-.2-1.3-.2-1.3-3.7.6-4.6-.2-1.4-1.6-1.4-1.6-5 .6-7.7-.9-5.7-3.8-6.1-5 1.1-1.7 2.5-1.7 15.3 1.2 15.4 1.1-4.1-1.8-4.1-1.8-3.7.2-5.2-.1-4.2-2.4-4.2-2.4-2.7-.3-4.5-2c0 0-2.8 0-4.2-3.1 0 0-4.2-2-4.1-3.6 0-.7 3.4 0 3.4 0s-.3-1.2 0-1.5c0 0-6.9-2.6-8-5.4 0 0-3.8-2.3-2.8-3.9s5.7 2 9.7 3.2 5.3 1.7 5.3 1.7l-.4-1.5s-3.4-.9-4.1-1.7l-1.3-1.4s-3.2-.9-3.9-2c0 0-7.3-4.4-6.9-6.7 0 0-3.2-2.3-2.5-3.8s26.4 10.2 26.4 10.2-5.8-3-5.7-4.4c0 0-3.3.9-3.1-1.1 0 0-4.3-.6-4-3.3 0 0-3.3.2-4.2-.4s-.8-1.1-1.7-1.6-2.6-1.6-2.6-2.7c0 0-2-2.4-3.7-3.1s-5-.8-5.4-3.2 11.2 1.7 14.1 2.7 42 14.8 51.4 20.6 16.7 12.3 16.7 12.3.1-1 .8-1.1 4.1 5 5.4 5.7 5.1 2.4 10 9.7c0 0 .2-.9 1-.8s2.8 3.7 3.4 12.2.2 9.5-.2 10.6-13.1 17.1-13.3 21-1.5 11 1.6 13.7z"/><path fill="none" stroke="#000" stroke-linecap="round" stroke-linejoin="round" stroke-width=".5" d="M398.8 173.5c.4 1.5 1.3 2.8 2.1 4.2.9 1.6 1.9 3.2 3.3 4.4.6.5 1.3 1.1 2.1 1.3M404.7 178.1c.6 1.5 1.5 2.9 2.4 4.3.3.4.6.9.8 1.3.2.3.5.7.7 1 1.6 2.4 3.7 4.5 6.1 6.2M404.3 182.2c0 1.2.1 2.5 1 3.4 1.1 1.1 2.9 1.1 4 2.1M407.2 187.5c.6 1 1.5 1.8 2.4 2.7 1.2 1.3 2.2 2.8 3.8 3.5M416.2 193.7c.7 1.6 1 3.3 1 5M400.4 185c1.3.9 2.5 2 3.6 3.2M410 200.2c-.6-.2-1.2-.6-1.7-1-.4-.3-.7-.6-1-1-1.4-1.6-1.7-4-.9-5.9"/><path fill="none" stroke="#000" stroke-linecap="round" stroke-linejoin="round" stroke-width=".5" d="M415.8 197.2c1.7 1.4 2.8 3.5 3.1 5.7M393.8 173l2.6 2.6c.5.5 1 1 1.6 1.2s1.4 0 1.7-.6M417.8 207.5l-.6 1c-.2.4-.5.8-.9 1h-.3c-.1 0-.2-.1-.2-.2-.2-.4-.1-.8-.2-1.2 0-.1 0-.3-.2-.4-.2 0-.4.2-.5.4-.3.8-.4 1.6-.4 2.4M414.6 208.7c-1 0-2 .9-2.1 2v.7c0 .6-.1 1.1-.4 1.6 0-.4-.1-.7-.4-.9l-.1-.1h-.2c-.3.1-.5.5-.5.9v1.4c0 .4-.2 1-.5 1.3M409.8 219.1c-.3-.8-.1-1.6 0-2.4 0-.2 0-.4.1-.7 0-.2.2-.5.3-.7s.1-.6 0-.8 0-.1-.1-.1h-.2c-.3 0-.6.3-.7.6-.4.7-.6 1.6-.5 2.4M407.8 219.9h-.3c-.1 0-.2-.1-.2-.3-.1-.4-.1-.7-.1-1.1s0-.8-.3-1.1c0 0-.1-.1-.2-.1-.2 0-.3.2-.3.4v3M410.1 212.8c-1.2-2.6-1.8-5.4-1.9-8.2 1.2.9 2.2 2 2.9 3.3-.3-1.4-.5-2.9-.8-4.4-.2-1.2-.5-2.4-.1-3.6 0-.3.2-.6.5-.7.2 0 .4.1.5.2.6.6.9 1.4 1.2 2.2.5 1.7 1.1 3.4 1.7 5"/><path fill="none" stroke="#000" stroke-linecap="round" stroke-linejoin="round" stroke-width=".5" d="M415 187.6c-.8 5.5-.2 11.1 1.9 16.3"/><path fill="none" stroke="#000" stroke-linecap="round" stroke-linejoin="round" stroke-width=".5" d="M412.1 200.8c-.3-1.6-.2-3.3.2-4.9 0-.3.3-.7.6-.7s.4.1.5.3c.5.5 1 .9 1.5 1.4M404.8 185.6c.3 4.3 2.3 8.5 5.4 11.5M397.7 179.4c0 2.6.8 5.1 2 7.4s3 4.2 4.8 6M393.4 176.5c.7.4 1.3.7 1.9 1.2.4.3.7.6 1.1.9 1.2.9 2.7 1 3.9 1.8M385.2 166.9c1.2.4 2.4 1.1 3.4 1.9.8.6 1.4 1.4 2.1 2.1M329.7 157.8c1.5-.5 3-.6 4.6-.5M333.6 159.8c.1 0 .2-.1.4-.2.7-.6 1.7-.5 2.6-.2s1.6.8 2.5 1M323 151.2c0-.3.4-.5.6-.4s.5.2.8.4c.7.5 1.4.8 2.2.9M327.5 163.7c0-.2.2-.4.4-.5s.5 0 .7 0c.8.2 1.5.8 2.4.7M339.1 162.8c.3.4.6.7 1.1.9.3.1.7 0 1 0 .9-.1 1.7-.4 2.5-.6M342.6 165.3c1 .2 2.5 0 3.1-.2 1.2-.3 2.1-.4 3.2-.9M335.1 168.7q1.2.45 2.4.3M340.3 172.1c.4.2.9.2 1.4.2 1.8 0 3.6-.1 5.4-.2M347.5 173.6c2.2.3 4.5.2 6.7-.1M342.7 176.6c-.8.4-1.8.6-2.7.4"/><path fill="none" stroke="#000" stroke-linecap="round" stroke-linejoin="round" stroke-width=".5" d="M335.2 170.3s4 1.6 6.4 2.4 8.6.9 14 2.4c4.7 1.3 7.1 3.2 11.6 4.2s11.8 2 14.9 2.8 7.3 3.1 7.3 3.3M339.4 164.4s3.2 1.1 7 1.9 9.9 2 14.2 3.6 9.5 3.6 13.3 4.8 12.8 4.2 15.5 4.6M392.5 180.6s4.6 2 5.9 3.4M346.8 157.6s5.6 2.6 13.8 5.4 22.5 8.9 26.9 11.1M323.5 138.5s4.4 3.2 13.8 5.5 21.3 7.9 23.3 8.9 3.1 2.2 5.2 3.2 10.5 4.6 14.6 9M358 183.4s9.9.5 11.4 1.9M374.5 186.4s6.3.6 8.4 1.4 3.2 1.4 3.2 1.4M343.7 184s9 .8 12.3 1.5 13.5 4.5 19.1 4.6M381.2 190.8s3.1-.2 4.1.2 1.9 1.3 1.9 1.3M362.6 194.5h4.7s-.3.4.2.5 10.6.2 10.6.2M376 193.3s1.7 1.5 5.2 1.4c6 0 8.8 2.3 10.5 2.6M398.3 185.7s-1.8.7-1.8 2.9c.1 3.8 8.5 12.5 8.5 12.5"/><path fill="none" stroke="#000" stroke-linecap="round" stroke-linejoin="round" stroke-width=".5" d="M398.7 190.6s2.1 3.7 4.9 5.2M394.9 190.4s-3.2-1.1-4.1-.5c-1.1.8 2.6 10.3 7.2 9.8 0 0-.6 1.6 1.7 3.4s3.7 2.1 5 3.4"/><path fill="none" stroke="#000" stroke-linecap="round" stroke-linejoin="round" stroke-width=".5" d="M393.2 192.3s6.3 7.7 11.7 10.5M389.9 199.4s8.3 5.7 13 7.1M353.1 186.9s5 2.1 8 .2M352.6 195.7s5.9 1.9 13.6 2.1 12.1.1 12.1.1M363.5 202.4s7.5-1.6 16.3-.8M363.2 204.6s7.8-1.3 12-1.3 8 .8 8 .8M368.2 208.8s2 .1 4.5-.2 7.6-1.7 12.2-1M395.3 206s-.6.6-1.6.6-2.6-2.8-2.6-2.8-.2 1.2-1.5 1.1-2-.9-3-.4-1.6 1-1.7 3.2 2.5 5.1 5.6 5.2 4.3.1 5.6-1.3c0 0-1.1 1-.6 1.8s3 2.4 5.1.5c0 0-1.5.9-.4 1.2s2.5.2 2.5.2"/><path fill="none" stroke="#000" stroke-linecap="round" stroke-linejoin="round" stroke-width=".5" d="M396.4 207.5s2.9-.3 3.4.6.2 1.7 1.4 1.7"/><path fill="none" stroke="#000" stroke-linecap="round" stroke-linejoin="round" stroke-width=".5" d="M402.3 208.4s-1.7.8-.9 1.6c1 1 3 0 3.7.9M387.8 208.5s8 .7 12.4 3.4M405.4 215.6s-1-1.7-1.9-1.6c-1.4.2-1.4 5.5-1.4 5.5s-.6-1.7-1.1-1.6-1 4.3-1 4.3.4-3-.3-3-1.2 3.2-1.2 3.2-.6-.4-.9.7c-.3 1-.2 4.2-.2 4.2s-1.3-.6-1.6 1.6c-.2 1.5.5 6.2.5 6.2M386.2 212.3s-2.2 0-2.3 1.3 2.4 4.8 8.7 4.7c1.2 0 1.2-.8 1.2-.8"/><path fill="none" stroke="#000" stroke-linecap="round" stroke-linejoin="round" stroke-width=".5" d="M392.5 218.3s.2.9 1.5.9 2.2-1 2.2-1"/><path fill="none" stroke="#000" stroke-linecap="round" stroke-linejoin="round" stroke-width=".5" d="M394 219.2s1.8.9 3.9-.8M397.8 217.1s-5.1-2.8-10.9-2.7M383.5 215.2s-6.1 1.2-6.2 3.6c-.1 3.5 8.2 2.2 8.2 2.2M384 221.5s1.8 1.1 4.8 0c0 0 .5 1.6 2.8 1.5s3.3-.4 3.3-.4"/><path fill="none" stroke="#000" stroke-linecap="round" stroke-linejoin="round" stroke-width=".5" d="M381.5 218.9s7.8-.6 11.6 1.5M397.3 221.7s-.6-2.1-1.4-1.7-1 4.8 0 7M394.4 227.7s-.8-1.3-1.9-1.2-1.8 1.5-1.8 1.9.8.6.8 1.2v2.1M390 224.4s-2.1-1.1-6.6-1.2-6.7 1.3-6.8 2.5 1.7 2.5 4.8 2.6"/><path fill="none" stroke="#000" stroke-linecap="round" stroke-linejoin="round" stroke-width=".5" d="M378.8 225.7s6-.8 9 .9M383.4 227.3s2.9.6 2.9 1.6-3.5 1.1-3.5 1.1M380.9 230.4s-5.7 1.3-5.7 2.8 5.4 1.9 5.4 1.9"/><path fill="none" stroke="#000" stroke-linecap="round" stroke-linejoin="round" stroke-width=".5" d="M378.9 233.3s3.9-1.2 11-.5"/><path fill="none" stroke="#000" stroke-linecap="round" stroke-linejoin="round" stroke-width=".5" d="M394.9 233.9s-2.5-2.8-4.1-1.9-1.3 4.4-1.3 4.4M394.9 239.4s-3-1.3-2.9-2.9c.2-2.1 2.3-1.5 2.3-1.5"/><path fill="none" stroke="#000" stroke-linecap="round" stroke-linejoin="round" stroke-width=".5" d="M390.9 240s-1.7-.1-1.7-1.7 1.4-2.5 2.9-1.8M385 233s-4.8 2.8-5 4.7M387.3 233.5s-4.1 2.4-4.9 3.6"/><path fill="none" stroke="#000" stroke-linecap="round" stroke-linejoin="round" stroke-width=".5" d="M383.8 237.3s-9 .3-9.1 4.5 14.3 2 14.3 2-13.4 2.9-13.4 6.6c0 2.7 8.2 1.1 8.2 1.1"/><path fill="none" stroke="#000" stroke-linecap="round" stroke-linejoin="round" stroke-width=".5" d="M378.4 241.3s4-2 10.3-2.1M355.9 211.2s5.3-1.4 13.9-1.2 12.3 1.1 12.3 1.1M360.8 200.2s2-.8 2-1.6M369.7 214.8s6 .1 8.3 0M376.5 215.5s-11.7 2.2-17.3 4.4M375.5 218.7s-7.6-.4-14.9 3M366.1 222c-2.2.5-4.4 1.3-6.3 2.2M374.7 220.6s-2.7.2-6 .9M373.1 224.2s-5.5-.4-10.1 2.3M372.2 226.1s-3.8-.5-6.8 1.1M362.7 230.7s6.1-1.7 10.8-1.5M359.4 235.2s4.9-4.1 16.2-4.1M363 236.7s4.2-1.6 10.4-1.6M363.1 241.5s-.3-1.5 3-2.8 7-1.6 7-1.6-3.1 1.6-2.7 2.3 2.4 0 2.4 0"/><path fill="none" stroke="#000" stroke-linecap="round" stroke-linejoin="round" stroke-width=".5" d="M361.3 245.9s4.9-4.9 10.2-6.2M372.6 240.9s-8.6 3.8-9 4.9 0 1.3 0 1.3"/><path fill="none" stroke="#000" stroke-linecap="round" stroke-linejoin="round" stroke-width=".5" d="M366.7 243.7s1.6.6 6.6.1c0 0-12.6 2.4-11.4 7.7.3 1.4 3.5.5 3.5.5"/><path fill="none" stroke="#000" stroke-linecap="round" stroke-linejoin="round" stroke-width=".5" d="M373.7 245.2s-4.8.6-6.9 3.4M362.9 235.4v-.3c.6-.7 1.4-1.3 2.2-1.7s1.8-.6 2.7-.7M367.4 234.8c.5-1.1 1.7-1.9 2.9-2M371.1 234.1c.6-1.1 1.8-2 3.1-2.2M371.4 248.3c.5-.2 1.1-.3 1.6-.6s1-.6 1.3-1.1M386.8 263.8c-.4.6-.5 1.3-.4 1.9s.4 1.3.9 1.7M394.1 260.6c-.3 1.1.2 2.5 1.2 3M401.3 263.5c-.8-1.5-.7-3.5.3-4.9M406.8 263.6c-.2-1.3.2-2.6 1-3.6M410.1 253.5c.2-.4.4-.8.7-1.2.2-.2.4-.5.6-.6.6-.5 1.4-.7 2.1-.6M413.6 248.8c.2-.7 1.1-1.2 1.8-.9M411.2 246.1c.7-1.1 2.1-1.9 3.5-2.1M413.4 256.6c-.3-.3-.4-.8-.2-1.2s.4-.7.8-1M414.7 254.2c0-.4.1-.8.3-1.1s.4-.6.6-.8.5-.4.9-.5M422.2 253.2c.2-.9.8-1.8 1.6-2.4M422.2 255.4c.5-1.4 1.6-2.5 2.8-3.3M394.8 268c-.2.6-.1 1.4.1 2s.6 1.2 1.1 1.7M396.9 265.8c-.2 1.4.3 2.8 1.3 3.7M397.5 258.6l-.3.8c-.1.3-.2.7-.3 1-.3 1.3 0 2.8.7 3.9M402.8 262.5c-.6 1.3-.5 2.9.3 4.1M402.1 269.8c-.6-.8-.6-2 0-2.9M405 261.6c-.2-.9-.2-1.9 0-2.8s.7-1.8 1.5-2.3M406.2 271.4v.1c.3.6.9 1.1 1.5 1.3s1.4.2 2 0M404.6 270.4c-1-.7-1.4-2-1.2-3.1M390.6 261.3c-.2 0-.3.2-.3.4-.7 1.6-.6 3.4.2 4.9M390.4 260.8c0-1.2 1-2.3 2.2-2.6M389.4 259.2c.3-1.2 1.6-2.2 2.9-2.1M381.3 265.3c-.4.5-.6 1.2-.5 1.8M377.9 270.3c-.1 0-.2.2-.2.3-.5 1-.8 2.1-.9 3.1 0 .5-.1 1 0 1.5M374 277.6c.5-1.2.7-2.6.7-4M369.9 282.4c.4-.9 1-1.8 1.9-2.3M370.3 283.5c.8-.4 1.6-.9 2.2-1.5M373.3 285.9q1.95-.45 3.6-1.5M373.2 284.6c1.4-1.5 3.2-2.4 5.1-3.3M395.2 292.8c.9-.5 1.5-1.6 2.4-2.2.2-.2.5-.3.8-.4.2-.1.5-.2.7-.3M401.3 288c-.2-.8.1-1.6.7-2.2s1.2-1.1 1.7-1.7M405 284.9c.4-.7.2-1.5.1-2.2M406 284c.4-.7.3-1.5 0-2.3M407.1 282.9c.4-.7.4-1.5.2-2.2M408.5 281.4c.4-.4.4-1.1.3-1.7M398.2 290.1c0-1.3.8-2.4 1.6-3.4.5-.6 1-1.2 1.5-1.7"/><path fill="none" stroke="#000" stroke-linecap="round" stroke-linejoin="round" stroke-width=".5" d="M396.2 291.9c.2-.4.2-.8.3-1.2.2-1.1.9-2.1 1.7-2.8M391.8 288.4c.5-2.1 1.7-4.1 3.4-5.5M421.1 259c.4-1.8 1.8-3.4 3.5-4.2h.3M422.8 259.5c0-.7.5-1.4 1-1.9M421.2 265.2c0-.8.3-1.6.9-2.3s1.2-1.2 1.9-1.7c0 0 .1-.1.2-.1M428.6 260c0-.3.3-.6.6-.8 1.5-1 3.4-1.6 5.2-1.6M431.3 261.9c-.5.5-.6 1.2-.3 1.8M429.5 260.2c-.7.9-.8 2.3-.2 3.4M418.7 259.8c0-.7.1-1.4.6-1.8.2-.2.5-.4.8-.3M407.3 244.5c.2.4.2.9.2 1.4.1 1 .5 2 1.2 2.8M410.8 247.9c.9-.9 2.1-1.4 3.3-1.7.6-.2 1.2-.3 1.6-.6.7-.5 1.5-1.6 2.3-1.8M423.2 243.9c-1.8.2-2.5.5-3.5 1.2-.8.6-1.5 1.5-2.4 1.9M420.1 247c.3-.5 1-1.1 1.4-1.4 1.3-.9 2.5-1.2 4.1-1.4M379.1 282.8s6.6-4.1 8.4-4.6c1.3-.4 1.8-.1 1.8-.1M385.5 282s7.1-7.4 14.9-8.6"/><path fill="none" stroke="#000" stroke-linecap="round" stroke-linejoin="round" stroke-width=".5" d="M387.5 280.1s1.9.4 3.6-.4c0 0-1.5.8 5.7.6 0 0-.9 1.1 1.2 1.1s9.9-2.2 13.2-4.8M400.3 283.4s-6.2 4.8-6.2 9.6"/><path fill="none" stroke="#000" stroke-linecap="round" stroke-linejoin="round" stroke-width=".5" d="M398.2 283.1c-.1 0-5.9 5.6-5.6 10.8"/><path fill="none" stroke="#000" stroke-linecap="round" stroke-linejoin="round" stroke-width=".5" d="M396.9 282.7s-4.2 3.2-3.8 7.7M429.3 264.6s2.5 1.2 3.9 2.6 1.3 1.4 2.1 1.9 4.6 2.1 6.9 4.3 4.6 4.9 5.3 4.7 1.5-1.8 1.5-1.8 1.9 2.7 3.6 2.3M417.5 255.3s-2.1 1.1-2.6 3.3c-.2.9-.9 4-.4 4.8s.9.2.9.2M415.7 262.5s-.7 3.8.5 4.4 1.6-1.2 1.6-1.2M408.8 266.2s-.5 3.1 1.1 4.9M377.4 276.7s-3 2-2.3 2.7c.5.5 2.2-1.1 2.2-1.1s-.9 1.2 0 1.7 4.1-2.3 4.8-3.5"/><path fill="none" stroke="#000" stroke-linecap="round" stroke-linejoin="round" stroke-width=".5" d="M381.4 277.3s3.6.5 6.5-1 3.5-2.5 3.5-2.5M367.2 284.4s2.2.5 3.2.2c0 0-.2 1.3.2 2M371.8 275.2s3-5.2 5.1-6.8M354.5 248.1c.4 0 4.8 0 8 .4"/><path fill="none" stroke="#000" stroke-linecap="round" stroke-linejoin="round" stroke-width=".5" d="M348.6 243.9s7.6.3 11.8 4.4M353 249.9s6.3-.3 8.9.3"/><path fill="none" stroke="#000" stroke-linecap="round" stroke-linejoin="round" stroke-width=".5" d="M361 250.1s-3 .4-3 1.3 2.2.9 1.8 2.2-3.7 2.9-3 3.8c1.3 1.6 16 .9 17.4.4"/><path fill="none" stroke="#000" stroke-linecap="round" stroke-linejoin="round" stroke-width=".5" d="M366.1 258.2s-.5-2.1 3.2-3.6 5.5-2 5.5-2M361.3 258.2s-.5-2.2 2.8-4.1 7.9-3.4 7.9-3.4M406.6 224.5s-.9-2.6-1.9-2.4-1.2 1.2-1.2 1.2"/><path fill="none" stroke="#000" stroke-linecap="round" stroke-linejoin="round" stroke-width=".5" d="M404.3 222.1s.5-2.9-.4-2.5-2.1 2.5-1.4 4.4c.8 2 .6 3 .6 3"/><path fill="none" stroke="#000" stroke-linecap="round" stroke-linejoin="round" stroke-width=".5" d="M402.5 224s-.7-.7-1-.1-.1 1.8-.2 2.6M401.2 224.7s-2-.9-1.8 1.8M390.8 242.6s-1.8.6-1.8 2c0 2.5 3.3 3.8 3.3 3.8M390.2 248.5s-4.8 2.1-4.8 3 4.2.7 4.2.7-9.7 5.1-8.8 7.5 5.7.3 5.7.3M379.6 250s.4-1.5 4-1.6 4.9-.3 4.9-.3"/><path fill="none" stroke="#000" stroke-linecap="round" stroke-linejoin="round" stroke-width=".5" d="M383.3 258.7s4-3.3 7.6-4.6M389.1 257.4s2.2-4.2 10.3-3.4M398.6 252.3s.2 1.4 3 1.3M398.7 249.2s0 2.6 1.2 2.8 1.2-.4 1.2-.4"/><path fill="none" stroke="#000" stroke-linecap="round" stroke-linejoin="round" stroke-width=".5" d="M400.6 250.7s.4 1.8 4.3 2.9M406.4 251.2c-2.8.2-4.8-3.6-4.8-3.6M401.6 246s.7 1.7 2.2 2.1"/><path fill="none" stroke="#000" stroke-linecap="round" stroke-linejoin="round" stroke-width=".5" d="M403.3 246.8s2 3.7 3.4 4.6M404.2 229.6s-.7-1.6-1.5-1.6-.9 1.8-.9 1.8M402.2 235.1s-.8-1.6-1.2-3.9-.8-3.4-1.4-3.3c-1.2.2-.7 3.3-.7 3.3"/><path fill="none" stroke="#000" stroke-linecap="round" stroke-linejoin="round" stroke-width=".5" d="M399.6 234s-.5-3.4-1.3-3.3-1.3 4.8 0 7.5c1.4 3.1 2.5 4 2.5 4"/><path fill="none" stroke="#000" stroke-linecap="round" stroke-linejoin="round" stroke-width=".5" d="M397.6 235.7s-.1-.9-.7-.8-.7 2.7-.7 2.7"/><path fill="none" stroke="#000" stroke-linecap="round" stroke-linejoin="round" stroke-width=".5" d="M400.5 245.6s-3.1-4.3-3.6-6.9-2.3 0-1.8 1.9"/><path fill="none" stroke="#000" stroke-linecap="round" stroke-linejoin="round" stroke-width=".5" d="M396.8 242.5s-1.1-2.8-2.4-1.9-.7 3.9 2.1 7.4"/><path fill="none" stroke="#000" stroke-linecap="round" stroke-linejoin="round" stroke-width=".5" d="M395.3 242.5c-.1 1.4.5 2.8 1.6 3.7M393.5 245.7c.2 1.4.7 2.8 1.8 3.7"/><path fill="none" stroke="#000" stroke-linecap="round" stroke-linejoin="round" stroke-width=".5" d="M393.8 247.2c-.3 1.4.3 3 1.4 4M403.7 241c-1.4-1.6-2.8-3.4-3.2-5.6M402.2 243.5c.6 1.1 1.4 2 2.3 2.8M381.8 261.8c-1.5.7-2.6 2.1-2.9 3.8M367.7 265.4c-.6-.2-.4-.8-.2-1 1.4-2.3 4.2-3.7 6.9-3.5M361.1 258.5c-.6.4-1 .9-1.4 1.4v.2c0 .2.2.3.4.4.5.1.9.1 1.4 0M348.8 260.3c.7-.6 1.6-1.1 2.6-1.3M341.5 261.3c.2-.3.4-.5.7-.7q1.65-1.2 3.6-1.8M365.3 286.8c.5.6 1.1 1 1.8 1.4.6.3 1.3.7 1.9.5M363.3 289c.9 1.2 2.1 2 3.6 2.3M361.5 291.3c.3.7 1 1.3 1.7 1.7s1.3.7 2 .6M359.5 293.6c.7 1.4 2.4 2.3 4 2.2M358 295.7c.8.9 1.9 1.3 3.1 1.6.5.1.9.2 1.4.3"/><path fill="none" stroke="#000" stroke-linecap="round" stroke-linejoin="round" stroke-width=".5" d="M370.3 285.2s-2.6 2.5-3.4 3.5-2.1 2.7-3.1 3.7-2.5 2.7-2.3 3.6.1 1.7-.1 2.4c-.4 1.1 8.8 7.3 10.8 8.5 2 1.3 4.7 4.2 5.1 4.8M378.1 315.4s.2 2 .2 3M380.1 317s1.4.9 1.7 2.7.4 6.2 1.4 8.6M382.6 316.4s2.8 3.2 2.9 6.1M434.8 306.7s-13.5 16.6-15.2 22"/><path fill="none" stroke="#000" stroke-linecap="round" stroke-linejoin="round" stroke-width=".5" d="M427.8 309.6s1.9 0 2.9-.4 4.6-2.8 4.6-2.8-1.4 3-.9 4.4M438.3 299.3s-4.1.1-3.6 5.6c0 0 3.3-.8 3.6-3.7"/><path fill="none" stroke="#000" stroke-linecap="round" stroke-linejoin="round" stroke-width=".5" d="M431.9 305.8c.4.2 2.1-5.1 3.4-6.9 1.3-1.9 3.8-2.6 4.3-3.5"/><path fill="none" stroke="#000" stroke-linecap="round" stroke-linejoin="round" stroke-width=".5" d="M439.2 294.4s1 2.3.7 2.9c0 0 1.6.3 2.2.5l-.4.6s2.3 0 2.9.1-1.3 3.6-3.1 4.8c0 0 1.2.6 1 .9s-1.5 2-3.1 2.5"/><path fill="none" stroke="#000" stroke-linecap="round" stroke-linejoin="round" stroke-width=".5" d="M444.6 298.5s1.5-.4 3.1-1.8M425.7 314.9s1-2.3 3-3.8"/><path fill="#ef3a24" d="M428.9 309.5s.4-2.4.7-4.5c.1-.8 1.1.6 1.1.6s.9-4.8 1.7-5.3.9-.2.9-.2 1.6-3.1 3.8-3c0 0 2.2-1.3 2.4-1.7l-.4-1s-4.5 1.1-8.2 4.6c-3.8 3.6-3.9 8.3-3.3 10.6h1.2Z"/><path fill="none" stroke="#000" stroke-linecap="round" stroke-linejoin="round" stroke-width=".5" d="M428.9 309.5s.4-2.4.7-4.5c.1-.8 1.1.6 1.1.6s.9-4.8 1.7-5.3.9-.2.9-.2 1.6-3.1 3.8-3c0 0 2.2-1.3 2.4-1.7l-.4-1s-4.5 1.1-8.2 4.6c-3.8 3.6-3.9 8.3-3.3 10.6h1.2zM395.7 277.9s1 .7 2.4.6 3.3-1.1 5.1-.9c3.2.4 3.2 1.4 3.2 1.4"/><path fill="none" stroke="#000" stroke-linecap="round" stroke-linejoin="round" stroke-width=".5" d="M396.8 276.9s1.5.7 5.2.8M398.6 275.8s-.4 1 6.8 1.2c1.5 0 2.5 1.4 2.5 1.4M402.7 274.2s2.6 2 5.2 2.3c2.7.3 4.6-.1 4.6-.2M405.7 273.5s-.1 1.5 2.6 1.2 5.9-.6 6.8-.8M421.3 248.9s1.6-3.5 5.6-4.5M424.8 248.2s2.1-2.9 5.2-3.2M342.5 263.1s9-8.4 17.4-9.5M340.9 267.2s2.5-3.6 7.3-5.5M352.8 261.2s4-2.4 7.2-2.9M339.2 278.4s3-4.3 5.5-6.1M341.8 254s8-3.4 13.2-.9M351.4 254.2s4.1-1.8 5.8-.6M369.5 258.3s-3.5 2.6-4.8 3.7-1.9 2.5-.7 3.2 7.3-.1 8.3-1.2M354.6 285s.2-1 5.5-3.8 7-3.7 8.1-5.7"/><path fill="none" stroke="#000" stroke-linecap="round" stroke-linejoin="round" stroke-width=".5" d="M369.6 275.4s-4.5 0-9 1.5-6.6.9-7.5 1.3-2.4 2-4 4.7M346.7 285.7s.2-4.3 3.1-7.7M367.8 259.5s-1.7-.3-2.9.2-4.5 2.5-6.2 3.4-5.9 2.5-8.7 4.9-5.1 5.4-3.9 6.3 2.3-.2 4.6-2.1 8.8-5.6 10.1-6c2.2-.6 3.9-.3 3.9-.3"/><path fill="none" stroke="#000" stroke-linecap="round" stroke-linejoin="round" stroke-width=".5" d="M347.2 274.6s-.4 1.4 1.1 1.3 2.7-1.9 2.7-1.9-.4 1.1.2 1.7"/><path fill="none" stroke="#000" stroke-linecap="round" stroke-linejoin="round" stroke-width=".5" d="M367.6 268c-.2 0-3.8 0-7.6 1.6s-9.3 5.4-8.6 6.9c1 2.1 12.6-2.5 14.5-3.9s7.1-4.6 10.6-4M357.3 266c.3-.8.7-1.6 1.1-2.3.2-.3.4-.6.7-.9M353.8 267.8c.2-1.5.6-2.3 1.7-3.2M350.1 270.3c0-.9.6-2.5 1.3-3.3M347.5 273.3c0-1.4.3-2.8.9-4"/><path fill="none" stroke="#000" stroke-linecap="round" stroke-linejoin="round" stroke-width=".5" d="M362.4 272.3c1-1.8 2.5-3.3 4.4-4.2M353.9 275.3c.3-1.5 1.4-2.6 2.4-3.6M359.4 271.7c.1-.8.6-1.7 1.2-2.2M362.1 270.7c.1-.9.8-1.8 1.6-2.2M374.5 268.8c-.3-.5-.3-1.1-.2-1.6s.4-1.1.8-1.5c-.1-.5-.1-.8.1-1.3s.5-.8.9-1.1c.4-.4.8-.7 1.2-1 .8-.6 1.7-1.2 2.7-1.4M375 264.6c-.3.2-.8.5-1.1.6s-.8 0-1.1-.2c-.2-.2-.3-.6-.3-.9s.2-.6.3-.9c1-1.9 2.9-3.4 5-3.9M333.9 148.9c1.1-.1 2.2-.3 3.2-.5M337.9 152.2c.6 0 1.1 0 1.7-.2M325.4 144.2c.1 0 .2.2.4.2 1.3.8 2.6 1.1 3.9 1.1M353.8 189.9c1.3 0 2.6-.4 3.8-.9M353.7 181.6c.9-.2 1.9-.6 2.7-1M344.6 179.1c1.6.2 3.3.1 4.9-.3M335.7 173.9c.3.1.7.3 1 .4.7.2 1.4.2 2.1.4M388.3 280.3c-.1.5.2 1.1.7 1.3M392 280.2c-.5.5 0 1.4.2 1.5M358.7 300.7c.1-.2.2-.4.4-.6l1.5-1.5c.5-.5 1.2-.8 1.9-.9M360.4 302.1c.7-1.2 1.8-2.3 3.1-3M362.5 303.7c.7-1.3 1.7-2.4 3.1-2.9M364.2 305c.7-1.2 1.6-2.1 2.8-2.8M366.6 306.6c.5-1.2 1.4-2.1 2.5-2.8M368.7 307.9c0-.2.1-.3.2-.5.1-.3.2-.5.4-.8q.6-.9 1.5-1.5M371.2 309.6c.5-1.1 1.1-1.9 2-2.7M373.5 311.2c.5-1 1.2-1.8 2.1-2.5M375.6 312.9c0-.1.1-.3.2-.5.5-.9 1.4-1.6 2.4-1.9M378 312.8c.5-.5 1.1-1 1.7-1.1M382.9 316.8c.7-.3 1.2-.8 1.4-1.5M376.6 315.1c.3.1.6 0 .8-.2s.4-.4.5-.7M375.2 320.7c.4.2 1 .3 1.5.2M375.4 319.1c.7.3 1.4.3 2.1.2M376 316.8c.5.3 1.3.1 1.6-.3M378.2 316.1c.2-.4.6-.7 1-.8M381.9 320.5c.9 0 2-.4 2.6-1.1M382.9 327.5c.5 0 1 0 1.5-.3.3-.1.6-.3.9-.5s.5-.5.6-.8M383.8 330.3c.9 0 1.7 0 2.5-.5M382.4 324.7c.5.1 1.2 0 1.7-.3s1-.6 1.4-1M383.8 318.1c.2 0 .4 0 .6-.2q.75-.6.9-1.5M386.9 324.7c.8 0 1.5-.2 2.2-.5.3-.1.6-.3.8-.5M385.3 321.8c1.1-.2 2.2-.9 2.9-1.9M384.9 320.1c1-.2 1.8-1 2-2M378.6 319.3c.3.1.6 0 .8 0 .6-.2 1.2-.5 1.7-1M380 323.4c.7.2 1.5 0 2-.5M380.9 325.5c.5.1 1 0 1.5-.2M382.1 323h.1c.4.1 1 0 1.4-.2.7-.3 1.1-.6 1.6-1.2M444.7 270.3c.5-1.4 1.7-2.5 3.1-3M444.6 268.2s1-2 2.8-2M439.9 260.7s.5-3.4 4.3-4.3M440.7 262s1.3-3.8 4.2-4.1M441.4 264.5s.9-4.2 4-5M442.6 264.7s1.6-3.3 3.3-3.6M443.5 264.8s1-2.2 2.7-2.5M447 265.1c-1.7 0-3 2.4-3 2.4M443.4 267.7s.7-3.2 3.2-3.9M445.4 280.6s.3 9-2.4 12.8"/><path fill="none" stroke="#000" stroke-linecap="round" stroke-linejoin="round" stroke-width=".5" d="M444 291.3s2.4-5.4 2.6-10.4M447.8 280.4s0 4.7-1.3 8.1-2.3 5.1-2.3 5.1"/><path fill="none" stroke="#000" stroke-linecap="round" stroke-linejoin="round" stroke-width=".5" d="M445.2 291.7s2.4-2.8 3.1-6.3.7-5.6.7-5.6M450.1 280.3s.2 4.8-.5 7.1c-.8 2.7-3.2 6.3-3.3 6"/><path fill="none" stroke="#000" stroke-linecap="round" stroke-linejoin="round" stroke-width=".5" d="M446.9 292.7s3.5-3.2 4.1-7.1c.4-2.3.3-5 .3-5M449.1 293.2s2.6-4.3 3-6.2.3-4.2.3-4.2M441.7 293.9s1.6-4.4 2-7 .5-8-.5-10.5M419.5 260.9c-.5.8-.5 1.9 0 2.6M420.3 262.2c-.9 1-1 2.6-.4 3.5M412.4 262.9c-.4 1.4-.4 3 .1 4.3M411 266.7c.8.1 1.6.5 2.1 1.2.2.3.4.7.3 1.1 0 .3-.2.5-.3.8M413.1 269.8c.8.2 1.6.4 2.3.9l.6.6c.5.4 1 .6 1.6.7M413.5 272c.7-.5 1.7-.7 2.5-.6M415.3 269.7c.7.2 1.1.8 1.7 1.2q.75.45 1.5.6c.6.2 1.6.4 2.2.3M416.2 269.2c1.1.1 2 1 3 1.6 1.3.6 2.8.6 4.2.4"/><path fill="none" stroke="#000" stroke-linecap="round" stroke-linejoin="round" stroke-width=".5" d="M418.5 268.9c0 .5.4.8.7 1.1 1.3 1.1 3.1 1.5 4.7 1M421.1 267.8c0 .8.4 1.7 1 2.2s1.7.7 2.5.7M438.1 255.4c1.1-1.4 2.9-2.3 4.5-2.3M437 254c.7-1.5 2.2-2.7 3.8-3.1M435.5 251.7c.6-1.3 1.7-2.4 3.1-2.9M435.3 253.4c.4-.9 1.2-1.5 2-1.9s1.9-.4 2.8-.5M423.2 267.7c.2.3.6.5 1 .6s.8 0 1.2.1c1.3 0 2.5.4 3.7.8M423.6 266.5c.5.5 1.4.5 2.1.6.8 0 1.5.2 2.2.4.4.1.8.3 1.2.5.6.4 1.1 1.1 1.8 1.4M427.2 264.8c.4 1.1 1.4 1.7 2.5 2.2s2.1.8 3 1.5"/><path fill="none" stroke="#000" stroke-linecap="round" stroke-linejoin="round" stroke-width=".5" d="M430.3 265.6c.8.5 1.7 1.1 2.1 2.1.3.6.3 1.3.7 1.9.2.4.5.6.9.9M436.3 269.7c2.1 2 2.8 4.9 2.4 6.7"/><path fill="none" stroke="#000" stroke-linecap="round" stroke-linejoin="round" stroke-width=".5" d="M437.3 270.2c5.1 5.6 4.7 10.9 4.4 13.2M442.1 286.2c.9-1 1.7-3.3 1.9-5"/><path fill="none" stroke="#000" stroke-linecap="round" stroke-linejoin="round" stroke-width=".5" d="M440.6 275.2c.2.5.3 1 .1 1.5-.2.6-.7 1-1.3 1.2M434.2 268.2c-.7.5-.8 1.5-.3 2.3M395.8 294.8c0-.4.4-.8.8-.9s.8 0 1.2-.1c0 0 .2 0 .2-.1 0 0 .1-.2.1-.3 0-.4 0-.8-.1-1.2 0-.3-.2-.5-.4-.7s-.5-.3-.7-.2M396.8 299.2c0-.2.3-.3.5-.4.6-.2 1.2-.2 1.9 0 .5.1 1 .4 1.5.2M396.2 296.6s.1 0 .2-.1c.4-.4 1-.5 1.6-.4s1.1.2 1.7.2"/><path fill="none" stroke="#000" stroke-linecap="round" stroke-linejoin="round" stroke-width=".5" d="M397.8 293.9c-.1.3-.3.7-.3 1s0 .7.4 1c0 0 .2.1.3.2.2.2.2.5.2.8s-.1.5-.1.8c0 .4.2.6.4 1M399.4 298.8c-.3.6-.2 1.4 0 2s.6 1.2.8 1.8.3 1.3 0 1.9c-.1.3-.4.5-.7.5s-.5-.2-.8-.3c-.4-.2-.6-.3-1-.3"/><path fill="none" stroke="#000" stroke-linecap="round" stroke-linejoin="round" stroke-width=".5" d="M397.4 302.6c0-.1.2-.2.4-.3.7-.3 1.7-.2 2.4 0M402.3 304.9c-.3.4-.6.9-.7 1.4-.2.8-.3 1.7 0 2.5s1 1.4 1.9 1.5M399.2 307.2q1.05-.3 2.1 0"/><path fill="none" stroke="#000" stroke-linecap="round" stroke-linejoin="round" stroke-width=".5" d="M398.7 309.4c1 .2 2.1.1 3.1-.3M400.2 312.2c1.2.3 2.5.2 3.6-.3M402.1 314.6c.8.2 1.7.2 2.4 0M403.9 318.9c.6.1 1.3 0 1.8-.3M405.4 323.6c.6.2 1.3.2 1.9 0M406.4 326.5c.3.2.7.5 1.1.7s.9.2 1.2 0M407.4 330.4c.3.3.8.3 1.2.3s1 0 1.5-.2M401 332.9c-.1.6 0 1.3.4 1.8l.6.6c.2.2.4.5.4.8M403.9 337.1c-.3-.5-.4-1.5 0-2 .3-.5.5-1 .6-1.6M406.2 336.8c-.4-.4-.6-.9-.6-1.4s.2-1.2 0-1.7M407.5 337c.2.1.3.3.4.4.3.3.7.5 1.1.6s.9.1 1.3.1M409.4 350.7c.2-.6.9-.9 1.5-.8M414.5 349.1c0-.2.1-.3.3-.4.3-.2.6-.3 1-.3M418.9 344.2s-.5-.9-.4-1.8c0-.7.5-1.2.5-1.1M407.1 344.1s2 .3 2.9-.2M407.4 340.8s1.4.6 2.8.1M412.3 342.8s1.5.1 2.7-1.2M415.5 341.7s.9-.2 1.5-1.8M412.8 337.2s.7-.1 1.1-.9M414.1 339.2c-1 .8-2.6 1.1-2.6 1.1M413.9 338.9s.4.3 1.4-.8"/><path fill="none" stroke="#000" stroke-linecap="round" stroke-linejoin="round" stroke-width=".5" d="M412.2 336.6s1.7 2 2.2 3.2M431.5 245.4s2.9-1.1 4.5-2.6 2.7-2.2 4.8-3.3c3.9-2.1 5.4-3.9 6.9-4.8s3.2-1.1 4.6-2.5 1.7-3.4 4.4-4.4 19.9-5.4 24.1-7.9c6.4-3.8 19.2-12.8 23.1-16.9M509.3 194s1.2-6.3 1.8-8.4c.9-2.9 2.2-6.2 2.2-6.2"/><path fill="none" stroke="#000" stroke-linecap="round" stroke-linejoin="round" stroke-width=".5" d="M490.5 210.7c.1 0 6.1-5 8.6-10.5"/><path fill="none" stroke="#000" stroke-linecap="round" stroke-linejoin="round" stroke-width=".5" d="M494 208.6s3.6-1.5 5.5-4.5c3.8-5.9 6.7-14.1 7.2-15.5M475.4 218.4s.8-1.6 3.1-3.7 7-6.7 8.1-8.5c2.7-4.5 2.6-5.8 2.9-6.8M444.7 251.8s.6-2.4 4-6.5c3.4-4 5.1-5.9 5.6-6.8M462 237.2s4.6-5.1 7.1-8.5 3.8-5.9 3.8-5.9M460.1 238.5c0-.2 3.2-3.8 4.2-5.9s1.8-4.1 1.8-4.1M453.1 237.1s3.9-3.2 4.8-5M454.8 234.3s2.8-1.7 3.4-3.6.5-3.6.5-3.6M459.2 233.5s2.8-3.2 3.2-7.4"/><path fill="none" stroke="#000" stroke-linecap="round" stroke-linejoin="round" stroke-width=".5" d="M459.7 232.8s.8-3 .3-6.1M454.3 242.5l4.2-6c1.4-2 2.2-2.9 2.2-2.9M462 230.9s2.4-4.1 3-5.8M466.4 227.5s1-2.5 2.8-3.4M481.5 222c1.3-.9 2.5-1.9 3.5-3.1.3-.4.7-.8 1-1.2.6-.8 1.2-1.7 1.8-2.4M477.6 225.1c.4-.4.7-1 1-1.6.9-1.7 1.9-3.2 3.4-4.5M475 226.6c1.1-2.1 2-4.4 3.8-5.9M474 224.9c.2-.2.3-.4.5-.6.4-.8.5-1.7 1.2-2.3M467.5 233.4c.1 0 .2 0 .3-.2 1.3-1.4 2.7-2.8 3.7-4.5.7-1.1 1.2-2.2 1.7-3.4M470.5 231.7c1.1-1.5 2.2-4.4 2.8-6.2M433.1 246c1 0 1.8-.4 2.6-1.1M435 246.8c.9-.1 1.7-.6 2.2-1.2M436.4 247.5c1.3-.1 2.3-1 3.3-1.8.5-.4 1-.8 1.4-1.2M438.3 248.6c1.3-.2 2.2-1.2 3.2-2.1.8-.7 1.5-1.3 2.4-1.9M439.9 249.9c.4 0 .8-.2 1.1-.4s.6-.6.9-.9c.6-.7 1.4-1.3 2.1-1.8M441.9 250c.8-.6 1.4-1.4 2-2.2M442.5 252.7c.2-.9.4-1.8.9-2.6.5-.9 1.1-1.5 1.8-2.1M490.8 214.6c2.5-1.2 4.2-3.4 6.3-5.2M479.2 219.3c1.8-2.5 4.4-4.4 7.3-5.5M479.5 212.3s4-4.6 5.7-7.3M472.2 217s5.6-3 6.1-7.1"/><path fill="none" stroke="#000" stroke-linecap="round" stroke-linejoin="round" stroke-width=".5" d="M471.2 221s2.9-2.4 3.4-5.6M468.1 221.6s3.5-4.2 3.5-7.1M465.9 221.6s1.9-2.8 2.1-6.2M452.3 222s.7 1.6 4.6 1.6c0 0 .2 1.1 3 .6M444.2 240.5s7.6-4.1 6.9-7.5M452.9 231.3s0 4.3-1 5.4c0 0 4.3-4.8 4.8-9M450.8 230.4c.8-.6 2-.8 3-.5M450.8 225.9c.1 0 .2.2.2.3 0 .9-.1 1.8-.5 2.6M439.7 228.4q2.25-.45 4.5 0M434.9 239.2c1.1.2 2.2.3 3.2.1M437.4 237.1c0-.2.2-.3.4-.4.6-.4 1.4-.6 2.1-.6M438.9 235.3c1.5-.9 3.2-1.1 4.9-.7M435.7 234.4c.5-.4 1.2-.5 1.8-.7 1.3-.4 2.7-.7 4.1-.8s2.8 0 4.1.5M436 231.8q3.6-.75 7.2-.6c1 0 2 .1 3 .5M428.7 242.2c.6-.4 1.4-.4 2.2-.3 1 .1 2 .5 3 .9.4.2.8.4 1.1.8M424.5 243.4c.6-.3 1.2-.4 1.9-.4 1.6 0 3.1.6 4.5 1.3.8.3 1.5.7 2.3.4M432.4 240.7c.9-.1 1.7.2 2.6.6.2.1 1.7.5 2.3.4M462.3 222c0 .6.6 1.1 1.2 1.2s1.2 0 1.8-.4M460.3 218.9c-.1.4-.1.9 0 1.4M463.5 218c-.3.7-.4 1.5-.3 2.3"/><path fill="none" stroke="#000" stroke-linecap="round" stroke-linejoin="round" stroke-width=".5" d="M439.6 240.1c-.2 0 0 1.9-.7 2.8 0 0 3.6-3.2 4.7-4.5 0 0 3.1-.5 4-1.5s1-2.8 1-2.8-1.2.5-2.1 1.4c-.4.4-1.1.9-1.7 1.4-1.2 1-3.1 2.1-5.1 3.1zM435.9 301a1 1 0 1 1 0 2 1 1 0 0 1 0-2"/></g></svg>