<svg xmlns="http://www.w3.org/2000/svg" width="553.422" height="553.422" viewBox="0 0 553.422 553.422"><defs><clipPath id="a"><path d="M0 0h553.422v553.422H0Z"/></clipPath><clipPath id="b"><path d="M0 0h553.422v553.422H0Z"/></clipPath><clipPath id="c"><path d="M0 0h553.422v553.422H0Z"/></clipPath><clipPath id="d"><path d="M244.064 151.958s21.237 2.001 39.396 2.001 33.857-2.001 33.857-2.001l10.157-22.468s-24.777 2.616-49.4 2.616-45.09-3.078-45.09-3.078 9.387 9.234 11.08 22.93"/></clipPath><clipPath id="e"><path d="M0 0h553.422v553.422H0Z"/></clipPath><clipPath id="f"><path d="M280.086 157.161c-36.517 0-76.487-7.489-76.487-7.489-.154.131-5.433 4.545-14.747 8.56-11.932 5.144-30.366 9.666-30.366 9.666s46.028 14.413 113.892 14.413c68.038 0 129.033-11.258 129.033-11.258s-8.722-4.623-20.386-11.558c-11.665-6.936-17.588-12.323-17.588-12.323s-34.716 9.989-83.351 9.989"/></clipPath><clipPath id="g"><path d="M0 0h553.422v553.422H0Z"/></clipPath><clipPath id="h"><path d="M0 0h553.422v553.422H0Z"/></clipPath><clipPath id="i"><path d="M264.344 420.987c1.534 11.606 7.204 30.284 7.204 30.284-7.138.266-4.27 7.471-4.27 7.471 1.134-2.534 3.67-1.801 3.67-1.801-.801 5.803 1.4 8.204 1.4 8.204.067.667 1.276 2.462 1.276 2.462l.259-1.795c.879-1.506 1.235-7.52 1.274-8.219 0-.007.009.002.01.009.478 5.899 2.518 10.345 2.518 10.345 1.267-3.269.83-9.335.83-9.335 1.579 1.361 3.572 6.6 3.572 6.6 1.468-2.268 1.067-4.135.267-6.204-.801-2.067-5.403-7.203-5.403-7.203s-1.601-4.202-4.069-13.075-3.803-17.477-3.803-17.477l-.532-1.333-2.802-.2Z"/></clipPath><clipPath id="j"><path d="M0 0h553.422v553.422H0Z"/></clipPath><clipPath id="k"><path d="M236.35 423.736c.67 3.406 7.149 6.584 9.032 8.258 1.859 1.651 4.904 4.646 4.904 4.646s-2.736 2.89-2.736 6.4c0 2.168 1.033 3.355 1.033 3.355s.619-2.736 1.91-3.768c0 0 1.032 3.406.67 7.742 0 0 1.291.155 1.962-1.496s.791-4.23.791-4.23.706 1.339 1.015 4.23c.31 2.889.413 3.148.413 3.148s2.065-.774 2.271-3.562c.207-2.787-1.136-5.729-1.136-5.729s1.446.671 2.84 2.633 1.497 3.457 1.497 3.457 2.013-3.044-.052-6.039c-2.064-2.993-4.106-4.465-5.006-5.367-.414-.413-2.788-4.439-7.434-8.517-4.644-4.077-7.174-4.49-7.277-5.781s7.432-8.877 7.432-8.877l-3.303-2.529s-9.407 9.076-8.826 12.026"/></clipPath><clipPath id="l"><path d="M0 0h553.422v553.422H0Z"/></clipPath><clipPath id="m"><path d="M0 0h553.422v553.422H0Z"/></clipPath><clipPath id="n"><path d="M362.945 328.462c-1.344 1.376-8.919 9.298-11.294 15.533 0 0-1.063-1.766-2.447-1.305-2.202.734-4.159 5.138-4.159 5.138s-1.305-3.099-7.585 6.361c0 0-2.284-3.996-6.85 4.73 0 0-2.203-2.201-5.628 3.752 0 0-2.12-.897-4.568 2.447 0 0-2.038-2.284-7.502 4.322 0 0-4.894-.897-7.178 1.55 0 0-3.996-.897-7.666 3.262 0 0-4.322.408-3.262 3.507 0 0-4.567.735-4.322 3.018 0 0-3.915 1.223-4.975 4.159 0 0 4.404 1.876 6.688 3.67s5.627 4.078 6.279 3.507c0 0 16.149-11.826 26.995-17.942 10.847-6.117 20.797-12.315 22.673-14.272s6.362-8.891 9.542-16.883a333 333 0 0 0 5.37-14.486.066.066 0 0 0-.063-.089.07.07 0 0 0-.048.021"/></clipPath><clipPath id="o"><path d="M0 0h553.422v553.422H0Z"/></clipPath><clipPath id="p"><path d="M0 0h553.422v553.422H0Z"/></clipPath><clipPath id="q"><path d="M213.44 297.205c1.658 3.975 7.238 10 14.18 14.901 0 0-13.028-7.091-13.539-6.581s2.984 6.69 9.435 11.125c0 0-7.527-2.733-7.706-2.375s4.032 5.645 8.871 8.02l-4.346.268s2.42 5.107 12.678 9.364c0 0-6.541.268-6.541.895s1.076 5.466 13.709 8.153c0 0-8.915.672-8.87.942.045.268 4.435 4.345 9.99 5.823 0 0-5.689.404-5.734.807s3.226 3.942 6.048 5.555c0 0-6.675.493-6.72 1.164-.045.673 4.793 2.913 7.302 3.54 0 0-4.704 2.508-4.614 2.912s2.15 1.836 2.15 1.836-2.419 1.523-2.419 1.881 4.435 2.644 4.435 2.644-4.032 2.509-4.032 2.867 2.106 1.971 2.106 1.971-2.285 2.374-2.24 2.598 3.629.897 3.629.897l-1.51 3.578-19.403-.249c-.019 0-.022.027-.004.032l14.349 4.23-19.03 10.655c-.024.014-.01.052.017.045l13.538-3.343s-11.245 7.899-11.119 7.858 11.871-5.141 11.829-5.016c-.039.117-7.597 6.263-8.621 7.097-.022.017.001.047.026.037l7.634-2.954s-9.029 9.53-8.778 10.867c0 0 5.016-3.845 7.607-5.099 0 0-4.556 9.071-4.305 9.363.25.293 6.813-5.81 6.813-5.81s-2.173 4.891-2.09 5.183c.084.293 6.856-4.932 6.856-4.932s-2.384 7.817-2.3 8.067c.082.246 11.378-8.131 16.211-13.471.045-.049.117.008.087.067l-4.223 8.375a1.47 1.47 0 0 0 .355 1.776l3.173 2.72a1.76 1.76 0 0 0 1.647.355c1.161-.343 3.168-1.009 4.599-1.868 2.125-1.275 7.485-6.039 7.485-6.039s-.068 7.99.931 12.039a1.77 1.77 0 0 0 1.701 1.333l4.222.058a1.67 1.67 0 0 0 1.226-.513c.94-.976 2.958-3.139 4.168-4.921 1.616-2.382 3.573-6.635 4.423-7.23s4.679-4.764 9.187-4.253c4.508.51 12.418 5.784 11.738 15.48 0 0-6.236 2.144-9.102 6.039-3.317 4.509-2.806 7.061-2.636 9.188 0 0-5.529 7.229-4.338 13.098 0 0 7.485-4.678 13.864-12.844 0 0 11.568-9.696 11.653-23.731.085-14.034-14.647-27.99-26.368-29.261-7.06-.765-7.4-.254-7.741-1.105s-.595-7.655 3.318-13.184c3.913-5.53 9.294-10.379 8.931-17.013-.595-10.887-13.865-24.241-30.281-34.278-15.301-9.355-37.458-18.077-42.959-20.187a.4.4 0 0 0-.155-.029c-.286 0-.517.292-.397.583"/></clipPath><clipPath id="r"><path d="M0 0h553.422v553.422H0Z"/></clipPath></defs><path fill="#f79420" d="M389.566 4.254h-225.71L4.252 163.856v225.71L163.855 549.17h225.711l159.602-159.602V163.856Z"/><path fill="#ed1f27" d="M167.583 540.168 13.253 385.84V167.584l154.33-154.33h218.255l154.33 154.33V385.84l-154.33 154.33Z"/><path fill="#b3b4b4" d="M178.767 513.168 40.253 374.654V178.767L178.767 40.253h195.887l138.514 138.514v195.887L374.654 513.168Z"/><g fill="#231f20" clip-path="url(#a)"><path d="M85.347 186.037c-3.305 4.523-6.985 6.378-10.869 3.575l3.653-4.998c1.78 1.267 3.206 1.025 4.478-.716.991-1.357 1.189-3.051-.123-4.01-1.108-.81-2.12-.231-4.433 1.652l-1.281 1.04c-2.667 2.18-5.606 4.16-8.546 2.012-3.505-2.562-2.766-7.086.391-11.406 3.139-4.296 6.732-5.937 10.209-3.431l-3.636 4.974c-1.655-1.105-2.934-.826-4.025.667-.893 1.22-.958 2.734.15 3.544 1.063.777 3.078-.7 4.537-1.888l1.103-.893c2.546-2.06 5.459-4.337 8.716-1.957 4.274 3.123 2.204 8.376-.324 11.835M102.049 167.884l-5.902-5.902-4.556 4.555 5.902 5.903-4.396 4.397-14.32-14.32 4.397-4.397 5.704 5.704 4.555-4.555-5.704-5.704 4.397-4.397 14.32 14.319ZM107.277 141.225c-1.287-.376-2.357-.218-3.327.752-1.13 1.13-1.17 2.397-.495 3.942.534 1.208 1.584 2.575 2.634 3.624 2.733 2.734 5.427 4.2 7.506 2.12s.674-4.833-2.1-7.605c-1.267-1.268-2.911-2.437-4.218-2.833m12.319 5.308c.159 2.693-.95 5.387-3.446 7.883-4.694 4.694-10.041 4.22-14.617-.357-4.515-4.516-4.951-9.982-.138-14.795 4.793-4.793 10.12-4.218 14.636.297 2.239 2.238 3.427 4.536 3.565 6.972M119.498 126.984l-1.386 1.386 3.525 3.526 1.347-1.347c1.525-1.525 2.476-3.07.97-4.575-1.465-1.466-2.852-.594-4.456 1.01m14.676 8.774c-.752-.396-1.446-.89-2.14-1.386l-2.158-1.605c-1.861-1.346-2.594-1.485-4.18.1l-1.544 1.544 5.685 5.684-4.377 4.378-14.32-14.32 6.873-6.873c1.723-1.723 2.832-2.673 4.258-3.189 1.842-.653 3.704-.376 5.13 1.05 1.148 1.15 1.624 2.614 1.426 4.08-.12.911-.475 1.703-1.17 2.832 2.04-1.88 4.12-1.228 5.824-.079a74 74 0 0 1 2.95 2.12c.714.515 1.368.89 2.18 1.227ZM140.698 129.234l-14.319-14.32 4.397-4.396 14.32 14.32ZM156.25 113.681l-14.952-6.12 10.536 10.537-3.782 3.783-14.32-14.32 5.843-5.843 14.696 5.902-10.3-10.299 3.803-3.803 14.32 14.32ZM159.077 87.405l-1.386 1.386 3.525 3.526 1.347-1.347c1.525-1.525 2.476-3.07.971-4.575-1.466-1.466-2.853-.594-4.457 1.01m14.676 8.774c-.752-.396-1.446-.89-2.139-1.386l-2.159-1.605c-1.861-1.346-2.594-1.485-4.179.1l-1.545 1.544 5.685 5.684-4.377 4.378-14.32-14.32 6.873-6.873c1.723-1.723 2.832-2.673 4.258-3.189 1.842-.653 3.704-.376 5.13 1.05 1.148 1.15 1.624 2.614 1.426 4.08-.119.911-.475 1.703-1.169 2.832 2.04-1.88 4.12-1.228 5.823-.079a74 74 0 0 1 2.951 2.12c.713.515 1.367.89 2.179 1.227ZM182.012 78.724l4.475 5.635-4.868 3.865-4.562-5.745-13.678-5.655 5.218-4.144 8.437 4.277-2.1-9.31 4.714-3.742ZM204.805 74.301c-1.005 2.066-3.192 3.665-6.412 4.717-3.3 1.078-6.31 1.15-8.487-.643-1.41-1.159-2.215-2.722-2.867-4.718l-3.749-11.47 5.909-1.93 3.921 12.001c.853 2.608 1.925 3.907 4.347 3.116 2.448-.8 2.618-2.623 1.783-5.178l-3.905-11.949 5.695-1.86 3.696 11.31c.923 2.82.929 4.821.069 6.604M244.932 76.254v-15.96l-4.9 15.96h-5.18l-4.9-15.96v15.96h-5.096V56.01h8.904l4.004 14.084 3.92-14.084h8.904v20.244ZM263.358 59.734l-2.716 8.624h5.404Zm5.096 16.52-1.4-4.396h-7.364l-1.4 4.396h-5.824l7.308-20.244h7.728l7.476 20.244ZM284.088 59.902v16.352h-6.216V59.902h-6.104V56.01h18.452v3.892ZM300.13 76.702c-5.6 0-9.267-1.876-9.295-6.664h6.189c.027 2.185 1.063 3.192 3.219 3.192 1.68 0 3.164-.84 3.164-2.464 0-1.372-1.064-1.848-3.948-2.604l-1.596-.42c-3.332-.868-6.664-2.072-6.664-5.712 0-4.34 4.088-6.411 9.436-6.411 5.32 0 8.765 1.93 8.792 6.215h-6.16c-.084-1.987-1.064-2.856-2.911-2.856-1.513 0-2.773.84-2.773 2.212 0 1.316 2.38 2.073 4.2 2.548l1.372.364c3.164.84 6.72 1.848 6.72 5.88 0 5.292-5.46 6.72-9.744 6.72M329.57 74.21c-1.597 1.652-4.173 2.492-7.56 2.492-3.473 0-6.357-.868-7.869-3.248-.98-1.54-1.259-3.276-1.259-5.376V56.01h6.215v12.628c0 2.744.617 4.312 3.164 4.312 2.577 0 3.304-1.68 3.304-4.368V56.01h5.992v11.9c0 2.968-.616 4.872-1.988 6.3M354.832 77.902l2.444-15.77-7.286 15.02-5.117-.793-2.397-16.52-2.445 15.769-5.034-.78 3.1-20.001 8.797 1.363 1.799 14.528 6.03-13.315 8.797 1.364-3.1 20ZM375.94 88.798c-2.273.328-4.823-.586-7.5-2.662-2.744-2.126-4.49-4.58-4.229-7.385.17-1.818 1.012-3.361 2.298-5.02l7.392-9.536 4.912 3.807-7.735 9.979c-1.68 2.168-2.155 3.784-.14 5.345 2.034 1.578 3.64.696 5.285-1.428l7.701-9.934 4.735 3.67-7.289 9.404c-1.819 2.345-3.47 3.472-5.43 3.76M395.26 88.32l-1.387-1.386-3.525 3.525 1.347 1.347c1.525 1.525 3.07 2.475 4.575.971 1.466-1.466.594-2.853-1.01-4.457m-8.774 14.676c.396-.752.89-1.446 1.386-2.139l1.604-2.159c1.347-1.86 1.486-2.594-.1-4.179l-1.544-1.545-5.684 5.685-4.377-4.378 14.32-14.319 6.872 6.873c1.724 1.723 2.674 2.832 3.189 4.258.654 1.842.377 3.704-1.05 5.13-1.15 1.148-2.614 1.624-4.08 1.426-.91-.119-1.703-.475-2.832-1.169 1.882 2.04 1.228 4.12.08 5.823a74 74 0 0 1-2.12 2.951 10.3 10.3 0 0 0-1.228 2.18ZM410.385 103.525l-8.021 4.179 3.822 3.823Zm-8.081 15.29 2.119-4.1-5.21-5.21-4.1 2.12-4.12-4.12 19.49-9.15 5.467 5.467-9.032 19.608ZM420.604 137.749c-3.96-3.961-5.229-7.883-1.86-11.29l4.376 4.378c-1.526 1.564-1.505 3.01.02 4.536 1.188 1.188 2.831 1.643 3.981.495.97-.971.554-2.06-.952-4.635l-.832-1.426c-1.742-2.971-3.248-6.18-.672-8.754 3.07-3.07 7.426-1.644 11.21 2.139 3.762 3.763 4.833 7.566 1.822 10.616l-4.358-4.357c1.347-1.466 1.268-2.773-.04-4.08-1.069-1.07-2.554-1.367-3.525-.397-.93.93.218 3.15 1.17 4.774l.712 1.228c1.643 2.832 3.446 6.06.594 8.912-3.744 3.743-8.616.89-11.646-2.14M430.014 146.525l14.32-14.32 10.715 10.715-2.714 2.713-6.476-6.476-3.031 3.03 6.16 6.16-2.654 2.654-6.16-6.16-3.248 3.248 6.694 6.695-2.672 2.674ZM443.124 159.634l14.32-14.319 4.397 4.397-14.32 14.32ZM469.41 162.786l-11.566 11.567-4.398-4.397 11.568-11.567-4.319-4.317 2.753-2.753 13.053 13.051-2.753 2.753ZM481.415 177.775c.54-1.227.523-2.308-.312-3.396-.971-1.267-2.222-1.472-3.841-1.006-1.268.373-2.76 1.235-3.937 2.138-3.065 2.352-4.87 4.83-3.08 7.163 1.789 2.333 4.7 1.298 7.812-1.087 1.42-1.09 2.795-2.568 3.358-3.812m-6.87 11.517c-2.691-.195-5.215-1.646-7.362-4.445-4.04-5.266-2.871-10.504 2.26-14.44 5.067-3.887 10.542-3.605 14.684 1.794 4.124 5.376 2.859 10.582-2.206 14.468-2.511 1.926-4.943 2.804-7.376 2.623M85.276 402.877l5.902-5.9-4.555-4.557-5.903 5.902-4.397-4.397 14.32-14.319 4.397 4.396-5.704 5.704 4.555 4.556 5.704-5.704 4.397 4.396-14.32 14.32ZM111.924 408.096c.376-1.287.218-2.356-.752-3.327-1.13-1.129-2.397-1.169-3.942-.495-1.208.534-2.575 1.584-3.624 2.634-2.734 2.733-4.2 5.426-2.12 7.506s4.833.673 7.606-2.099c1.268-1.268 2.436-2.911 2.832-4.219m-5.308 12.319c-2.693.159-5.387-.95-7.883-3.446-4.694-4.693-4.218-10.041.357-14.616 4.516-4.517 9.982-4.952 14.795-.139 4.793 4.793 4.218 10.12-.297 14.636-2.238 2.238-4.536 3.427-6.972 3.565M117.624 435.227l5.902-5.901-4.555-4.556-5.903 5.902-4.396-4.397 14.319-14.32 4.397 4.397-5.704 5.704 4.555 4.556 5.704-5.704 4.397 4.396-14.32 14.32ZM142.739 436.971l-8.021 4.179 3.822 3.822Zm-8.081 15.29 2.12-4.1-5.21-5.209-4.1 2.12-4.12-4.121 19.49-9.15 5.466 5.467-9.031 19.607ZM148.79 466.395l6.12-14.954-10.536 10.537-3.782-3.783 14.319-14.32 5.843 5.843-5.902 14.697 10.299-10.3 3.803 3.802-14.32 14.32ZM173.415 489.769c-4.66-3.104-6.673-6.698-4.042-10.697l5.15 3.428c-1.188 1.833-.885 3.247.91 4.442 1.398.93 3.098 1.055 3.998-.297.76-1.142.14-2.128-1.842-4.355l-1.095-1.234c-2.292-2.57-4.398-5.418-2.38-8.447 2.405-3.611 6.955-3.07 11.405-.106 4.428 2.949 6.223 6.465 3.872 10.045l-5.126-3.414c1.031-1.7.697-2.966-.84-3.99-1.259-.838-2.773-.837-3.533.305-.729 1.094.832 3.043 2.083 4.447l.94 1.063c2.167 2.454 4.567 5.263 2.333 8.619-2.933 4.403-8.268 2.565-11.833.19M205.252 485.705c-.412-1.275-1.144-2.07-2.49-2.328-1.568-.299-2.638.381-3.537 1.805-.699 1.121-1.239 2.755-1.517 4.212-.725 3.795-.423 6.845 2.464 7.396s4.373-2.157 5.108-6.007c.336-1.76.38-3.774-.028-5.078m2.531 13.165c-2.138 1.644-4.988 2.24-8.452 1.578-6.517-1.243-9.127-5.93-7.914-12.283 1.196-6.269 5.47-9.699 12.152-8.424 6.654 1.271 9.172 5.997 7.975 12.267-.593 3.106-1.825 5.38-3.76 6.862M229.05 501.29l-7-11.088 6.272-9.156h7l-7 8.96 8.12 11.284Zm-13.244-20.244h6.216v20.244h-6.216ZM238.307 501.29v-20.244h15.148v3.836h-9.157v4.284h8.708v3.752h-8.708v4.592h9.464v3.78ZM268.435 501.29l-6.244-14.896v14.896h-5.348v-20.244h8.26l6.216 14.56v-14.56h5.376v20.244ZM315.305 501.29h-7.113l-3.613-15.176-3.835 15.176h-7.196l-4.871-20.244h6.103l2.913 14.588 3.444-14.588h7.11l3.726 14.308 2.632-14.308h5.683ZM335.22 501.29v-8.344h-6.44v8.344h-6.216v-20.244h6.216v8.064h6.44v-8.064h6.215v20.244ZM348.392 500.933l-3.122-20.002 6.141-.958 3.122 20ZM366.144 478.547l6.89 14.828-5.638 2.62-6.889-14.829-5.535 2.571-1.639-3.529 16.733-7.773 1.64 3.53ZM384.926 485.74l-13.823-14.782 11.06-10.344 2.62 2.8-6.686 6.253 2.926 3.129 6.358-5.947 2.563 2.74-6.36 5.946 3.136 3.353 6.91-6.461 2.582 2.759ZM412.347 459.272c-4.832 4.833-9.942 4.516-14.537-.08-4.695-4.693-5.09-10.001-.278-14.814 2.317-2.317 4.892-3.625 7.507-3.268 1.247.179 2.375.753 3.623 1.842l-4.435 4.436c-1.625-1.426-2.971-1.426-4.08-.316-2 2-.476 4.833 2.276 7.586 2.615 2.614 5.288 3.94 7.25 1.98 1.168-1.17 1.168-2.595-.219-4.22l4.457-4.455c3.13 3.684 1.981 7.764-1.565 11.309M414.578 432.996l-1.387 1.387 3.526 3.525 1.346-1.347c1.526-1.525 2.476-3.07.97-4.575-1.465-1.466-2.851-.594-4.455 1.01m14.676 8.774c-.753-.396-1.447-.89-2.14-1.386l-2.158-1.604c-1.861-1.347-2.595-1.486-4.18.1l-1.544 1.544 5.684 5.684-4.377 4.377-14.32-14.32 6.873-6.872c1.723-1.724 2.833-2.674 4.258-3.189 1.842-.654 3.705-.377 5.13 1.05 1.149 1.15 1.624 2.614 1.426 4.08-.12.91-.475 1.703-1.17 2.832 2.04-1.882 4.12-1.228 5.824-.08a74 74 0 0 1 2.952 2.12c.712.515 1.366.891 2.178 1.228ZM430.176 417.478l4.179 8.02 3.822-3.821Zm15.29 8.08-4.1-2.118-5.21 5.209 2.12 4.1-4.12 4.12-9.15-19.49 5.467-5.466 19.607 9.032ZM459.602 411.422l-14.954-6.12 10.537 10.537-3.783 3.783-14.32-14.32 5.843-5.843 14.697 5.902-10.3-10.298 3.802-3.803 14.321 14.32ZM468.39 402.635l-14.32-14.32 10.716-10.715 2.712 2.714-6.476 6.476 3.03 3.031 6.16-6.16 2.654 2.654-6.16 6.16 3.248 3.248 6.695-6.694 2.673 2.672Z"/></g><g clip-path="url(#b)"><path fill="#030404" d="M98.4 212.414c-.495.079-.48 1.47.414 3.093.881 1.599 8.588 17.733 14.696 17.733 6.812 0 9.082-3.29 9.787-5.09.704-1.8.812-6.845-.94-8.846-2.74-3.132-17.615-7.908-23.957-6.89"/><path fill="none" stroke="#231f20" stroke-miterlimit="10" stroke-width=".25" d="M98.4 212.414c-.495.079-.48 1.47.414 3.093.881 1.599 8.588 17.733 14.696 17.733 6.812 0 9.082-3.29 9.787-5.09.704-1.8.812-6.845-.94-8.846-2.74-3.132-17.615-7.908-23.957-6.89Z"/><path fill="#030404" d="M74.497 241.321s-2.999-7.282-7.025-7.282c-3.513 0-3.419 7.164-8.482 14.307-6.254 8.825-7.416 10.186-7.416 12.413s1.81 10.296 9.558 10.205c8.297-.098 13.046-17.33 13.127-17.25 0 0 7.65-.717 10.324-2.036 0 0 1.268 2.913.56 6.584-3.992 20.723-19.899 31.686-19.899 32.89 0 1.395 16.778-2.706 27.694-15.906 6.736-8.145 6.823-9.963 8.771-12.387s3.81-3.723 3.81-5.41c0-1.689-2.165-4.632-8.745-7.619 0 0-.952-.346.693-.693 1.645-.346 12.067-2.337 14.587-2.337 0 0 .585 18.59 1.528 22.578.943 3.99 1.523 15.742 27.93 15.742 12.55 0 16.394-4.497 15.814-9.285s-3.627-5.876-8.923-5.876-8.198.87-13.348.87c-3.918 0-8.5-.937-7.545-7.762 1.016-7.254 2.54-9.576 2.54-11.752s-5.877-5.73-5.877-5.73 5.66-1.307 12.405-1.307c6.747 0 8.125 1.67 8.125 2.54 0 3.264-4.425 15.088-4.425 15.886s1.088 1.38 4.062.146 10.737-3.7 16.613-4.86c5.876-1.162 10.877-.728 12.071-1.17s3.005-1.547 3.005-3.757-9.586-11.675-12.188-13.784-12.446-7.805-15.75-7.805c-3.808 0-29.434 4.82-44.282 6.863-14.849 2.043-28.77 3.69-29.312 2.984"/><path fill="none" stroke="#231f20" stroke-miterlimit="10" stroke-width=".25" d="M74.497 241.321s-2.999-7.282-7.025-7.282c-3.513 0-3.419 7.164-8.482 14.307-6.254 8.825-7.416 10.186-7.416 12.413s1.81 10.296 9.558 10.205c8.297-.098 13.046-17.33 13.127-17.25 0 0 7.65-.717 10.324-2.036 0 0 1.268 2.913.56 6.584-3.992 20.723-19.899 31.686-19.899 32.89 0 1.395 16.778-2.706 27.694-15.906 6.736-8.145 6.823-9.963 8.771-12.387s3.81-3.723 3.81-5.41c0-1.689-2.165-4.632-8.745-7.619 0 0-.952-.346.693-.693 1.645-.346 12.067-2.337 14.587-2.337 0 0 .585 18.59 1.528 22.578.943 3.99 1.523 15.742 27.93 15.742 12.55 0 16.394-4.497 15.814-9.285s-3.627-5.876-8.923-5.876-8.198.87-13.348.87c-3.918 0-8.5-.937-7.545-7.762 1.016-7.254 2.54-9.576 2.54-11.752s-5.877-5.73-5.877-5.73 5.66-1.307 12.405-1.307c6.747 0 8.125 1.67 8.125 2.54 0 3.264-4.425 15.088-4.425 15.886s1.088 1.38 4.062.146 10.737-3.7 16.613-4.86c5.876-1.162 10.877-.728 12.071-1.17s3.005-1.547 3.005-3.757-9.586-11.675-12.188-13.784-12.446-7.805-15.75-7.805c-3.808 0-29.434 4.82-44.282 6.863-14.849 2.043-28.77 3.69-29.312 2.984Z"/><path fill="#030404" d="M127.181 286.247c3.693.243 10.092 4.332 10.447 7.8.332 3.247-.983 7.926-4.192 8.078-2.899.137-15.276 2.03-15.821 2.326-.891.48 3.246 2.377 3.246 3.987 0 1.329-3.966 10.62-3.966 16.335 0 .433.672.72.961.72 5.235 0 28.72-4.37 32.466-4.37 4.803 0 18.875 4.755 18.875 15.225 0 5.523-3.794 5.763-6.1 5.763-1.681 0-12.017-2.041-22.256-2.041s-31.338.226-42.63 1.275c-13.549 1.259-24.521 4.017-28.118 4.017-7.075 0-14.629-9.653-14.629-12.65 0-1.14 1.559-1.2 1.559-1.2s7.614-.36 13.729-.84c6.116-.478 24.881-2.517 28.958-2.697 0 0-.858-17.777-1.259-20.024-.3-1.68-2.098-1.8-3.597-1.68s-11.931.9-16.547-11.27c-.512-1.348 0-1.74.899-1.86s19.712-.72 28.058-2.397c12.831-2.578 16.272-4.737 19.917-4.497"/><path fill="none" stroke="#231f20" stroke-miterlimit="10" stroke-width=".25" d="M127.181 286.247c3.693.243 10.092 4.332 10.447 7.8.332 3.247-.983 7.926-4.192 8.078-2.899.137-15.276 2.03-15.821 2.326-.891.48 3.246 2.377 3.246 3.987 0 1.329-3.966 10.62-3.966 16.335 0 .433.672.72.961.72 5.235 0 28.72-4.37 32.466-4.37 4.803 0 18.875 4.755 18.875 15.225 0 5.523-3.794 5.763-6.1 5.763-1.681 0-12.017-2.041-22.256-2.041s-31.338.226-42.63 1.275c-13.549 1.259-24.521 4.017-28.118 4.017-7.075 0-14.629-9.653-14.629-12.65 0-1.14 1.559-1.2 1.559-1.2s7.614-.36 13.729-.84c6.116-.478 24.881-2.517 28.958-2.697 0 0-.858-17.777-1.259-20.024-.3-1.68-2.098-1.8-3.597-1.68s-11.931.9-16.547-11.27c-.512-1.348 0-1.74.899-1.86s19.712-.72 28.058-2.397c12.831-2.578 16.272-4.737 19.917-4.497Z"/><path fill="#030404" d="M431.183 252.494s-.976-11.915-2.83-12.84c-1.853-.928-10.192 1.852-17.296 1.852s-10.952-.619-11.014-1.75c-.103-1.853 18.637-2.888 31.914-11.222 9.677-6.074 12.869-9.359 12.869-14.72 0-1.442 2.572-.928 2.572-.928s19.561 7.824 19.561 16.266c0 1.956-1.132 3.09-4.118 3.295s-18.015 2.78-19.355 4.53c0 0 4.64 1.03 5.464 2.882.822 1.853.692 8.793.692 8.793.284.305 13.582-4.78 15.934-5.116 2.637-.377 10.178 3.57 10.178 7.674 0 4.103-1.439 5.702-4.103 6.661-2.665.96-20.784 4.69-20.784 4.69l.746 12.63c.127.277 28.327-4.872 31.176-5.17 2.968-.31 18.918 3.73 18.918 16.253 0 6.235-4.104 6.13-5.756 6.13s-19.61-2.399-24.034-2.612c-4.422-.214-20.036-.32-20.036-.32s-.105 20.344-.33 24.148c-.224 3.803-.522 12.753-3.728 17.75s-12.008 12.232-13.351 12.83c-1.342.595-3.352.624-5.373-1.839-1.94-2.364-4.926-6.757-10.231-11.746s-10.99-8.968-11.746-9.663c-.759-.695-.507-2.652 2.777-2.337 3.284.316 6.99 2.78 10.8 3.348 3.392.506 10.541-1.437 11.936-21.788.428-6.238-.126-9.22-.126-9.22s-11.305.757-21.156 2.904c-9.853 2.148-14.841 4.117-18.82 4.168-4.863.064-11.178-6.315-13.579-10.672l.063-3.79s12.252.127 21.978-1.2 31.577-4.104 31.577-4.104-.063-9.916-.38-12.063c0 0-7.199 1.39-14.714 1.39-7.514 0-10.546-1.769-12.63-4.042-2.084-2.274-3.6-5.873-3.79-6.379s-.505-1.768 1.517-1.83c2.02-.064 22.798-1.39 28.608-2.843"/><path fill="none" stroke="#231f20" stroke-miterlimit="10" stroke-width=".25" d="M431.183 252.494s-.976-11.915-2.83-12.84c-1.853-.928-10.192 1.852-17.296 1.852s-10.952-.619-11.014-1.75c-.103-1.853 18.637-2.888 31.914-11.222 9.677-6.074 12.869-9.359 12.869-14.72 0-1.442 2.572-.928 2.572-.928s19.561 7.824 19.561 16.266c0 1.956-1.132 3.09-4.118 3.295s-18.015 2.78-19.355 4.53c0 0 4.64 1.03 5.464 2.882.822 1.853.692 8.793.692 8.793.284.305 13.582-4.78 15.934-5.116 2.637-.377 10.178 3.57 10.178 7.674 0 4.103-1.439 5.702-4.103 6.661-2.665.96-20.784 4.69-20.784 4.69l.746 12.63c.127.277 28.327-4.872 31.176-5.17 2.968-.31 18.918 3.73 18.918 16.253 0 6.235-4.104 6.13-5.756 6.13s-19.61-2.399-24.034-2.612c-4.422-.214-20.036-.32-20.036-.32s-.105 20.344-.33 24.148c-.224 3.803-.522 12.753-3.728 17.75s-12.008 12.232-13.351 12.83c-1.342.595-3.352.624-5.373-1.839-1.94-2.364-4.926-6.757-10.231-11.746s-10.99-8.968-11.746-9.663c-.759-.695-.507-2.652 2.777-2.337 3.284.316 6.99 2.78 10.8 3.348 3.392.506 10.541-1.437 11.936-21.788.428-6.238-.126-9.22-.126-9.22s-11.305.757-21.156 2.904c-9.853 2.148-14.841 4.117-18.82 4.168-4.863.064-11.178-6.315-13.579-10.672l.063-3.79s12.252.127 21.978-1.2 31.577-4.104 31.577-4.104-.063-9.916-.38-12.063c0 0-7.199 1.39-14.714 1.39-7.514 0-10.546-1.769-12.63-4.042-2.084-2.274-3.6-5.873-3.79-6.379s-.505-1.768 1.517-1.83c2.02-.064 22.798-1.39 28.608-2.843Z"/></g><g clip-path="url(#c)"><path fill="#ed1f27" d="M232.984 129.028s9.387 9.234 11.08 22.93c0 0 21.237 2.001 39.397 2.001 18.159 0 33.856-2 33.856-2l10.157-22.469s-24.777 2.616-49.4 2.616-45.09-3.078-45.09-3.078"/></g><g fill="#231f20" clip-path="url(#d)"><path d="M300.37 153.443a1 1 0 0 1-.914-1.403l8.899-20.23a1 1 0 0 1 1.318-.513 1 1 0 0 1 .512 1.318l-8.898 20.23a1 1 0 0 1-.916.598"/><path d="m321.863 143.957-.054-.001c-4.818-.255-16.145-.895-17.263-1.324-.934-.36-3.133-3.35-6.537-8.89a1 1 0 0 1 1.704-1.047c2.13 3.466 4.833 7.476 5.588 8.076 1.166.262 9.342.803 16.614 1.187a1.001 1.001 0 0 1-.052 1.999"/><path d="M310.391 136.718h.01Zm1.402 1.433c-2.788 0-2.916-.193-3.187-.6-.18-.269-.35-.525-.167-4.296a1.01 1.01 0 0 1 1.048-.95c.551.027.976.496.95 1.047-.047.962-.079 2.08-.073 2.77 1.293.061 4.075.018 5.248-.085.062-.776.04-2.36-.037-3.683a1 1 0 0 1 .94-1.056 1.01 1.01 0 0 1 1.056.941c.287 4.97-.19 5.255-.653 5.532-.204.122-.548.328-4.079.373q-.576.007-1.046.007M293.488 153.443a1 1 0 0 1-.989-.86l-1.26-8.898a1 1 0 0 1 .85-1.13.99.99 0 0 1 1.13.85l1.26 8.898a1 1 0 0 1-.99 1.14M281.232 153.443c-.484 0-.909-.352-.987-.844l-1.428-9.066a1 1 0 0 1 1.977-.312l1.427 9.066a1 1 0 0 1-.989 1.156M269.143 153.19a1 1 0 0 1-.99-.88l-1.093-9.065a1 1 0 0 1 .874-1.113 1.006 1.006 0 0 1 1.112.873l1.091 9.066a1 1 0 0 1-.994 1.12M257.981 152.351a1 1 0 0 1-.996-1.099l.923-9.318a.995.995 0 0 1 1.094-.896 1 1 0 0 1 .896 1.094l-.923 9.318a1 1 0 0 1-.994.901"/></g><g clip-path="url(#e)"><path fill="#231f20" d="M244.948 151.034c4.017.357 22.568 1.924 38.513 1.924 15.995 0 30.237-1.578 33.176-1.925l9.211-20.377c-6.06.583-27.087 2.45-47.774 2.45-19.26 0-36.159-1.904-42.536-2.722 2.816 3.414 7.974 10.817 9.41 20.65m38.513 3.924c-17.999 0-39.278-1.985-39.49-2.005l-.8-.075-.1-.798c-1.627-13.17-10.698-22.25-10.789-22.34l-2.188-2.158 3.038.457c.204.031 20.684 3.066 44.942 3.066 24.285 0 49.047-2.584 49.295-2.61l1.734-.183-11.105 24.567-.555.071c-.157.02-15.968 2.008-33.982 2.008"/><path fill="#030404" d="M202.97 143.821s48.755 9.044 86.799 8.192c46.712-1.046 71.547-9.887 73.46-10.11 1.32-.154 2.311.269 3.343 1.17 9.865 8.611 47.748 28.72 51.497 30.764 1.839 1.004 1.003 3.93-1.003 4.515-2.007.585-87.265 12.551-134.385 12.4s-52.2.592-52.2.592l-25.479 14.56-19.551-10.088 3.848-12.791s-33.799-5.824-49.607-11.856c-1.967-.751-1.352-4.68.208-5.096s30.887-5.824 44.303-11.751c13.415-5.928 18.767-10.501 18.767-10.501"/><path fill="#231f20" d="m185.6 195.753 19.399 10.009 25.464-14.541c.052-.007 5.627-.74 52.219-.594h.87c46.825 0 131.563-11.836 133.478-12.395 1.012-.295 1.802-1.266 1.92-2.36.092-.847-.251-1.55-.94-1.925-.304-.165-.831-.45-1.55-.836-33.8-18.2-45.83-26.33-49.97-29.943-1.075-.94-2.045-1.28-3.247-1.141-.256.03-.987.234-2.095.542-20.653 5.752-44.667 8.97-71.376 9.569-37.047.82-84.823-7.827-86.767-8.183-.556.457-6.117 4.899-18.752 10.48-11.424 5.049-34.375 9.72-41.917 11.256-1.31.266-2.174.442-2.403.503-.704.188-1.283 1.252-1.347 2.476-.062 1.193.368 2.084 1.15 2.383 15.616 5.958 49.246 11.79 49.584 11.849l.139.024Zm19.405 10.293-.06-.031L185.3 195.88l.03-.1 3.808-12.656c-2.39-.417-34.367-6.067-49.491-11.838-.89-.34-1.38-1.322-1.311-2.63.06-1.156.605-2.457 1.53-2.703.237-.064 1.059-.231 2.419-.508 7.535-1.533 30.466-6.2 41.867-11.237 13.239-5.851 18.682-10.436 18.736-10.482l.045-.038.059.01c.487.09 49.175 9.04 86.773 8.19 26.689-.597 50.682-3.814 71.315-9.56 1.159-.322 1.858-.517 2.133-.55 1.282-.15 2.307.21 3.44 1.202 4.13 3.605 16.147 11.72 49.925 29.91.719.388 1.246.672 1.55.838.783.427 1.173 1.218 1.07 2.17-.13 1.193-.992 2.25-2.1 2.574-1.916.559-86.702 12.406-133.547 12.406l-.87-.001c-45.057-.147-51.738.539-52.16.589Z"/><path fill="#ed1f27" d="M203.599 149.672s39.97 7.489 76.488 7.489c48.635 0 83.35-9.989 83.35-9.989s5.923 5.387 17.587 12.323c11.666 6.935 20.387 11.559 20.387 11.559s-60.994 11.257-129.033 11.257c-67.863 0-113.891-14.413-113.891-14.413s18.433-4.521 30.365-9.666c9.314-4.015 14.594-8.429 14.746-8.56"/></g><g fill="#231f20" clip-path="url(#f)"><path d="M173.69 173.903a1 1 0 0 1-.555-1.833c2.205-1.465 21.569-14.333 22.49-14.859.355-.202 1.438-.822 6.142 2.12a1 1 0 1 1-1.059 1.696c-1.692-1.058-3.594-1.967-4.196-2.016-1.412.883-13.922 9.177-22.27 14.725a1 1 0 0 1-.552.167"/><path d="M192.841 177.707a.999.999 0 0 1-.704-1.71l16.17-16.045c-1.026-.864-2.077-1.542-2.502-1.588-1.507.992-13.726 11.514-21.228 18.048a1 1 0 0 1-1.41-.098 1 1 0 0 1 .097-1.41c4.796-4.178 20.542-17.85 21.765-18.395 1.566-.693 4.07 1.385 5.427 2.684l.74.71-17.65 17.514a1 1 0 0 1-.705.29M209.37 180.594a.998.998 0 0 1-.87-1.493l10.614-18.731c-.792-.196-2.032-.33-3.164-.363l-12.162 19.204a1 1 0 1 1-1.69-1.071l12.756-20.142h.551c1.042 0 4.538.084 5.775 1.166l.612.536-11.552 20.387a1 1 0 0 1-.87.507M225.112 181.774a.999.999 0 0 1-.888-1.457c3.732-7.26 7.76-15.412 8.747-17.919-1.054-.212-3.117-.485-4.1-.55-1.29 1.571-6.381 10.541-10.75 18.615a1 1 0 0 1-1.759-.952c10.648-19.677 11.452-19.677 12.162-19.677.433 0 5.3.414 6.24 1.118.825.618 1.2.9-8.762 20.28a1 1 0 0 1-.89.542M241.75 163.118l-.002.004q0-.002.002-.004m-2.601 19.706a1 1 0 0 1-.89-1.456c3.573-6.987 7.44-14.824 8.365-17.141-1.234-.362-4.036-.767-5.08-.718-1.406 2.67-9.41 17.702-9.776 18.391a1 1 0 0 1-1.766-.94c3.356-6.302 9.755-18.329 9.959-18.737.356-.713 1.226-.739 2.169-.698.06.002 5.994.29 6.607 1.824.2.505.43 1.078-8.697 18.93a1 1 0 0 1-.891.545M256.597 183.874a1 1 0 0 1-.909-1.416c2.638-5.778 6.695-14.761 7.876-17.594-1.492-.206-4.573-.332-5.637-.2-1.126 1.293-5.63 10.073-9.479 18.116a1 1 0 0 1-1.334.47 1 1 0 0 1-.47-1.333c8.999-18.805 10.117-19.053 10.654-19.173.995-.221 7.097-.197 8.14.64l.374.3.05.56c0 .279 0 .743-8.355 19.045a1 1 0 0 1-.91.585M265.518 184.268a1 1 0 0 1-.939-1.345c6.987-19.081 7.677-19.311 8.232-19.495.315-.105 7.233-1.1 8.268.715.259.453.74 1.296-4.898 19.42a1 1 0 0 1-1.911-.594c2.313-7.433 4.669-15.69 4.949-17.751-1.134-.268-4.407-.142-5.53.053-.918 1.59-4.334 10.425-7.232 18.34a1 1 0 0 1-.94.657M279.948 184.529a.999.999 0 0 1-.921-1.388c9.047-21.553 9.633-21.905 9.984-22.115.56-.337 7.083-1.326 7.906-.09.364.547.548.822-7.638 22.294a1.004 1.004 0 0 1-1.291.578 1 1 0 0 1-.578-1.291c2.528-6.628 6.409-17.004 7.436-20.195h-.06c-1.383 0-3.811.194-4.63.397-1.04 1.807-6.168 13.769-9.286 21.198a1 1 0 0 1-.922.613M293.708 184.17a1 1 0 0 1-.927-1.376c8.986-22.133 9.843-22.562 10.254-22.767 1.24-.619 5.58-.75 6.267-.654l.457.066.269.406c.393.623.526.832-4.455 16.826-.823 2.643-1.602 5.147-1.745 5.715a1 1 0 0 1-.291.652c-.325.324-.837.39-1.23.151-.722-.437-.722-.437 1.357-7.113 1.364-4.384 3.75-12.043 4.38-14.732-1.267.041-3.291.208-3.972.418-1.105 1.658-6.321 14.106-9.437 21.782a1 1 0 0 1-.927.625M306.181 182.865a1 1 0 0 1-.904-1.427c10.804-22.829 11.225-23.165 11.45-23.345.983-.787 6.3-.31 6.35-.303l.467.067.27.421c.296.483.664 1.084-6.076 20.655a1 1 0 1 1-1.89-.65c2.578-7.489 5.316-15.862 5.98-18.582-1.211-.056-3.11-.082-3.83.02-1.112 1.993-7.016 14.338-10.912 22.572a1 1 0 0 1-.905.572M329.268 181.388a1 1 0 0 1-.916-1.4c3.544-8.134 8.682-20.027 10.092-23.53-1.565-.04-4.55.183-5.424.396-1.19 1.728-7.434 14.485-11.217 22.387a1 1 0 1 1-1.805-.863c10.877-22.72 11.635-23.097 12-23.28.88-.44 7.116-1.01 8.244-.312.336.208.536.558.536.935 0 .263 0 .752-10.592 25.066a1 1 0 0 1-.918.6M338.63 180.823q-.122 0-.245-.03a1 1 0 0 1-.726-1.214c6.272-24.92 7.132-25.206 7.76-25.416 1.022-.34 4.45-.884 5.649-.683 1.177.196 1.955.325-2.247 25.699a.999.999 0 1 1-1.972-.327c1.606-9.703 3.176-20.577 3.214-23.412-1.051.05-2.83.31-3.721.537-.925 1.915-4.105 13.604-6.743 24.09a1 1 0 0 1-.97.756M355.045 179.285q-.094 0-.19-.019a1 1 0 0 1-.794-1.17c4.798-25.018 5.416-25.533 5.749-25.81 1.136-.945 6.346-.526 6.98-.273.854.342 1.244.498-.612 25.556a.997.997 0 0 1-1.072.923 1 1 0 0 1-.922-1.07c.589-7.968 1.418-20.66 1.346-23.626-1.118-.106-3.49-.154-4.335.03-.757 2.268-3.525 16.072-5.17 24.646a1 1 0 0 1-.98.812M372.276 176.017a1 1 0 0 1-1-.982c-.346-19.233.036-19.615.405-19.984.544-.545 1.93-1.163 2.341-1.339a.999.999 0 1 1 .788 1.838c-.585.251-1.206.57-1.527.776-.214 1.934-.122 12.276-.007 18.673a1 1 0 0 1-.982 1.018ZM381.539 175.86l-3.041-18.021 1.973-.333 3.04 18.02Z"/></g><g clip-path="url(#g)"><path fill="#030404" d="M240.72 99.576s22.932 2.818 39.485 3.242c23.084.592 40.989-3.811 40.989-3.811s2.172-.47 3.229.88 4.476 7.589 9.904 12.834S346.243 123.16 350 125.04c1.342.67 1.525 1.768 1.525 2.683s-.549 2.318-2.379 2.5c0 0-11.122.254-20.834 1.424s-26.325 3.159-45.397 3.159c-40.95 0-62.158-6.042-69.733-7.02-6.231-.804-8.995-1.331-9.127-3.042-.217-2.822 3.16-3.554 5.068-4.542 1.909-.987 10.465-5.2 17.047-9.741s8.424-6.318 9.478-7.766c1.053-1.448 2.049-3.276 5.072-3.12"/><path fill="none" stroke="#231f20" stroke-miterlimit="10" stroke-width=".25" d="M240.72 99.576s22.932 2.818 39.485 3.242c23.084.592 40.989-3.811 40.989-3.811s2.172-.47 3.229.88 4.476 7.589 9.904 12.834S346.243 123.16 350 125.04c1.342.67 1.525 1.768 1.525 2.683s-.549 2.318-2.379 2.5c0 0-11.122.254-20.834 1.424s-26.325 3.159-45.397 3.159c-40.95 0-62.158-6.042-69.733-7.02-6.231-.804-8.995-1.331-9.127-3.042-.217-2.822 3.16-3.554 5.068-4.542 1.909-.987 10.465-5.2 17.047-9.741s8.424-6.318 9.478-7.766c1.053-1.448 2.049-3.276 5.072-3.12Z"/><path fill="#ed1f27" d="M210.159 216.086h-11.386v-31.994h11.386Z"/><path fill="#231f20" d="M199.773 215.086h9.386v-29.995h-9.386Zm11.386 2h-13.386v-33.995h13.386Z"/><path fill="#ed1f27" d="M215.487 264.019h-20.229v-47.934h20.229Z"/><path fill="#231f20" d="M196.259 263.019h18.229v-45.934h-18.229Zm20.228 2h-22.229v-49.934h22.229Z"/><path fill="#ed1f27" d="m366.16 211.551 6.28 5.28v46.36h-20.16v-46.32l6.25-6.81v-10.1h-32.51v12.29h7.75v50.94h-24.84v-50.94h3.7v-12.29h-63.68v12.63l5.11 7.12v43.48H233.9v-47.88l1.66-2.65v-22.06h103.98c27.729-.078 33.376-3.123 34.355-3.579l4.636 6.73c-4.34 2.91-8.78 4.46-12.37 5.28Z"/><path fill="#231f20" d="M353.281 262.191h18.16v-44.894l-6.28-5.28v-13.784l.777-.177c4.061-.928 7.82-2.468 11.187-4.584l-3.587-5.206c-5.354 2.12-17.312 3.288-33.994 3.335H236.561v21.348l-1.66 2.65v46.592h18.16v-42.158l-5.11-7.12v-13.952h65.68v14.29h-3.7v48.94h22.84v-48.94h-7.75v-14.29h34.51v11.49l-6.25 6.81Zm20.16 2h-22.16v-47.709l6.25-6.81v-8.71h-30.51v10.29h7.75v52.94h-26.84v-52.94h3.7v-10.29h-61.68v11.307l5.11 7.12v44.802h-22.16v-49.167l1.66-2.65v-22.773h104.98c23.284-.065 31.194-2.184 33.836-3.44l.096-.046.766-.357 5.69 8.26-.84.564c-3.575 2.396-7.583 4.156-11.928 5.238v11.265l6.28 5.28Z"/><path fill="#ed1f27" d="M327.483 216.079v47.069"/><path fill="#231f20" d="M328.483 263.148h-2v-47.069h2Z"/><path fill="#ed1f27" d="M366.16 211.551v51.586"/><path fill="#231f20" d="M367.161 263.138h-2v-51.586h2ZM247.522 263.233h-2v-35.686h8.474v2h-6.474ZM207.678 264.06h-2v-34.648l.417-.3c.135-.097 3.383-2.38 9.352-2.38v2c-4.129 0-6.79 1.216-7.769 1.755Z"/><path fill="#ed1f27" d="m221.906 182.914.152 10.966s14.088 3.122 21.322 2.436c7.235-.685 7.31-1.523 7.539-1.903s-5.863-10.509-5.863-10.509-3.96 5.33-10.661 5.33c-6.702 0-12.076-6.672-12.076-6.672s-.447-.054-.413.352"/><path fill="#231f20" d="M250.06 193.9q-.015.025-.028.051Zm-27.013-.832c3.027.63 14.202 2.827 20.239 2.253 4.555-.43 6.03-.919 6.496-1.15-.615-1.289-2.737-4.984-4.881-8.579-1.628 1.667-5.268 4.642-10.507 4.642-5.083 0-9.36-3.466-11.463-5.54Zm17.995 4.347c-7.558 0-18.678-2.443-19.2-2.559l-.773-.17-.163-11.732a1.29 1.29 0 0 1 .385-1.02c.43-.414.988-.385 1.147-.365l.403.05.256.315c.05.063 5.165 6.3 11.297 6.3 6.096 0 9.823-4.879 9.86-4.928l.89-1.189.769 1.271c6.4 10.644 6.232 10.925 5.863 11.54-.507.933-1.472 1.737-8.301 2.384-.75.071-1.57.103-2.433.103"/><path fill="#ed1f27" d="M306.086 183.288c.178-1.313 4.93-5.363 11.868-5.363 8.38 0 12.031 3.405 12.031 3.405s-.987 3.692-11.98 4.869c-10.037 1.076-12.008-2.253-11.919-2.911"/><path fill="#231f20" d="M307.119 183.341c.403.747 2.962 2.7 10.78 1.865 7.327-.786 9.902-2.683 10.75-3.626-1.343-.88-4.785-2.655-10.694-2.655-6.194 0-10.287 3.36-10.836 4.416m7.205 4.07c-5.193 0-7.459-1.42-8.398-2.385-.605-.622-.908-1.304-.832-1.872v-.001c.26-1.902 5.386-6.228 12.861-6.228 8.674 0 12.552 3.524 12.713 3.674l.438.409-.155.58c-.119.446-1.492 4.39-12.839 5.606a36 36 0 0 1-3.788.217"/><path fill="#ed1f27" d="M368.024 178.75c0-2.376 2.392-4.3 5.342-4.3 2.951 0 5.342 1.924 5.342 4.3 0 2.374-2.391 4.3-5.342 4.3s-5.342-1.926-5.342-4.3"/><path fill="#231f20" d="M373.366 175.45c-2.395 0-4.342 1.48-4.342 3.3s1.947 3.3 4.342 3.3 4.343-1.482 4.343-3.3c0-1.82-1.948-3.3-4.343-3.3m0 8.6c-3.497 0-6.342-2.379-6.342-5.3 0-2.923 2.845-5.3 6.342-5.3s6.343 2.377 6.343 5.3-2.846 5.3-6.343 5.3M301.282 129.777l-1.955-.42c1.09-5.076 2.987-13.708 3.458-14.492.964-1.607 7.056-.866 8.036-.498.668.25 1.91.717 1.027 14.052l-1.996-.132c.327-4.94.409-10.765.002-12.126-1.261-.305-4.497-.378-5.41-.113-.401 1.243-1.897 7.839-3.162 13.729M281.311 130.376l-1.921-.557c.917-3.163 3.956-13.563 4.586-14.585.354-.576 1.067-.776 1.572-.876 1.85-.367 6.568-.142 7.68.667.539.39 1.35.981-1.35 14.96l-1.963-.38c1.04-5.387 1.982-11.463 1.897-13.05-1.232-.358-5.237-.55-6.186-.16-.506 1.155-2.563 7.934-4.315 13.981M272.79 130.601l-1.873-.702c2.027-5.407 4.12-11.47 4.467-13.219-1.038-.355-3.832-.692-4.774-.559-1.008 1.68-7.028 13.078-7.308 13.73l-.71-.304-1.193-.298c.145-.58 7.36-14.086 7.798-14.597.297-.346.824-.699 3.329-.487 2.699.227 4.293.718 4.737 1.458.28.467.704 1.172-4.473 14.978M256.468 129.865l-1.702-1.051c3.082-4.993 6.356-10.554 7.336-12.582-1.434-.307-4.345-.613-5.167-.456-.784.964-5.503 8.43-8.359 13.029l-1.699-1.055c3.677-5.92 8.203-13.085 8.884-13.615 1.186-.922 7.558.022 8.301.765.655.654 1.015 1.014-7.594 14.965M240.525 127.983l-1.682-1.082c3.153-4.902 6.512-10.34 7.578-12.369-1.146-.18-3.246-.286-4.052-.169-1.05.805-5.966 6.892-10.236 12.472l-1.59-1.215c9.86-12.887 10.895-13.109 11.284-13.192.502-.108 5.976-.37 6.768 1.012.364.638.604 1.06-8.07 14.543"/><path fill="#ed1f24" d="M219.635 123.42s11.399-5.213 20.677-14.58c0 0 22.624 3.6 42.062 3.005 23.063-.707 38.527-3.711 38.527-3.711s4.506 6.097 7.334 8.836c2.828 2.74 9.808 8.66 9.808 8.66s-37.82 3.8-58.94 3.71c-21.118-.087-50.366-3.533-59.468-5.92"/></g><g clip-path="url(#h)"><path fill="#fff" d="m264.344 420.987 1.4-1.267 2.802.2.534 1.334s1.334 8.605 3.802 17.477 4.069 13.074 4.069 13.074 4.603 5.136 5.403 7.204 1.2 3.935-.266 6.203c0 0-1.993-5.239-3.572-6.599 0 0 .436 6.066-.831 9.334 0 0-2.04-4.446-2.518-10.346-.001-.006-.01-.015-.01-.008-.038.699-.395 6.712-1.274 8.22l-.258 1.794s-1.21-1.794-1.276-2.461c0 0-2.202-2.402-1.401-8.205 0 0-2.535-.734-3.67 1.801 0 0-2.867-7.204 4.27-7.471 0 0-5.67-18.677-7.204-30.284"/></g><g fill="#231f20" clip-path="url(#i)"><path d="M265.09 426.163a.498.498 0 0 1-.303-.897c1.262-.963 3.685-1.506 5.14-.749a.5.5 0 1 1-.462.887c-1.055-.549-3.092-.09-4.073.656a.5.5 0 0 1-.302.103M265.923 429.717a.5.5 0 0 1-.452-.712c.454-.969 2.461-1.168 3.303-1.208.792-.042 1.663-.034 2.096.486a.5.5 0 0 1-.064.705.5.5 0 0 1-.704-.066c-.059-.067-.303-.173-1.269-.127-1.269.061-2.34.385-2.457.635a.5.5 0 0 1-.453.287M267.108 434.5a.5.5 0 0 1-.49-.399.84.84 0 0 1 .187-.705c.58-.717 2.482-.993 2.826-.994.735-.004 1.726-.008 2.279.603a.5.5 0 1 1-.741.672c-.254-.282-1.001-.284-1.448-.275-.571.002-1.845.331-2.113.593-.321.181-.16.444-.398.493a.4.4 0 0 1-.102.011M268.337 439.282a.5.5 0 0 1-.312-.892c1.381-1.096 3.5-1.096 4.986-.61a.5.5 0 0 1-.312.95c-1.19-.39-2.968-.419-4.05.443a.5.5 0 0 1-.312.108M269.565 444.24a.5.5 0 0 1-.295-.903c1.111-.813 3.47-1.176 5.076-.398a.5.5 0 0 1-.437.9c-1.23-.595-3.187-.326-4.05.304a.5.5 0 0 1-.294.097M270.882 449.548a.5.5 0 0 1-.29-.909c1.338-.94 3.397-1.616 5.17-.693a.5.5 0 0 1-.461.887c-1.376-.719-3.036-.148-4.131.624a.5.5 0 0 1-.288.091M274.134 452.318c-.667 0-2.143-.085-2.929-.791a.5.5 0 0 1 .668-.744c.465.417 1.617.57 2.497.53.531-.022 1.024-.165 1.545-.315.24-.07.482-.14.73-.2a.497.497 0 0 1 .601.372.5.5 0 0 1-.37.602q-.347.085-.683.187c-.555.16-1.129.325-1.78.354a8 8 0 0 1-.279.005M270.948 457.44a.5.5 0 0 1-.497-.564c.184-1.413-1.286-3.23-2.807-3.472a.5.5 0 0 1 .157-.988c2.056.328 3.894 2.643 3.643 4.589a.5.5 0 0 1-.496.436M272.527 462.186c-.54 0-.894-.22-1.182-.396-.17-.105-.316-.195-.483-.232a.5.5 0 1 1 .215-.976c.332.073.576.223.792.356.255.156.428.252.704.247.776-.036 1.582-.121 2.22-.501a.5.5 0 1 1 .511.859c-.827.494-1.78.599-2.686.64zM277.449 465.143c-.517 0-1.056-.184-1.503-.434a.5.5 0 0 1-.193-.68.5.5 0 0 1 .681-.193c.507.284 1.194.445 1.505.129a.503.503 0 0 1 .708-.005.5.5 0 0 1 .005.708c-.337.34-.762.475-1.203.475M273.353 465.62c-.443 0-.837-.197-1.223-.389l-.32-.155a.5.5 0 1 1 .423-.906l.342.166c.646.32.84.416 1.329.028a.5.5 0 1 1 .624.781c-.438.35-.822.474-1.175.474M280.446 461.79a.5.5 0 0 1-.312-.892c.174-.139.378-.253.59-.368.252-.137.491-.265.668-.458l.2-.209c.197-.203.306-.315.41-.565a.503.503 0 0 1 .654-.27c.255.107.375.4.27.655-.178.425-.392.645-.619.877l-.179.19c-.29.314-.628.498-.927.66-.158.085-.313.166-.443.27a.5.5 0 0 1-.312.11"/></g><g clip-path="url(#j)"><path fill="#231f20" d="m275.623 457.074.042.493c.314 3.865 1.32 7.125 1.95 8.852.715-3.227.405-7.718.402-7.77l-.086-1.2.91.785c1.233 1.062 2.64 4.19 3.316 5.81.705-1.598.432-3.041-.27-4.854-.757-1.96-5.263-7-5.308-7.051l-.095-.156c-.016-.042-1.638-4.326-4.084-13.118-2.343-8.424-3.684-16.711-3.805-17.477l-.397-.992-2.276-.162-1.048.947c1.56 11.454 7.096 29.76 7.152 29.945l.189.62-.65.025c-1.83.069-3.098.623-3.767 1.649-.83 1.27-.616 3.028-.357 4.123 1.134-1.332 2.796-1.328 3.646-1.082l.415.12-.06.428c-.752 5.459 1.257 7.779 1.277 7.8l.109.123.018.163c.019.187.215.603.48 1.075l.125-.61c.663-1.136 1.07-5.56 1.207-7.995l.026-.455Zm2.1 12.156-.493-1.073c-.063-.138-1.177-2.6-1.945-6.276-.205 1.653-.502 3.293-.92 4.093l-.43 2.988-.725-1.075c-.2-.296-1.14-1.72-1.33-2.523-.433-.554-2.06-3.01-1.488-8.012-.666-.061-1.965.048-2.657 1.594l-.483 1.08-.438-1.1c-.06-.147-1.422-3.645.144-6.05.77-1.182 2.09-1.874 3.932-2.061-.98-3.301-5.675-19.417-7.042-29.762l-.035-.26 1.754-1.587 3.327.236.68 1.736c.013.085 1.359 8.679 3.79 17.419 2.243 8.065 3.785 12.306 4.023 12.946.582.653 4.652 5.267 5.433 7.286.757 1.954 1.355 4.078-.313 6.655l-.536.829-.352-.923c-.417-1.097-1.506-3.68-2.54-5.287.047 2.047-.02 5.685-.928 8.026Z"/><path fill="#fff" d="M245.176 411.71s-9.407 9.076-8.826 12.026c.671 3.406 7.148 6.584 9.032 8.259 1.859 1.65 4.904 4.644 4.904 4.644s-2.736 2.892-2.736 6.4c0 2.168 1.033 3.356 1.033 3.356s.619-2.736 1.909-3.769c0 0 1.033 3.408.671 7.744 0 0 1.291.154 1.962-1.498s.792-4.23.792-4.23.705 1.34 1.014 4.23.413 3.148.413 3.148 2.065-.774 2.271-3.56c.207-2.787-1.135-5.73-1.135-5.73s1.445.671 2.839 2.632 1.496 3.458 1.496 3.458 2.013-3.045-.051-6.038-4.105-4.466-5.007-5.368c-.413-.413-2.787-4.44-7.432-8.517s-7.175-4.49-7.278-5.78 7.432-8.879 7.432-8.879Z"/></g><g fill="#231f20" clip-path="url(#k)"><path d="M245.425 417.94a.5.5 0 0 1-.177-.031c-.75-.283-1.324-.591-1.755-.941a3.6 3.6 0 0 1-.883-1.031 3.6 3.6 0 0 1-.229-.544c-.067-.187-.13-.364-.212-.473a.5.5 0 1 1 .798-.602c.175.23.271.5.356.739.05.138.096.276.163.398.144.26.364.516.636.736.347.28.831.537 1.48.782a.502.502 0 0 1-.177.968M242.81 420.66a.5.5 0 0 1-.11-.012c-.74-.165-1.442-.585-2.03-1.216a5.4 5.4 0 0 1-.653-.84 3 3 0 0 1-.198-.41c-.059-.142-.12-.289-.185-.353a.5.5 0 1 1 .705-.709c.204.204.31.454.402.675.04.094.078.19.128.271a4.4 4.4 0 0 0 .532.684c.45.482.974.802 1.516.922.27.06.44.327.38.596a.5.5 0 0 1-.488.392M236.304 423.63a.5.5 0 0 1-.46-.696c.406-.95 2.254-1.35 2.958-1.275a.5.5 0 0 1 .442.552.493.493 0 0 1-.551.442c-.59-.068-1.794.358-1.929.673a.5.5 0 0 1-.46.304M239.23 427.923a.5.5 0 0 1-.467-.678c.24-.636.45-1.186 1-1.824.522-.602 1.56-1.146 2.312-1.215a.499.499 0 1 1 .09.996c-.496.045-1.296.47-1.646.873-.414.48-.575.872-.823 1.526a.5.5 0 0 1-.467.322M241.983 429.885a.5.5 0 0 1-.486-.619c.027-.108.045-.212.063-.313.05-.279.107-.595.3-.933a4.6 4.6 0 0 1 1.028-1.25c.507-.435 1.185-.935 1.943-.948.256-.033.504.214.51.491a.5.5 0 0 1-.492.51c-.439.006-.93.38-1.31.706-.33.282-.596.604-.81.984-.108.19-.142.378-.185.617a5 5 0 0 1-.076.374.5.5 0 0 1-.485.381M245.15 431.986a.5.5 0 0 1-.446-.726l.095-.192c.283-.565.574-1.15 1.144-1.645.6-.523 1.427-.948 2.162-1.111a.5.5 0 0 1 .216.977c-.572.127-1.248.475-1.72.887-.422.366-.646.817-.907 1.338l-.098.198a.5.5 0 0 1-.447.274M247.766 434.636a.5.5 0 0 1-.467-.679c.274-.717.766-1.346 1.547-1.979.014-.012 1.617-1.132 2.35-.943a.501.501 0 0 1-.25.969c-.212.013-1.195.528-1.471.751-.647.525-1.03 1.005-1.242 1.56a.5.5 0 0 1-.467.321M258.23 444.343l-.053-.003a.5.5 0 0 1-.444-.55c.11-1.036 1.209-2.073 2.259-2.133.275-.029.51.195.528.471a.5.5 0 0 1-.471.528c-.57.033-1.261.681-1.321 1.241a.5.5 0 0 1-.497.446M259.849 446.512a.499.499 0 0 1-.484-.627 1.71 1.71 0 0 1 .957-1.152c.958-.457 1.4-.121 1.58.119a.5.5 0 0 1-.103.7.5.5 0 0 1-.65-.046 1.2 1.2 0 0 0-.397.129.7.7 0 0 0-.42.504.5.5 0 0 1-.483.373M254.478 446.305a.5.5 0 0 1-.475-.655c.254-.776 1-1.343 1.561-1.594.153-.067 1.038-.363 1.56-.126a.68.68 0 0 1 .38.42.5.5 0 0 1-.845.488c-.176.011-.553.072-.689.132-.477.213-.896.62-1.017.99a.5.5 0 0 1-.475.345M254.89 448.853a.5.5 0 0 1-.498-.476c-.043-.866.844-1.596 1.374-1.891.506-.28 1.475-.448 1.945.092a.5.5 0 1 1-.752.658c-.08-.042-.466-.01-.707.124-.471.263-.874.715-.861.969a.5.5 0 0 1-.475.523z"/><path d="M253.86 445.273a.5.5 0 0 1-.454-.288c-.046-.098-.322-.247-.793-.275-.57-.033-.989.13-1.05.23a.5.5 0 0 1-.916-.4c.323-.754 1.431-.83 1.763-.834.727 0 1.598.207 1.901.855a.5.5 0 0 1-.452.712M253.377 447.82a.5.5 0 0 1-.4-.2c-.089-.117-.382-.244-.72-.254-.26-.014-.502.06-.598.174a.5.5 0 0 1-.764-.647c.298-.351.81-.524 1.391-.527.493.015 1.144.193 1.49.653a.5.5 0 0 1-.399.8M250.178 437.248a.498.498 0 0 1-.375-.83c.678-.772 1.158-1.167 1.901-1.568.768-.415 2.226-.87 2.816.047a.5.5 0 1 1-.84.541c-.12-.186-.892-.037-1.5.291-.642.346-1.022.662-1.627 1.35a.5.5 0 0 1-.375.17M256.924 443.773a.5.5 0 0 1-.453-.287c-.195-.416-.89-1.022-1.15-1.25-.534-.464-.847-.951-1.21-1.516l-.286-.44a.5.5 0 0 1 .832-.554l.295.453c.335.522.6.933 1.025 1.304.58.504 1.15 1.045 1.4 1.577a.5.5 0 0 1-.453.713"/></g><g clip-path="url(#l)"><path fill="#231f20" d="m255.061 452.66-.182-.454c-.106-.266-.3-1.93-.445-3.28a19 19 0 0 0-.295-1.894c-.124.685-.3 1.412-.55 2.028-.807 1.983-2.418 1.817-2.486 1.805l-.479-.057.041-.48a23.4 23.4 0 0 0-.432-6.662c-.625.926-1.036 2.281-1.163 2.84l-.219.96-.646-.743c-.047-.055-1.155-1.356-1.155-3.683 0-2.96 1.795-5.455 2.55-6.372-.843-.823-3.083-2.996-4.55-4.3-.49-.437-1.339-.999-2.32-1.65-2.677-1.777-6.344-4.21-6.87-6.886-.617-3.127 7.986-11.534 8.97-12.483l.308-.298 4.096 3.136-.4.404c-3.445 3.468-7.21 7.707-7.289 8.505.033.387.685.8 1.767 1.482 1.206.762 3.03 1.913 5.342 3.943 3.723 3.268 6.016 6.52 6.995 7.91.198.278.402.568.461.628.2.2.456.427.757.695 1.067.948 2.678 2.381 4.308 4.743 2.231 3.235.147 6.463.057 6.6l-.815 1.231-.1-1.474c-.002-.01-.125-1.399-1.406-3.202a9.5 9.5 0 0 0-1.406-1.583c.358 1.154.728 2.804.608 4.427-.227 3.07-2.497 3.956-2.594 3.992Zm-1.558-9.875.855 1.624c.031.06.754 1.458 1.07 4.41.131 1.22.224 1.961.287 2.408.535-.407 1.286-1.247 1.401-2.805.194-2.62-1.079-5.457-1.092-5.486l-.558-1.228 1.224.568c.064.03 1.582.75 3.036 2.797a10 10 0 0 1 1.22 2.258c.333-1.058.51-2.666-.594-4.266-1.562-2.263-3.119-3.648-4.149-4.564a19 19 0 0 1-.8-.735c-.11-.11-.256-.313-.57-.76-.959-1.36-3.205-4.544-6.838-7.733-2.254-1.978-3.967-3.06-5.217-3.849-1.345-.85-2.157-1.363-2.23-2.268-.104-1.297 4.698-6.35 7.176-8.866l-2.509-1.922c-3.562 3.485-8.749 9.372-8.375 11.271.447 2.266 3.912 4.566 6.443 6.246 1.013.671 1.888 1.252 2.431 1.735 1.847 1.641 4.891 4.633 4.922 4.663l.35.343-.337.357c-.026.028-2.599 2.794-2.599 6.057 0 .875.184 1.575.387 2.082.33-.94.9-2.21 1.743-2.886l.576-.46.215.706c.041.136.96 3.226.734 7.3.301-.128.682-.422.956-1.099.63-1.55.754-4.039.755-4.064Z"/></g><g clip-path="url(#m)"><path fill="#fff" d="M298.476 392.113s16.148-11.826 26.995-17.942c10.847-6.117 20.797-12.315 22.673-14.273 1.875-1.957 6.361-8.889 9.542-16.882a334 334 0 0 0 5.37-14.486c.024-.068-.06-.119-.11-.067-1.345 1.375-8.92 9.298-11.295 15.532 0 0-1.063-1.766-2.447-1.305-2.202.734-4.159 5.138-4.159 5.138s-1.305-3.099-7.585 6.361c0 0-2.284-3.996-6.85 4.731 0 0-2.203-2.202-5.628 3.751 0 0-2.12-.897-4.567 2.447 0 0-2.039-2.284-7.504 4.322 0 0-4.893-.897-7.177 1.55 0 0-3.996-.897-7.666 3.262 0 0-4.322.408-3.262 3.507 0 0-4.567.734-4.323 3.018 0 0-3.914 1.223-4.974 4.159 0 0 4.404 1.876 6.687 3.67s5.628 4.078 6.28 3.507"/></g><g clip-path="url(#n)"><path fill="#ed1f27" d="M284.106 385.898s1.522-3.262 2.99-4.186c1.468-.925 9.787-1.85 13.593 1.033 3.806 2.88 5.165 5.545 5.165 5.545l-7.666 5.872s-7.612-5.111-9.026-6.035-5.056-2.23-5.056-2.23"/><path fill="#231f20" d="m291.385 390.183 1.456-3.295 1.788-.167-.521-1.155s3.353-1.118 4.695-.708l.149-1.975s2.438-.056 3.205.633c0 0 .919-2.407 1.378-2.944 0 0 .416 1.182 1.719 1.719 0 0 .996-3.218 1.149-3.755 0 0 1.763 1.226 2.222 1.992 0 0-.028-2.133.202-2.9 0 0 1.178.893 1.714.969 0 0 .433-2.925.969-3.614 0 0 .487 1.79 1.33 2.634 0 0 .153-2.606.919-3.448 0 0 1.082.874 1.925 1.41 0 0 .604-2.406 1.447-2.866l1.149 1.456s.613-1.073 1.149-1.533c0 0 .996 1.686 2.146 2.375 0 0 2.682-4.52 2.988-4.52s.69.459.69.459 1.072-2.605 1.992-3.141c0 0-.077 2.682 1.073 2.988 0 0 3.524-3.371 4.137-4.291 0 0 .537 1.226 1.303 1.303l1.609-2.376s.536.69.92.537c.383-.153 2.452-3.678 2.452-3.678s.383 1.149 1.072.996 2.069-2.222 2.069-2.222l1.379-.23s1.916-1.38 3.295-3.678c0 0 .92.536 2.299-.153s5.44-6.896 6.053-7.28c.613-.383 0 0 0 0l1.226.997-5.363 10.957-16.704 11.034-26.666 16.09-8.581 6.207Z"/><path fill="#231f20" d="M346.278 359.072a.499.499 0 0 1-.486-.617c1.417-5.9 5.365-14.581 5.404-14.668a.501.501 0 0 1 .91.416c-.039.086-3.948 8.68-5.342 14.486a.5.5 0 0 1-.486.383M338.203 364.89a.5.5 0 0 1-.479-.644c.33-1.098 6.593-15.98 6.86-16.612a.5.5 0 0 1 .922.389c-2.25 5.344-6.573 15.673-6.824 16.512a.5.5 0 0 1-.48.356M332.114 368.13a.5.5 0 0 1-.474-.66c1.565-4.639 5.661-14.52 5.702-14.618a.5.5 0 1 1 .923.382c-.04.1-4.124 9.95-5.677 14.555a.5.5 0 0 1-.474.34M326.787 370.304a.5.5 0 0 1-.497-.562c.548-4.384 3.737-10.777 3.872-11.047a.5.5 0 1 1 .895.449c-.034.064-3.248 6.509-3.775 10.723a.5.5 0 0 1-.495.437M321.839 369.652a.5.5 0 0 1-.477-.651c.389-1.224 3.199-6.552 3.318-6.78a.501.501 0 0 1 .885.468c-.802 1.52-2.95 5.669-3.25 6.614a.5.5 0 0 1-.476.349M317.652 370.25a.5.5 0 0 1-.464-.686c.557-1.393 2.721-4.592 2.813-4.727a.503.503 0 0 1 .694-.134.5.5 0 0 1 .134.694c-.023.033-2.196 3.245-2.713 4.54a.5.5 0 0 1-.464.313M308.79 373.621a.5.5 0 0 1-.37-.162c-1.113-1.217-3.2-2.218-3.222-2.229a.5.5 0 1 1 .43-.902c.093.044 2.283 1.093 3.53 2.455a.5.5 0 0 1-.368.838M304.712 375.742a.5.5 0 0 1-.158-.025c-2.508-.837-6.461-.963-6.5-.964a.5.5 0 0 1-.486-.515c.008-.276.232-.48.515-.485.168.005 4.139.132 6.787 1.014a.502.502 0 0 1-.158.975M301.288 378.786a.4.4 0 0 1-.088-.008c-1.804-.318-7.425-.755-7.48-.76a.5.5 0 0 1-.46-.536c.02-.276.286-.494.536-.46.233.018 5.726.445 7.578.772a.5.5 0 0 1-.086.992M297.155 381.667a.5.5 0 0 1-.187-.036c-3.69-1.485-6.646-.25-6.676-.238a.499.499 0 1 1-.398-.917c.134-.06 3.351-1.42 7.448.227a.5.5 0 0 1-.187.964"/></g><g clip-path="url(#o)"><path fill="#231f20" d="m298.226 391.686-.033.018.016-.003Zm-12.063-7.01c1.2.536 4.446 2.047 6.341 3.536 3.196 2.51 5.234 3.514 5.685 3.492.434-.32 16.381-11.96 27.037-17.97 11.304-6.373 20.79-12.337 22.556-14.181 1.661-1.734 6.135-8.42 9.44-16.721a339 339 0 0 0 4.702-12.568c-2.679 2.898-7.919 8.954-9.806 13.908l-.363.954-.532-.873c-.009-.014-.884-1.418-1.86-1.088-1.633.543-3.34 3.698-3.862 4.867l-.469 1.055-.449-1.064c-.008-.016-.095-.165-.338-.18-.45-.052-2.22.373-6.369 6.623l-.449.676-.402-.704c-.014-.024-.43-.687-1.166-.661-.755.02-2.384.745-4.807 5.374l-.315.603-.482-.481c-.008-.008-.36-.33-.999-.233-.803.12-2.122.892-3.84 3.88l-.22.384-.409-.172c-.067-.027-1.816-.662-3.969 2.28l-.364.5-.413-.461s-.245-.245-.843-.212c-.843.043-2.732.688-5.9 4.52l-.188.226-.288-.052c-.046-.01-4.654-.817-6.723 1.398l-.193.208-.28-.061c-.154-.035-3.77-.763-7.183 3.105l-.13.148-.197.019c-.569.055-2.17.396-2.75 1.294-.272.422-.3.93-.087 1.553l.192.56-.585.095c-1.063.173-4.063.996-3.906 2.472l.044.407-.392.123c-.034.01-3.298 1.062-4.469 3.422m12.057 8c-1.098 0-3.22-1.231-6.333-3.677-2.204-1.732-6.53-3.584-6.575-3.603l-.435-.186.161-.444c.95-2.627 3.91-3.951 4.942-4.342.16-1.925 2.994-2.774 4.208-3.051-.128-.698-.015-1.326.34-1.873.812-1.26 2.673-1.63 3.292-1.72 3.262-3.594 6.728-3.454 7.741-3.325 2.18-2.071 6.045-1.704 7.148-1.552 2.574-3.064 4.771-4.633 6.534-4.666.453 0 .806.09 1.056.208 1.907-2.39 3.651-2.467 4.44-2.348 1.493-2.5 2.977-3.862 4.416-4.053.506-.07.94.029 1.263.17 1.942-3.578 3.77-5.407 5.433-5.437a2.3 2.3 0 0 1 1.558.59c3.035-4.473 5.357-6.668 6.952-6.517.203.02.378.075.527.15.652-1.29 2.283-4.16 4.157-4.785 1.057-.347 1.933.253 2.466.802 2.687-6.135 9.653-13.448 11.076-14.904l.282-.288.425.204c.226.14.322.414.235.665a337 337 0 0 1-5.378 14.507c-3.098 7.785-7.593 14.9-9.647 17.044-2.068 2.159-13.029 8.858-22.788 14.36-10.575 5.965-26.419 17.527-26.933 17.902q-.21.17-.563.169"/></g><g clip-path="url(#p)"><path fill="#fff" d="m249.019 402.617-4.224 8.374a1.47 1.47 0 0 0 .356 1.777l3.173 2.72a1.76 1.76 0 0 0 1.646.355c1.161-.344 3.169-1.009 4.599-1.868 2.127-1.276 7.485-6.039 7.485-6.039s-.067 7.99.932 12.04a1.77 1.77 0 0 0 1.701 1.332l4.222.058a1.67 1.67 0 0 0 1.226-.513c.94-.976 2.959-3.139 4.168-4.92 1.616-2.383 3.572-6.636 4.423-7.23.851-.597 4.678-4.765 9.186-4.254 4.509.51 12.419 5.784 11.739 15.481 0 0-6.235 2.143-9.102 6.04-3.317 4.507-2.807 7.06-2.637 9.185 0 0-5.528 7.23-4.338 13.1 0 0 7.486-4.679 13.865-12.845 0 0 11.568-9.696 11.653-23.73.085-14.036-14.647-27.99-26.368-29.262-7.06-.765-7.4-.255-7.741-1.105s-.595-7.656 3.318-13.185c3.912-5.528 9.294-10.378 8.931-17.01-.595-10.889-13.865-24.243-30.281-34.28-15.301-9.355-37.458-18.078-42.959-20.187-.347-.133-.694.211-.551.554 1.657 3.975 7.237 10 14.179 14.901 0 0-13.029-7.09-13.539-6.58s2.984 6.688 9.435 11.124c0 0-7.526-2.733-7.706-2.375-.179.36 4.032 5.645 8.871 8.02l-4.346.268s2.419 5.107 12.678 9.363c0 0-6.541.27-6.541.896 0 .627 1.076 5.465 13.709 8.153 0 0-8.915.672-8.87.941.045.27 4.435 4.346 9.99 5.824 0 0-5.69.403-5.734.806-.045.404 3.225 3.943 6.048 5.555 0 0-6.676.493-6.72 1.165-.045.672 4.793 2.912 7.302 3.54 0 0-4.704 2.508-4.614 2.911.089.404 2.15 1.837 2.15 1.837s-2.419 1.523-2.419 1.882c0 .358 4.435 2.643 4.435 2.643s-4.032 2.51-4.032 2.867 2.106 1.971 2.106 1.971-2.285 2.374-2.24 2.598 3.628.896 3.628.896l-1.509 3.58-19.402-.25c-.019 0-.023.026-.005.032l14.349 4.23-19.03 10.655c-.025.014-.01.051.017.044l13.537-3.343s-11.244 7.9-11.118 7.86c.125-.043 11.871-5.143 11.829-5.017-.039.117-7.597 6.263-8.621 7.096-.022.017.001.048.026.04l7.634-2.956s-9.029 9.53-8.778 10.867c0 0 5.016-3.845 7.607-5.099 0 0-4.556 9.07-4.305 9.363s6.813-5.81 6.813-5.81-2.173 4.89-2.09 5.183 6.855-4.932 6.855-4.932-2.382 7.816-2.299 8.067c.082.246 11.378-8.13 16.211-13.47.045-.05.117.006.087.066"/></g><g clip-path="url(#q)"><path fill="#ed1f27" d="m287.196 435.31 4.855-1.067s1.18-4.066 3.908-6.098c3.019-2.25 5.15-2.546 5.15-2.546l-2.664-6.63s-7.158 2.901-9.77 7.4c-2.782 4.795-1.657 8.526-1.48 8.94M294.123 409.08s-.06-7.697-.296-8.408c0 0 3.138 5.744 4.677 8.408 0 0 1.895-2.19 2.013-2.9 0 0 .889 5.564 1.007 7.163 0 0 2.19-3.849 2.25-5.506 0 0 1.125 6.157 1.539 6.513.415.355 2.665-6.454 4.322-7.224 0 0 .77 2.724.356 5.98s-2.31 5.151-3.257 5.092-9.118-4.737-10.124-7.046-2.487-2.072-2.487-2.072"/><path fill="#030404" d="M291.695 434.776s1.007-4.737 3.434-6.69 5.447-2.842 5.447-2.842l-2.427-5.92s1.031-1.906-.356-5.389c-2.309-5.803-6.276-7.993-6.276-7.993s3.277-.68 9.651 6.986c4.086 4.915 5.447 4.026 6.632 2.605s2.072-4.203 2.072-4.203.414 9.887-4.678 16.52c-5.09 6.63-6.927 7.873-6.927 7.873s-.828-1.36-3.434-1.36c-1.539 0-3.138.413-3.138.413"/><path fill="#030404" d="M294.834 433.862c1.919 0 2.985.695 3.489 1.17.73-.645 2.708-2.58 6.476-7.487 3.307-4.307 4.236-10.1 4.489-13.462-.317.636-.691 1.276-1.104 1.77-.562.675-1.217 1.3-2.202 1.3h-.001c-1.35-.001-2.953-1.205-5.197-3.904-3.14-3.78-5.496-5.47-7.033-6.224 1.38 1.279 3.198 3.436 4.508 6.726 1.196 3.007.68 4.938.433 5.579l2.558 6.236-.531.157c-.03.009-2.96.888-5.276 2.753-1.694 1.364-2.674 4.259-3.063 5.64.63-.118 1.546-.254 2.454-.254m3.279 2.57-.273-.448c-.026-.04-.751-1.122-3.006-1.122-1.455 0-2.998.396-3.014.399l-.782.203.168-.79c.043-.202 1.073-4.936 3.61-6.977 1.893-1.524 4.103-2.41 5.095-2.76l-2.314-5.642.113-.21c.007-.013.888-1.777-.381-4.965-2.208-5.548-6.016-7.72-6.054-7.74l-1.172-.654 1.313-.273c.148-.033 3.648-.65 10.138 7.157 1.953 2.35 3.443 3.542 4.428 3.543.542 0 .95-.36 1.434-.94 1.107-1.328 1.97-4.007 1.98-4.035l.857-2.683.119 2.815c.017.41.363 10.146-4.78 16.844-5.082 6.62-6.966 7.932-7.044 7.984Z"/><path fill="#231f20" d="M285.141 360.673a.55.55 0 0 1-.343-.126c-.648-.549-4.329-10.086-4.526-13.37-.199-3.316 2.514-5.477 3.695-6.255a.511.511 0 0 1 .771.135c.128.228.003.554-.216.697-1.034.68-3.42 2.565-3.252 5.362.192 3.203 3.674 11.83 4.205 12.69a.5.5 0 0 1-.334.867"/><path fill="#231f20" d="M281.258 365.6a.5.5 0 0 1-.247-.06c-.621-.332-3.216-6.35-3.484-10.97-.284-4.877 2.78-7.68 2.912-7.796a.5.5 0 0 1 .667.745c-.03.025-2.835 2.612-2.581 6.992.254 4.39 2.529 9.47 3.027 10.182a.5.5 0 0 1-.294.908"/><path fill="#231f20" d="M280.137 367.291a.5.5 0 0 1-.233-.059c-.251-.132-6.142-3.319-5.472-8.53.349-2.719 3.228-3.81 3.35-3.856a.499.499 0 0 1 .346.937c-.024.01-2.434.935-2.705 3.045-.58 4.523 4.894 7.492 4.949 7.522a.499.499 0 0 1-.235.941"/><path fill="#231f20" d="M277.207 370.758a.5.5 0 0 1-.293-.096c-2.76-2.007-4.636-3.894-4.824-6.586-.194-2.783 2.168-4.618 2.268-4.695a.5.5 0 0 1 .608.794c-.02.016-2.034 1.594-1.878 3.831.161 2.315 1.808 3.953 4.413 5.848a.5.5 0 0 1-.294.904"/><path fill="#231f20" d="M275.609 375.258a.5.5 0 0 1-.226-.055c-.184-.092-4.515-2.332-5.354-6.14-.843-3.829 2.306-5.453 2.337-5.469a.5.5 0 0 1 .45.893c-.103.052-2.483 1.306-1.81 4.361.736 3.342 4.79 5.443 4.83 5.465a.5.5 0 0 1-.227.945"/><path fill="#231f20" d="M275.254 382.185a.5.5 0 0 1-.213-.048c-3.253-1.535-7.546-4.077-7.272-8.417.192-3.044 2.365-4.632 2.458-4.697a.499.499 0 0 1 .583.812c-.02.013-1.882 1.392-2.043 3.948-.18 2.84 1.95 5.208 6.7 7.45a.501.501 0 0 1-.213.952"/><path fill="#231f20" d="M272.414 390.898a.5.5 0 0 1-.33-.124c-.188-.166-4.623-4.117-5.078-9.022-.328-3.536 1.147-5.823 1.21-5.918a.5.5 0 0 1 .836.548c-.013.022-1.344 2.109-1.05 5.279.418 4.503 4.7 8.324 4.743 8.362a.499.499 0 0 1-.331.875"/><path fill="#231f20" d="M271.776 395.71c-.1 0-.201-.03-.29-.094-4.08-2.897-6.456-6.237-6.69-9.405-.251-3.402 2.088-5.44 2.188-5.524a.499.499 0 0 1 .65.76c-.021.018-2.054 1.806-1.84 4.69.21 2.865 2.439 5.942 6.272 8.665a.499.499 0 0 1-.29.907M262.055 408.437a.499.499 0 0 1-.372-.834c.013-.015 1.273-1.418 2.252-2.664a.5.5 0 0 1 .703-.085.5.5 0 0 1 .084.702 63 63 0 0 1-2.295 2.715.5.5 0 0 1-.373.166M271.199 420.489a.5.5 0 0 1-.407-.21c-1.058-1.48-4.081-3.156-4.112-3.174a.5.5 0 0 1-.196-.678.496.496 0 0 1 .679-.197c.132.072 3.252 1.803 4.442 3.468a.5.5 0 0 1-.406.79M273.701 417.987a.5.5 0 0 1-.434-.251c-.651-1.131-2.907-2.546-3.721-2.996a.5.5 0 0 1-.196-.68.495.495 0 0 1 .679-.195c.13.07 3.181 1.768 4.105 3.373a.5.5 0 0 1-.433.749M269.56 412.118a.5.5 0 0 1-.052-.998c.055-.005 5.548-.61 9.77-2.986a.5.5 0 1 1 .49.87c-4.405 2.48-9.922 3.087-10.155 3.11zM249.555 402.854c-.24 0-.46-.074-.65-.22-1.258-.97-.389-4.163.326-6.171-2.284 1.205-6.21 2.99-7.309 1.676-1.102-1.324.947-3.852 2.23-5.208-3.898-.32-3.956-1.08-3.98-1.381-.023-.305-.076-1.002 7.434-5.451-2.257-.474-6.144-1.613-5.913-3.807.141-1.352 1.947-2.232 2.153-2.328a.5.5 0 0 1 .423.907c-.388.182-1.512.854-1.583 1.526-.142 1.352 3.662 2.543 6.41 2.957l1.402.21-1.225.716c-3.393 1.979-7.06 4.31-7.95 5.156.652.256 2.447.49 3.986.569l1.168.06-.85.803c-1.836 1.735-3.455 4.009-2.937 4.63.476.572 3.867-.624 7.25-2.566l1.272-.73-.56 1.355c-1.085 2.62-1.8 5.773-1.136 6.284 1.08-.197 3.3-3.468 4.559-5.725l.886.46c-.254.525-.88 2.206-.445 3.012.093.17.278.407.82.48 3.183.408 5.114-4.26 5.135-4.306a.495.495 0 0 1 .65-.275c.255.103.38.394.276.65-.09.223-2.257 5.429-6.193 4.922-.92-.123-1.36-.61-1.569-.998a2.35 2.35 0 0 1-.255-.894c-1.09 1.637-2.508 3.44-3.573 3.66a1.3 1.3 0 0 1-.252.027"/><path fill="#231f20" d="M253.577 411.982a.5.5 0 0 1-.117-.014c-4.841-1.146-3.362-9.727-3.296-10.091a.5.5 0 0 1 .985.175c-.014.08-1.385 8.014 2.543 8.944a.5.5 0 0 1-.115.986M259.386 396.326c-3.301 0-4.5-1.564-4.934-2.71-.584-1.54 1.048-2.5 2.239-3.202.424-.25.906-.533 1.033-.712.252-.353.25-.702.225-1.288-.017-.365-.035-.776.039-1.243.097-.615.624-1.04 1.233-1.533.828-.666 1.767-1.425 1.797-2.78.014-.59-.166-1.315-.356-2.084-.231-.934-.47-1.9-.401-2.79.082-1.065.6-2.09 1.017-2.913.219-.434.426-.845.52-1.16.128-.437.14-.82.155-1.267.015-.456.03-.972.19-1.58.234-.885 1.24-1.786 2.05-2.51.293-.26.623-.555.705-.676.103-.156.139-.348.199-.7.067-.4.16-.946.455-1.665.565-1.385 1.672-2.317 1.719-2.356a.5.5 0 0 1 .64.769c-.01.007-.964.818-1.434 1.965a6.2 6.2 0 0 0-.394 1.453c-.068.401-.126.748-.353 1.087-.153.23-.453.498-.87.87-.634.566-1.593 1.423-1.75 2.017-.13.498-.143.916-.158 1.36-.015.47-.031.957-.195 1.515-.12.404-.347.853-.587 1.33-.397.781-.846 1.67-.912 2.537-.057.73.163 1.617.375 2.475.207.835.4 1.623.385 2.346-.041 1.819-1.271 2.81-2.17 3.536-.41.332-.836.676-.873.91-.057.367-.042.71-.027 1.042.027.621.055 1.264-.41 1.915-.251.351-.756.647-1.34.991-1.187.7-2.075 1.29-1.811 1.986.815 2.145 3.732 2.638 8.216 1.39 4.083-1.139 5.245-2.007 5.257-2.014a.5.5 0 0 1 .699.087.5.5 0 0 1-.08.697c-.05.04-1.262.98-5.608 2.192-1.814.506-3.288.712-4.485.712M280.145 348.217a.5.5 0 0 1-.364-.157c-4.408-4.69-10.096-17.31-9.846-19.11.041-.298.195-.449.317-.522 1.541-.92 6.345 2.742 8.34 4.362a.5.5 0 1 1-.632.776c-3.027-2.458-6.199-4.333-7.04-4.32.115 1.963 5.408 13.68 9.59 18.128a.5.5 0 0 1-.365.843"/><path fill="#231f20" d="M278.043 353.064a.5.5 0 0 1-.39-.187c-8.936-11.124-7.423-18.666-6.971-19.12.51-.506 1.296-.127 1.862.398a.5.5 0 0 1-.68.733 2.1 2.1 0 0 0-.488-.337c-.133.828-1.075 7.576 7.057 17.7a.501.501 0 0 1-.39.813"/><path fill="#231f20" d="M276.816 356.45a.5.5 0 0 1-.323-.119c-4.19-3.553-8.912-9.41-7.609-17.14l.023-.137c.187-1.151.558-1.793 1.134-1.964.67-.199 1.191.36 1.248.423a.5.5 0 0 1-.738.675.6.6 0 0 0-.228-.139c-.002.002-.259.123-.429 1.166l-.024.142c-1.224 7.265 3.277 12.826 7.27 16.212a.498.498 0 0 1-.324.881"/><path fill="#231f20" d="M274.772 358.845a.5.5 0 0 1-.27-.08c-.03-.02-3.045-1.978-6.189-4.715-5.327-4.636-4.524-8.564-3.21-10.154 1.236-1.497 3.814-1.636 3.923-1.641.251-.034.51.198.523.475a.5.5 0 0 1-.475.523c-.022.002-2.247.125-3.2 1.279-1.084 1.312-1.65 4.633 3.095 8.764a61 61 0 0 0 6.075 4.629.5.5 0 0 1-.272.92"/><path fill="#231f20" d="M272.787 362.582a.5.5 0 0 1-.147-.022c-.073-.023-1.832-.593-7.035-4.334-4.004-2.88-4.828-6.165-4.996-7.444-.135-1.02-.024-1.89.288-2.272.615-.75 2.785-.544 4.025-.353a.5.5 0 0 1-.152.988c-1.378-.21-2.86-.208-3.106.005-.32.494-.364 4.747 4.525 8.263 5.008 3.602 6.733 4.188 6.75 4.192a.501.501 0 0 1-.152.977"/><path fill="#231f20" d="M271.152 365.619a.5.5 0 0 1-.155-.025c-5.365-1.75-12.18-6.848-11.542-9.47.424-1.743 2.355-1.889 3.316-1.717a.5.5 0 0 1 .406.577.504.504 0 0 1-.577.409c-.075-.014-1.865-.3-2.174.968-.41 1.692 5.457 6.513 10.881 8.281a.5.5 0 0 1 .321.631.5.5 0 0 1-.476.345"/><path fill="#231f20" d="M265.488 367.604a.5.5 0 0 1-.21-.046c-4.98-2.304-8.453-6.031-7.741-8.311.576-1.844 2.259-1.9 3.065-1.675a.5.5 0 0 1-.268.963c-.236-.061-1.43-.31-1.843 1.01-.43 1.376 2.104 4.746 7.207 7.105a.5.5 0 0 1-.21.954"/><path fill="#231f20" d="M262.627 371.692a.5.5 0 0 1-.247-.065c-5.274-2.998-7.152-5.194-6.482-7.58.499-1.773 2.25-2.178 3.123-2.172a.5.5 0 0 1 .486.513c-.008.277-.27.485-.512.487-.067.004-1.723-.016-2.134 1.445-.362 1.287.069 3.059 6.014 6.437a.5.5 0 0 1-.248.935"/><path fill="#231f20" d="M261.328 375.086c-3.986 0-6.002-1.255-7-2.336-.849-.92-1.25-2.032-1.132-3.13.271-2.515 3.608-3.048 3.75-3.069a.5.5 0 0 1 .151.988c-.028.004-2.718.44-2.907 2.188-.088.807.222 1.64.873 2.345 1.275 1.38 3.686 2.092 6.79 2.006.271.008.507.21.515.487a.5.5 0 0 1-.486.513 21 21 0 0 1-.554.008"/><path fill="#231f20" d="M260.642 379.925q-.02 0-.04-.002c-1.95-.152-8.356-.906-8.92-4.21-.379-2.215 1.493-3.545 2.535-3.938a.5.5 0 0 1 .354.934c-.09.035-2.237.884-1.904 2.836.352 2.062 4.537 3.11 8.014 3.382a.499.499 0 0 1-.039.998"/><path fill="#231f20" d="M260.292 385.53a.5.5 0 0 1-.097-.01c-4.518-.891-8.747-2.077-9.1-4.684-.27-1.996 2.12-3.471 2.222-3.533a.5.5 0 0 1 .519.855c-.538.329-1.9 1.426-1.75 2.544.27 2.002 4.579 3.102 8.302 3.839a.5.5 0 0 1-.096.99"/><path fill="#231f20" d="M256.792 390.529c-2.066 0-5.512-.245-6.027-1.842-.642-1.99 1.826-5.584 2.11-5.987a.5.5 0 1 1 .818.574c-.96 1.367-2.345 3.963-1.976 5.107.286.89 3.54 1.267 6.386 1.114.289-.034.51.195.527.472a.5.5 0 0 1-.471.526c-.257.015-.751.036-1.367.036M270.48 330.237a.5.5 0 0 1-.27-.08c-.09-.058-9.2-5.917-16.875-11.034-7.692-5.128-16.258-12.032-16.344-12.101a.5.5 0 1 1 .628-.777c.086.068 8.618 6.943 16.27 12.046 7.669 5.112 16.772 10.967 16.863 11.025a.502.502 0 0 1-.271.92M271.752 334.307a.5.5 0 0 1-.197-.041c-.168-.072-16.897-7.27-26.085-11.863-9.191-4.596-18.968-10.37-19.066-10.427a.5.5 0 1 1 .509-.861c.097.057 9.846 5.814 19.005 10.393 9.16 4.58 25.864 11.768 26.032 11.84a.498.498 0 0 1-.198.959M267.826 336.02a.5.5 0 0 1-.147-.021c-18.32-5.588-45.308-19.38-45.58-19.518a.501.501 0 0 1 .456-.891c.27.139 27.18 13.89 45.416 19.45a.501.501 0 0 1-.146.98M265.399 339.019a.5.5 0 0 1-.13-.017c-12.744-3.398-41.18-16.368-41.465-16.498a.5.5 0 0 1 .416-.91c.285.13 28.644 13.066 41.307 16.442a.499.499 0 0 1-.128.983M259.33 341.446a.5.5 0 0 1-.212-.047c-4.206-1.963-26.534-9.1-26.759-9.17a.5.5 0 0 1 .304-.953c.921.294 22.614 7.228 26.878 9.217a.501.501 0 0 1-.212.953M259.9 346.23a.5.5 0 0 1-.196-.04c-5.38-2.307-19.464-4.697-19.606-4.721a.5.5 0 1 1 .166-.986c.583.099 14.345 2.434 19.834 4.787a.5.5 0 0 1-.197.96M261.329 352.94a.5.5 0 0 1-.096-.008c-9.05-1.768-19.952-4.68-20.061-4.708a.5.5 0 0 1-.354-.612.51.51 0 0 1 .613-.355c.108.03 10.977 2.932 19.993 4.693a.501.501 0 0 1-.095.99M259.616 356.724l-.046-.002c-6.673-.618-18.501-2.088-18.62-2.102a.5.5 0 0 1 .124-.993c.117.015 11.93 1.483 18.587 2.099a.5.5 0 0 1-.046.998M257.688 361.436a.5.5 0 0 1-.154-.024c-5.367-1.743-15.255-2.103-15.354-2.106a.5.5 0 0 1-.482-.517c.01-.276.25-.468.516-.483.412.015 10.127.369 15.628 2.154a.5.5 0 0 1-.154.976M255.974 365.291a1 1 0 0 1-.08-.007c-5.19-.84-15.61-1.204-15.715-1.207a.5.5 0 0 1-.483-.516c.01-.277.242-.469.517-.484.105.004 10.587.368 15.841 1.221a.5.5 0 0 1-.08.993M249.92 368.696c-4.14 0-8.132-.115-8.186-.116a.5.5 0 0 1-.485-.515c.009-.277.272-.487.515-.485.072.003 7.202.21 12.269.067a.52.52 0 0 1 .514.487.5.5 0 0 1-.486.513c-1.297.036-2.728.049-4.141.049M247.583 373.567c-3.685 0-7.525-.141-7.779-.15a.5.5 0 0 1-.48-.518c.01-.275.246-.474.517-.481.098.004 9.938.363 13.286-.055a.501.501 0 1 1 .124.992c-1.288.16-3.45.212-5.668.212M252.976 377.714h-.035l-11.764-.804a.5.5 0 1 1 .068-.998l11.765.803a.501.501 0 0 1-.034.999M251.591 381.268l-.033-.001-11.889-.777a.5.5 0 0 1-.466-.532.49.49 0 0 1 .532-.466l11.888.777a.5.5 0 0 1-.032.999"/><path fill="#ed1f27" d="m217.413 379.108 22.289.883 4.356.427s-2.018 1.315-1.868 1.927 1.452 2.033 1.452 2.033l-12.096 9.477c-.48.376-.184 1.145.423 1.104l2.377-.161-12.137 10.184s-8.052-.711-9-2.961c-.947-2.25-1.362-10.835 1.007-12.02 2.368-1.183 7.223-4.203 7.223-4.203Z"/><path fill="#231f20" d="m218.32 379.644 3.801 6.318-.418.26c-.199.125-4.902 3.046-7.264 4.228-1.937.967-1.766 9.009-.769 11.377.591 1.404 5.363 2.348 8.377 2.638l10.804-9.065-.848.057a1.1 1.1 0 0 1-1.12-.714 1.115 1.115 0 0 1 .354-1.282l11.68-9.15c-.45-.522-1.088-1.335-1.213-1.85-.128-.518.358-1.124 1.006-1.673l-3.057-.3Zm4.051 25.854-.206-.018c-.855-.075-8.383-.81-9.417-3.265-.938-2.227-1.557-11.26 1.244-12.66 1.917-.96 5.536-3.167 6.764-3.923l-4.249-7.06 23.215.919 5.801.568-1.192.777c-.803.524-1.59 1.222-1.652 1.465.07.225.746 1.1 1.331 1.739l.365.398-12.52 9.81c-.017.014-.07.054-.038.136.031.08.097.075.118.075l3.906-.262ZM283.658 449.17c-.186-2.7 3.16-7.52 5.604-11.04.7-1.007 1.468-2.113 1.845-2.765-1.708.293-4.933 1.11-4.97 1.117l-.247-.968c.177-.045 4.35-1.099 5.757-1.236.262-.02.484.084.605.291.297.506-.056 1.088-2.168 4.132-2.227 3.205-5.59 8.05-5.428 10.4Z"/><path fill="#fff" d="M294.438 431.93a1.356 1.356 0 1 1 2.711-.001 1.356 1.356 0 0 1-2.711 0"/><path fill="#231f20" d="M295.794 431.073a.856.856 0 1 0 0 1.712.856.856 0 0 0 0-1.712m0 2.713a1.86 1.86 0 0 1-1.856-1.857c0-1.023.833-1.856 1.856-1.856s1.856.833 1.856 1.856a1.86 1.86 0 0 1-1.856 1.857M227.747 404.65a.501.501 0 0 1-.343-.863c.175-.166 4.344-4.073 8.555-5.71a.5.5 0 0 1 .362.93c-4.026 1.568-8.189 5.467-8.23 5.506a.5.5 0 0 1-.344.137M230.255 408.203a.5.5 0 0 1-.437-.743c.109-.195 2.724-4.819 7.458-6.83a.5.5 0 1 1 .392.92c-4.413 1.875-6.951 6.351-6.976 6.396a.5.5 0 0 1-.437.257M234.692 408.826a.502.502 0 0 1-.428-.759c.08-.13 1.963-3.205 5.57-5.215a.5.5 0 0 1 .486.873c-3.365 1.876-5.182 4.83-5.2 4.86a.5.5 0 0 1-.428.241"/></g><g clip-path="url(#r)"><path fill="#231f20" d="M287.145 403.906q.407-.001.825.046c4.458.505 12.89 5.879 12.179 16.013l-.023.33-.313.108c-.061.02-6.123 2.14-8.861 5.862-2.973 4.04-2.765 6.354-2.58 8.394l.055.648-.116.152c-.052.068-4.916 6.508-4.36 11.946 1.939-1.324 7.917-5.676 13.095-12.302l.072-.075c.114-.096 11.392-9.72 11.475-23.352.083-13.722-14.427-27.514-25.923-28.761a105 105 0 0 0-5.571-.467c-1.822-.111-2.255-.136-2.58-.95-.466-1.166-.521-8.156 3.374-13.66.863-1.218 1.806-2.417 2.718-3.576 3.289-4.178 6.395-8.124 6.122-13.118-.542-9.898-12.053-22.88-30.043-33.88-14.96-9.145-36.272-17.61-42.716-20.085 1.756 4.003 7.447 9.939 13.935 14.519l-.527.847c-5.155-2.805-10.96-5.786-12.745-6.423.608 1.614 3.832 6.45 9.162 10.116l3.226 2.217-3.68-1.335c-2.492-.905-5.235-1.831-6.604-2.205 1.165 1.554 4.428 5.099 8.16 6.93l1.695.832-5.4.333c1.035 1.49 4.238 5.23 12.009 8.454l2.093.868-2.264.094c-2.415.099-5.232.353-6.024.612.233.975 1.887 5.026 13.275 7.449l3.41.725-3.476.263c-3.074.23-6.466.534-7.95.735 1.334 1.205 4.963 3.93 9.16 5.047l2.895.77-2.988.213c-1.92.135-4.13.366-5.055.555.77.997 3.25 3.54 5.582 4.873l1.42.812-1.632.12c-2.335.173-5.026.502-6.02.794 1.007.748 4.403 2.355 6.688 2.927l1.259.315-1.145.61c-1.682.898-3.603 2.015-4.227 2.502.32.294 1.118.913 1.813 1.396l.619.43-.64.403c-.75.473-1.605 1.069-2.01 1.415.672.464 2.44 1.444 3.99 2.243l.783.403-.748.466c-1.451.903-3.11 2.009-3.676 2.485.33.35 1.109 1.009 1.79 1.532l.444.34-.388.403a45 45 0 0 0-1.841 2.017c.665.177 1.89.438 2.962.639l.609.115-1.881 4.46-16.227-.208 12.119 3.573-16.988 9.51 12.704-3.135-2.184 1.534c-2.23 1.567-5.055 3.555-7.295 5.136 7.765-3.346 7.783-3.323 8.056-3.073l.24.22-.104.31c-.055.165-.082.243-6.441 5.422l6.895-2.67-1.526 1.612c-3.011 3.179-6.116 6.714-7.656 8.795 1.71-1.245 4.259-3.025 5.905-3.821l1.325-.642-.661 1.316c-1.462 2.912-3.016 6.123-3.781 7.872 1.294-1.071 3.497-3.043 5.502-4.91l1.79-1.664-.993 2.235a125 125 0 0 0-1.65 3.87c1.298-.907 3.587-2.625 5.653-4.22l1.24-.957-.456 1.499c-.641 2.1-1.572 5.222-2.021 6.863 2.795-1.972 11.118-8.366 15.083-12.748l.293-.323.429.236a.56.56 0 0 1 .182.717l-4.223 8.373a.965.965 0 0 0 .235 1.17l3.172 2.72c.329.282.768.38 1.179.257 1.073-.318 3.082-.976 4.484-1.817 2.062-1.238 7.357-5.936 7.41-5.984l.842-.748-.01 1.126c0 .079-.055 7.973.918 11.915.136.553.639.944 1.222.952l4.222.058c.29-.001.634-.127.859-.36.834-.865 2.904-3.07 4.115-4.854.683-1.01 1.424-2.348 2.14-3.643 1.135-2.054 1.859-3.331 2.409-3.717.123-.086.312-.253.56-.47 1.376-1.205 4.474-3.916 8.146-3.916m-3.917 45.155-.144-.707c-1.138-5.61 3.486-12.22 4.314-13.345l-.022-.261c-.19-2.107-.427-4.73 2.77-9.075 2.585-3.512 7.69-5.6 9.025-6.101.467-9.258-7.225-14.163-11.315-14.626-3.585-.415-6.82 2.42-8.2 3.629a10 10 0 0 1-.643.537c-.39.27-1.302 1.924-2.108 3.382-.727 1.314-1.48 2.673-2.188 3.718-1.254 1.849-3.37 4.104-4.222 4.988a2.2 2.2 0 0 1-1.593.666l-4.222-.058a2.27 2.27 0 0 1-2.18-1.712c-.79-3.202-.923-8.704-.943-11.056-1.6 1.395-5.076 4.372-6.73 5.365-1.497.897-3.597 1.587-4.715 1.918a2.25 2.25 0 0 1-2.113-.455l-3.173-2.72a1.964 1.964 0 0 1-.477-2.381l2.95-5.852c-4.964 4.74-13.891 11.74-14.674 11.6l-.281-.06-.097-.277c-.06-.175-.125-.372 1.842-6.878-5.543 4.243-5.788 4.167-6.07 4.07l-.251-.082-.083-.265c-.047-.163-.108-.377 1.157-3.336-4.785 4.375-5.176 4.339-5.405 4.336l-.212-.013-.163-.172c-.247-.288-.444-.52 3.516-8.468-2.608 1.58-6.092 4.245-6.134 4.276l-.645.495-.15-.8c-.225-1.194 4.027-6.06 7.404-9.701l-5.98 2.314-.472-.741.34-.301c2.182-1.774 4.495-3.662 6.168-5.038-2.255.958-5.271 2.258-6.944 2.98-1.853.799-1.913.823-1.957.839l-.41.136-.195-.385c-.09-.175-.14-.275.3-.661l-.012-.04.115-.048c.644-.54 2.114-1.576 5.308-3.827l3.388-2.384-11.373 2.808-.353-.826.394-.244 17.994-10.075-13.632-4.02.128-.894.465.01 19.047.244 1.138-2.7c-3.311-.64-3.35-.835-3.417-1.173-.051-.254-.092-.457 1.986-2.642-1.862-1.474-1.862-1.83-1.862-2.026 0-.281 0-.595 3.526-2.826-3.93-2.06-3.93-2.377-3.93-2.684 0-.232 0-.57 2.029-1.903-1.634-1.198-1.715-1.562-1.747-1.707-.078-.352-.16-.714 3.82-2.896-2.291-.787-6.595-2.555-6.52-3.696.026-.383.067-1.006 5.724-1.512-2.372-1.71-5.132-4.486-5.05-5.231.042-.371.079-.698 3.778-1.052-4.373-1.774-7.928-4.833-8.03-5.441l-.035-.216.139-.187c.144-.183.304-.387 6.124-.873-10.937-3.071-11.072-7.848-11.072-7.9 0-.414-.001-.966 4.916-1.286-8.706-4.08-10.911-8.557-11.006-8.76l-.316-.666 3.376-.21c-4.066-2.513-7.318-6.534-7.596-7.36a.62.62 0 0 1 .016-.488c.195-.391.333-.666 5.336 1.065-4.461-3.8-7.051-8.107-7.162-9.318q-.036-.399.19-.628c.263-.263.642-.635 8.919 3.704-4.672-3.984-8.327-8.265-9.667-11.477a.91.91 0 0 1 .19-.992.93.93 0 0 1 1.002-.222c6.265 2.402 27.882 10.96 43.04 20.228 14.317 8.752 29.852 22.458 30.52 34.677.294 5.37-3.075 9.652-6.334 13.79-.904 1.15-1.84 2.339-2.688 3.538-3.794 5.362-3.556 11.972-3.261 12.71.08.203.09.225 1.71.323 1.137.068 2.853.17 5.619.47 11.892 1.29 26.902 15.562 26.816 29.762-.084 13.674-11.017 23.405-11.79 24.075-6.355 8.118-13.888 12.874-13.964 12.92Z"/></g></svg>